<svg width="1144" height="600" viewBox="0 0 1144 600" fill="none" xmlns="http://www.w3.org/2000/svg">
<path d="M67.2 240L63.9 188.7H45.6L42.6 240H0L25.5 -3.57628e-06H83.7L110.1 240H67.2ZM55.5 47.7H54.3L47.4 156.6H62.1L55.5 47.7ZM203.208 208.2V240H133.008V-3.57628e-06H176.508V208.2H203.208ZM294.028 208.2V240H223.828V-3.57628e-06H267.328V208.2H294.028Z" fill="#63D25F"/>
<path d="M65.7 331.8V540H21.6V331.8H0V300H87.3V331.8H65.7ZM180.063 392.7V423.9H153.963V508.2H180.063V540H109.863V300H180.063V331.2H153.963V392.7H180.063ZM268.763 540L265.463 488.7H247.163L244.163 540H201.562L227.063 300H285.263L311.663 540H268.763ZM257.063 347.7H255.863L248.963 456.6H263.663L257.063 347.7ZM470.77 300V540H432.07L433.27 398.1H432.07L414.67 540H391.27L373.57 398.1H372.37L373.57 540H334.57V300H385.27L401.77 415.2H403.87L420.37 300H470.77ZM571.31 301.2C582.31 303.4 589.01 308.3 591.41 315.9L594.71 330.9L595.31 382.8H552.11V341.4L551.51 336.3L550.01 333L547.01 331.8H544.91L541.91 332.1L539.81 333.9L538.91 337.5V383.7C539.51 386.5 541.11 388.6 543.71 390L548.51 393.6L574.61 407.7C587.81 414.7 594.51 424.1 594.71 435.9L595.31 493.2C595.31 503.4 594.71 511.5 593.51 517.5L589.61 528.9C587.21 532.7 583.51 535.5 578.51 537.3L562.61 540L519.71 539.1L506.81 534.6C503.01 531.8 500.31 528.3 498.71 524.1L495.41 508.2V440.7H538.91V498.6L539.81 504.6L541.01 507.3L545.21 508.8L546.11 509.1L549.41 508.2L551.21 506.1L552.11 502.2V442.8L548.51 437.1L542.81 433.2L514.61 418.2C501.81 411.4 495.41 400.8 495.41 386.4V347.1C495.41 336.3 495.91 328.2 496.91 322.8L500.81 311.4C504.61 306.6 508.81 303.8 513.41 303L530.21 300.3L545.81 300L571.31 301.2Z" fill="black"/>
</svg>
