<?xml version="1.0" encoding="UTF-8" standalone="no"?>
<!-- Created with Inkscape (http://www.inkscape.org/) -->

<svg
   width="112.51114mm"
   height="115.70692mm"
   viewBox="0 0 112.51114 115.70693"
   version="1.1"
   id="svg576"
   inkscape:version="1.3.2 (091e20e, 2023-11-25, custom)"
   sodipodi:docname="NBA_Eastern_Conference_1993.svg"
   xmlns:inkscape="http://www.inkscape.org/namespaces/inkscape"
   xmlns:sodipodi="http://sodipodi.sourceforge.net/DTD/sodipodi-0.dtd"
   xmlns="http://www.w3.org/2000/svg"
   xmlns:svg="http://www.w3.org/2000/svg">
  <sodipodi:namedview
     id="namedview578"
     pagecolor="#ffffff"
     bordercolor="#000000"
     borderopacity="0.25"
     inkscape:showpageshadow="2"
     inkscape:pageopacity="0.0"
     inkscape:pagecheckerboard="0"
     inkscape:deskcolor="#d1d1d1"
     inkscape:document-units="mm"
     showgrid="false"
     inkscape:zoom="1"
     inkscape:cx="212"
     inkscape:cy="219"
     inkscape:window-width="1920"
     inkscape:window-height="1009"
     inkscape:window-x="-8"
     inkscape:window-y="-8"
     inkscape:window-maximized="1"
     inkscape:current-layer="layer1"
     showguides="true" />
  <defs
     id="defs573" />
  <g
     inkscape:label="Layer 1"
     inkscape:groupmode="layer"
     id="layer1"
     transform="translate(-40.117173,-89.392616)">
    <g
       id="g22284"
       style="display:inline"
       transform="translate(130.79504,-2.5885568)">
      <path
         id="path393"
         style="font-variation-settings:normal;vector-effect:none;fill:#006bb7;fill-opacity:1;fill-rule:evenodd;stroke:none;stroke-width:0.264583;stroke-linecap:butt;stroke-linejoin:miter;stroke-miterlimit:4;stroke-dasharray:none;stroke-dashoffset:0;stroke-opacity:1;stop-color:#000000"
         d="m 19.70161,153.71154 c -10e-6,29.81043 -24.1661272,53.97655 -53.976562,53.97656 -29.810432,0 -53.976564,-24.16613 -53.97657,-53.97656 1.3e-5,-29.81043 24.166142,-53.976556 53.97657,-53.976556 29.8104243,1e-5 53.976552,24.166126 53.976562,53.976556 z"
         sodipodi:nodetypes="ccccc" />
      <path
         id="path375"
         style="font-variation-settings:normal;vector-effect:none;fill:#000000;fill-opacity:1;fill-rule:evenodd;stroke:none;stroke-width:0.264583;stroke-linecap:butt;stroke-linejoin:miter;stroke-miterlimit:4;stroke-dasharray:none;stroke-dashoffset:0;stroke-opacity:1;stop-color:#000000"
         d="m 18.255702,153.71154 c 0,29.01187 -23.518776,52.53065 -52.530654,52.53065 -29.011878,0 -52.530654,-23.51878 -52.530658,-52.53065 1e-5,-29.01188 23.518784,-52.53065 52.530658,-52.53065 29.011878,0 52.530643,23.51877 52.530654,52.53065 z"
         sodipodi:nodetypes="ccccc" />
      <path
         id="path372"
         style="font-variation-settings:normal;vector-effect:none;fill:#c4ced4;fill-opacity:1;fill-rule:evenodd;stroke:none;stroke-width:0.264583;stroke-linecap:butt;stroke-linejoin:miter;stroke-miterlimit:4;stroke-dasharray:none;stroke-dashoffset:0;stroke-opacity:1;stop-color:#000000"
         d="m 17.252301,153.71154 c 0,28.4577 -23.0695432,51.52724 -51.527253,51.52724 -28.457711,0 -51.527247,-23.06954 -51.527251,-51.52724 -10e-7,-28.45772 23.069536,-51.52726 51.527251,-51.52726 28.4577202,0 51.527253,23.06954 51.527253,51.52726 z"
         sodipodi:nodetypes="ccccc" />
      <path
         id="path777"
         style="color:#000000;font-style:normal;font-variant:normal;font-weight:normal;font-stretch:normal;font-size:medium;line-height:normal;font-family:sans-serif;font-variant-ligatures:normal;font-variant-position:normal;font-variant-caps:normal;font-variant-numeric:normal;font-variant-alternates:normal;font-variant-east-asian:normal;font-feature-settings:normal;font-variation-settings:normal;text-indent:0;text-align:start;text-decoration:none;text-decoration-line:none;text-decoration-style:solid;text-decoration-color:#000000;letter-spacing:normal;word-spacing:normal;text-transform:none;writing-mode:lr-tb;direction:ltr;text-orientation:mixed;dominant-baseline:auto;baseline-shift:baseline;text-anchor:start;white-space:normal;shape-padding:0;shape-margin:0;inline-size:0;clip-rule:nonzero;display:inline;overflow:visible;visibility:visible;isolation:auto;mix-blend-mode:normal;color-interpolation:sRGB;color-interpolation-filters:linearRGB;solid-color:#000000;solid-opacity:1;vector-effect:none;fill:#006bb7;fill-opacity:1;fill-rule:nonzero;stroke:none;stroke-width:0.992426;stroke-linecap:butt;stroke-linejoin:miter;stroke-miterlimit:4;stroke-dasharray:none;stroke-dashoffset:0;stroke-opacity:1;color-rendering:auto;image-rendering:auto;shape-rendering:auto;text-rendering:auto;enable-background:accumulate;stop-color:#000000"
         d="m -50.642413,95.369464 v 8.545346 c -1.939287,0.84198 -4.493929,2.139 -5.179658,3.37332 l -0.07623,0.13723 v 13.20049 h 43.25891 l -0.01176,-13.20049 -0.07828,-0.13723 c -0.775888,-1.3604 -3.736944,-2.77257 -5.564915,-3.54053 l -0.0042,-8.193639 -0.343079,-0.161625 c -5.471315,-2.577584 -10.49142,-3.353785 -15.823605,-3.408891 -6.662009,-0.06886 -12.804749,1.436971 -15.878509,3.212195 z"
         sodipodi:nodetypes="cccccccccccccc" />
      <path
         id="path3964"
         style="color:#000000;font-style:normal;font-variant:normal;font-weight:normal;font-stretch:normal;font-size:medium;line-height:normal;font-family:sans-serif;font-variant-ligatures:normal;font-variant-position:normal;font-variant-caps:normal;font-variant-numeric:normal;font-variant-alternates:normal;font-variant-east-asian:normal;font-feature-settings:normal;font-variation-settings:normal;text-indent:0;text-align:start;text-decoration:none;text-decoration-line:none;text-decoration-style:solid;text-decoration-color:#000000;letter-spacing:normal;word-spacing:normal;text-transform:none;writing-mode:lr-tb;direction:ltr;text-orientation:mixed;dominant-baseline:auto;baseline-shift:baseline;text-anchor:start;white-space:normal;shape-padding:0;shape-margin:0;inline-size:0;clip-rule:nonzero;display:inline;overflow:visible;visibility:visible;isolation:auto;mix-blend-mode:normal;color-interpolation:sRGB;color-interpolation-filters:linearRGB;solid-color:#000000;solid-opacity:1;vector-effect:none;fill:#000000;fill-opacity:1;fill-rule:nonzero;stroke:none;stroke-width:0.992426;stroke-linecap:butt;stroke-linejoin:miter;stroke-miterlimit:4;stroke-dasharray:none;stroke-dashoffset:0;stroke-opacity:1;color-rendering:auto;image-rendering:auto;shape-rendering:auto;text-rendering:auto;enable-background:accumulate;stop-color:#000000"
         d="m -49.443428,118.0139 h 29.955746 l -0.0083,-21.676203 c -5.158184,-2.372381 -9.867927,-3.102455 -14.978884,-3.15527 -6.312762,-0.06524 -12.161817,1.420977 -14.9677,2.949425 z m 31.154716,0 h 4.452342 l -0.01041,-10.19566 c -0.194965,-0.29666 -0.930661,-0.95202 -2.121469,-1.62236 -0.660197,-0.37165 -1.446107,-0.75928 -2.325783,-1.1446 z m -32.353701,-12.79032 c -0.723247,0.32811 -1.377242,0.6561 -1.939,0.9723 -1.19095,0.67035 -1.92654,1.32574 -2.121477,1.62236 v 10.19566 h 4.060477 z"
         sodipodi:nodetypes="cccccccccccccccccc" />
      <path
         id="path22245"
         style="color:#000000;fill:#ffffff;stroke:none;stroke-width:1;-inkscape-stroke:none;paint-order:markers stroke fill"
         d="m -37.235134,95.659501 v 0.150379 0.321427 l 0.131775,0.01602 c 0.111069,0.01316 0.160711,0.02724 0.160711,0.13436 v 11.299563 c 0,0.10394 -0.05142,0.1206 -0.162778,0.1343 l -0.129708,0.016 v 0.47181 h 4.20026 c 1.590883,0 2.270663,-2.44354 2.270663,-3.79977 0,-0.91639 -0.340971,-2.24019 -1.135332,-2.69234 0.559343,-0.37668 0.926042,-2.16507 0.926042,-3.053044 0,-1.666785 -0.908651,-2.998784 -2.112533,-2.998784 z m -4.42402,1.25257 c 0.0097,0.01441 0.03256,0.08116 0.03256,0.205156 v 5.401733 c -0.306593,-0.65618 -2.24999,-4.823832 -2.24999,-5.033276 0,-0.09752 0.04792,-0.168685 0.196368,-0.222209 l 0.09767,-0.03462 v -0.568958 c 0,0 -1.853664,0.406992 -2.8298,0.753955 v 0.547254 l 0.162264,-0.01447 c 0.101771,-0.0093 0.130224,0.02612 0.130224,0.189136 v 10.720278 c 0,0.21207 -0.03797,0.28481 -0.203093,0.3576 l -0.0894,0.0408 v 0.57361 l 2.29495,-0.61237 v -0.55914 l -0.164331,0.0165 c -0.10176,0.009 -0.130226,-0.0489 -0.130226,-0.1891 v -6.46317 c 1.954981,4.0941 2.499109,5.37725 2.614311,5.65805 0.103567,0.25227 0.142172,0.35034 0.09563,0.43103 -0.01256,0.0182 -0.03379,0.038 -0.105937,0.0568 l -0.111621,0.0305 v 0.56534 l 2.295467,-0.30489 v -0.57309 l -0.164848,0.0139 c -0.1015,0.009 -0.128159,-0.0333 -0.128159,-0.18909 V 96.921957 c 0,-0.210217 0.03732,-0.285458 0.203609,-0.359668 l 0.0894,-0.03876 v -0.536916 c -0.695766,0.07805 -1.456956,0.170373 -2.222086,0.382406 v 0.557072 z m 17.364345,0.912357 c -0.01518,-0.0861 -0.03196,-0.195767 -0.0083,-0.249597 l 0.176736,0.0098 v -0.56534 l -3.039142,-0.77843 v 0.575159 l 0.08113,0.04289 c 0.126229,0.06402 0.12816,0.117539 0.12816,0.16071 0,0.04251 -0.04815,0.291755 -0.07541,0.447 l -1.836063,10.081 c -0.05699,0.33539 -0.102319,0.35281 -0.16072,0.36689 l -0.115755,0.0264 v 0.53692 l 2.149223,0.35605 0.0708,-0.54312 -0.127641,-0.0326 c -0.04367,-0.0112 -0.07751,-0.0448 -0.07751,-0.14626 0,-0.0894 0.03215,-0.24857 0.05064,-0.3576 l 0.256315,-1.51102 2.236556,0.49196 0.284737,1.67949 c 0.02035,0.11407 0.05221,0.27442 0.05221,0.34371 0.001,0.0645 -0.01549,0.0998 -0.01549,0.0998 l -0.182938,-0.0166 v 0.57361 l 2.368331,0.60565 v -0.59996 l -0.121989,-0.0359 c -0.06299,-0.0897 -0.1135,-0.31907 -0.174665,-0.67549 z m -10.773532,-0.197087 h 1.276924 c 0.84083,0 0.983919,0.735443 0.983919,1.2361 0,0.50855 -0.186239,1.894979 -0.983919,1.894979 h -1.276924 z m 9.319844,2.238623 0.829407,4.537706 -1.588017,-0.40876 z m -9.319844,2.797246 h 1.635042 c 0.682795,0 0.88005,0.95178 0.88005,1.45572 0,0.6992 -0.306354,2.11667 -0.88005,2.11667 h -1.635042 z"
         sodipodi:nodetypes="ccccccccccccccccccccccccccccccccccccccccccccccccccccccccccccccccccccccccccccccccccccccccccccccccc" />
      <path
         style="color:#000000;font-style:normal;font-variant:normal;font-weight:normal;font-stretch:normal;font-size:medium;line-height:normal;font-family:sans-serif;font-variant-ligatures:normal;font-variant-position:normal;font-variant-caps:normal;font-variant-numeric:normal;font-variant-alternates:normal;font-variant-east-asian:normal;font-feature-settings:normal;font-variation-settings:normal;text-indent:0;text-align:start;text-decoration:none;text-decoration-line:none;text-decoration-style:solid;text-decoration-color:#000000;letter-spacing:normal;word-spacing:normal;text-transform:none;writing-mode:lr-tb;direction:ltr;text-orientation:mixed;dominant-baseline:auto;baseline-shift:baseline;text-anchor:start;white-space:normal;shape-padding:0;shape-margin:0;inline-size:0;clip-rule:nonzero;display:inline;overflow:visible;visibility:visible;isolation:auto;mix-blend-mode:normal;color-interpolation:sRGB;color-interpolation-filters:linearRGB;solid-color:#000000;solid-opacity:1;vector-effect:none;fill:#000000;fill-opacity:1;fill-rule:nonzero;stroke:none;stroke-width:1;stroke-linecap:butt;stroke-linejoin:miter;stroke-miterlimit:4;stroke-dasharray:none;stroke-dashoffset:0;stroke-opacity:1;color-rendering:auto;image-rendering:auto;shape-rendering:auto;text-rendering:auto;enable-background:accumulate;stop-color:#000000"
         d="m -75.475334,151.25613 c 0,23.42649 18.367933,42.31514 40.827598,42.31514 22.860074,0 41.0617553,-19.15392 41.0617553,-42.31516 0,-23.03268 -17.9094853,-42.27787 -41.0705423,-42.27787 -22.300148,0 -40.818811,18.90952 -40.818811,42.27789 z"
         id="path1195"
         sodipodi:nodetypes="ccccc" />
      <path
         id="path318"
         style="color:#000000;font-style:normal;font-variant:normal;font-weight:normal;font-stretch:normal;font-size:medium;line-height:normal;font-family:sans-serif;font-variant-ligatures:normal;font-variant-position:normal;font-variant-caps:normal;font-variant-numeric:normal;font-variant-alternates:normal;font-variant-east-asian:normal;font-feature-settings:normal;font-variation-settings:normal;text-indent:0;text-align:start;text-decoration:none;text-decoration-line:none;text-decoration-style:solid;text-decoration-color:#000000;letter-spacing:normal;word-spacing:normal;text-transform:none;writing-mode:lr-tb;direction:ltr;text-orientation:mixed;dominant-baseline:auto;baseline-shift:baseline;text-anchor:start;white-space:normal;shape-padding:0;shape-margin:0;inline-size:0;clip-rule:nonzero;display:inline;overflow:visible;visibility:visible;isolation:auto;mix-blend-mode:normal;color-interpolation:sRGB;color-interpolation-filters:linearRGB;solid-color:#000000;solid-opacity:1;vector-effect:none;fill:#f36f21;fill-opacity:1;fill-rule:nonzero;stroke:none;stroke-width:1;stroke-linecap:butt;stroke-linejoin:miter;stroke-miterlimit:4;stroke-dasharray:none;stroke-dashoffset:0;stroke-opacity:1;color-rendering:auto;image-rendering:auto;shape-rendering:auto;text-rendering:auto;enable-background:accumulate;stop-color:#000000"
         d="m -49.518884,177.20403 c 2.934012,3.35003 7.483189,6.32206 8.506563,8.96325 2.336964,0.10145 4.436084,0.0669 6.490465,-0.071 -4.883198,-9.44831 -7.314312,-21.57596 -7.709376,-33.89123 -0.474667,-14.79658 2.189297,-30.08508 7.436652,-41.66518 -5.152192,0.0416 -10.304365,1.12348 -15.139572,3.26028 -4.197471,5.3605 -24.803199,34.60965 0.415268,63.40388 z m 16.466068,-66.63945 c -5.297089,11.34254 -8.060446,26.73846 -7.584042,41.58932 0.397651,12.39581 2.920656,24.56422 7.84224,33.79656 2.267137,-0.22383 4.487255,-0.5868 6.662597,-1.0925 -0.188423,-1.06288 0.244995,-2.22169 0.911761,-3.99831 0.715616,-1.90681 1.804847,-4.47994 3.167774,-7.98049 5.254166,-13.49488 6.627945,-27.22105 6.29305,-38.14613 -0.358529,-11.69491 -2.59039,-19.1851 -3.783146,-21.15291 -4.321832,-1.83551 -8.90138,-2.84245 -13.510234,-3.01554 z m 15.732355,4.04672 c 2.660712,6.79782 3.103971,18.46627 3.153248,20.07386 0.340236,11.09896 -1.048139,25.02536 -6.400633,38.7728 -1.371264,3.52194 -2.468303,6.11277 -3.162392,7.96219 -0.576825,1.53701 -0.799198,2.5839 -0.81978,3.04351 9.307554,-2.48707 17.7849594,-7.65554 25.5858517,-15.79636 2.5440278,-5.56133 3.7827694,-11.63329 3.7827694,-17.65089 0,-16.40423 -9.5843497,-30.09986 -22.1390641,-36.40511 z m -35.720142,0.73533 c -11.324597,6.27697 -20.839964,19.30674 -20.839964,35.8847 0,16.82899 9.419503,27.13342 13.666352,30.92469 4.161746,1.72647 10.285615,3.37505 17.273475,3.89826 -1.610672,-2.38593 -5.155632,-4.80636 -7.778228,-7.80082 -23.52081,-26.85591 -8.327835,-54.19723 -2.321635,-62.90683 z m 51.4503424,58.16458 c -6.700631,6.13805 -13.9777844,10.27144 -22.1437424,12.457 2.098907,1.82019 7.023258,0.97347 8.819089,0.58579 6.7403471,-4.03046 10.9533603,-9.29282 13.3246534,-13.04279 z m -54.6708304,11.74588 c 3.873753,2.65669 8.109072,4.53059 12.495191,5.61743 0.895046,-0.45919 1.543608,-1.26825 1.450753,-3.17531 -5.236105,-0.3206 -10.003277,-1.25951 -13.945944,-2.44212 z m 30.799309,1.14092 c -2.098887,0.48428 -4.255796,0.84461 -6.476476,1.08067 0.856062,1.46614 1.776471,2.84977 2.764874,4.13602 3.467962,-0.49561 6.887468,-1.47259 10.160647,-2.93163 -2.315182,0.069 -5.042961,-0.33312 -6.449045,-2.28506 z m -15.258451,1.38084 c 0.03064,1.53097 -0.428381,2.69704 -1.120474,3.5201 3.571944,0.69178 7.221325,0.87199 10.838416,0.532 -0.962079,-1.31788 -1.859153,-2.71813 -2.690642,-4.19304 -2.442421,0.18588 -4.721552,0.22438 -7.0273,0.14094 z"
         sodipodi:nodetypes="cccccccccccccccccccccccccccccccccccccccccccccccc" />
      <path
         id="path1199"
         style="fill:#000000;fill-opacity:1;fill-rule:nonzero;stroke:none;stroke-width:1.32772"
         d="m 21.833271,182.76883 v -40.89007 c -4.452187,-3.11057 -9.413511,-7.34875 -17.9268071,-10.71042 -8.5133174,-3.36165 -20.6931719,-5.92988 -39.8573169,-5.92988 -17.898346,0 -30.036948,3.23704 -38.46022,6.89489 -6.387341,2.77373 -16.266794,9.4462 -16.266794,9.4462 v 40.94754 c 1.881082,1.40601 3.984372,2.69185 6.107705,3.53855 4.144997,-3.49161 9.223542,-6.85152 15.412932,-9.29547 7.637235,-3.01565 21.049496,-6.24727 33.589667,-6.30345 13.211349,-0.0592 24.634086,1.95837 35.88317572,6.61998 6.15124808,2.54908 11.23340228,5.76818 15.37688128,9.2597 2.278743,-1.01885 4.315128,-2.39302 6.140777,-3.57757 z"
         sodipodi:nodetypes="ccccccccccccc" />
      <path
         style="color:#000000;font-style:normal;font-variant:normal;font-weight:normal;font-stretch:normal;font-size:medium;line-height:normal;font-family:sans-serif;font-variant-ligatures:normal;font-variant-position:normal;font-variant-caps:normal;font-variant-numeric:normal;font-variant-alternates:normal;font-variant-east-asian:normal;font-feature-settings:normal;font-variation-settings:normal;text-indent:0;text-align:start;text-decoration:none;text-decoration-line:none;text-decoration-style:solid;text-decoration-color:#000000;letter-spacing:normal;word-spacing:normal;text-transform:none;writing-mode:lr-tb;direction:ltr;text-orientation:mixed;dominant-baseline:auto;baseline-shift:baseline;text-anchor:start;white-space:normal;shape-padding:0;shape-margin:0;inline-size:0;clip-rule:nonzero;display:inline;overflow:visible;visibility:visible;isolation:auto;mix-blend-mode:normal;color-interpolation:sRGB;color-interpolation-filters:linearRGB;solid-color:#000000;solid-opacity:1;vector-effect:none;fill:#000000;fill-opacity:1;fill-rule:nonzero;stroke:none;stroke-width:1;stroke-linecap:butt;stroke-linejoin:miter;stroke-miterlimit:4;stroke-dasharray:none;stroke-dashoffset:0;stroke-opacity:1;color-rendering:auto;image-rendering:auto;shape-rendering:auto;text-rendering:auto;enable-background:accumulate;stop-color:#000000"
         d="m -34.403308,116.04901 c -27.158707,0 -44.07677,8.22436 -54.302995,16.43118 l -0.187042,0.15045 v 49.09227 l 0.187042,0.15247 c 0,0 1.75555,1.43915 3.700166,2.05339 l 0.256165,0.0793 0.209405,-0.16467 c 4.458484,-3.53246 9.592112,-6.82641 15.577296,-9.02678 10.377472,-3.81516 22.220988,-6.05022 34.559963,-6.13781 h 0.0021 c 13.16329,-0.0162 26.0958688,2.82846 34.43391503,6.23539 6.15413147,2.5146 11.43442597,5.58558 15.54476197,9.04914 l 0.195174,0.16469 0.248042,-0.0589 c 1.634681,-0.39544 3.260035,-1.65255 3.852644,-2.07372 l 0.213473,-0.15045 V 132.7161 l -0.172814,-0.15045 c -10.9548617,-9.62837 -31.1352,-16.51657 -54.317226,-16.51657 z"
         id="path1211"
         sodipodi:nodetypes="ccccccccccccccccccccc" />
      <path
         id="path383"
         style="color:#000000;font-style:normal;font-variant:normal;font-weight:normal;font-stretch:normal;font-size:medium;line-height:normal;font-family:sans-serif;font-variant-ligatures:normal;font-variant-position:normal;font-variant-caps:normal;font-variant-numeric:normal;font-variant-alternates:normal;font-variant-east-asian:normal;font-feature-settings:normal;font-variation-settings:normal;text-indent:0;text-align:start;text-decoration:none;text-decoration-line:none;text-decoration-style:solid;text-decoration-color:#000000;letter-spacing:normal;word-spacing:normal;text-transform:none;writing-mode:lr-tb;direction:ltr;text-orientation:mixed;dominant-baseline:auto;baseline-shift:baseline;text-anchor:start;white-space:normal;shape-padding:0;shape-margin:0;inline-size:0;clip-rule:nonzero;display:inline;overflow:visible;visibility:visible;isolation:auto;mix-blend-mode:normal;color-interpolation:sRGB;color-interpolation-filters:linearRGB;solid-color:#000000;solid-opacity:1;vector-effect:none;fill:#006bb7;fill-opacity:1;fill-rule:nonzero;stroke:none;stroke-width:1;stroke-linecap:butt;stroke-linejoin:miter;stroke-miterlimit:4;stroke-dasharray:none;stroke-dashoffset:0;stroke-opacity:1;color-rendering:auto;image-rendering:auto;shape-rendering:auto;text-rendering:auto;enable-background:accumulate;stop-color:#000000"
         d="m -34.403518,117.05562 c -26.811832,0 -43.407195,8.05227 -53.483654,16.08308 v 3.08386 c 11.221389,-8.82558 27.29103,-16.56881 53.343798,-16.56881 22.459951,0 42.355486,6.57681 53.6219,16.61883 v -3.08063 C 8.3693001,123.88188 -11.532539,117.05562 -34.403518,117.05562 Z m -0.139856,3.48246 c -26.305346,0 -42.221518,7.9055 -53.343798,16.81356 V 180.928 c 11.150391,-10.34107 32.621749,-16.62637 53.483654,-16.62637 20.977226,0 41.4283162,6.04507 53.482044,16.91631 v -43.75227 c -10.9013145,-10.11612 -30.933641,-16.92759 -53.6219,-16.92759 z m 34.9584546,53.44277 c 6.1118917,2.49733 11.3592304,5.55591 15.5322514,9.01866 0.839851,-0.24755 1.737457,-0.77345 2.424912,-1.22591 -11.8214981,-10.58135 -32.035833,-16.58764 -52.775762,-16.58764 -20.709117,0 -42.072569,6.33334 -52.924761,16.4295 0.561154,0.37403 1.452138,0.90697 2.425988,1.25387 4.458461,-3.5044 9.585998,-6.79039 15.591421,-8.99821 10.491406,-3.85705 22.446608,-6.14981 34.904662,-6.20053 13.310497,-0.0542 26.3276974,2.83977 34.8212886,6.31026 z"
         sodipodi:nodetypes="ccccccccccccccccccccccc" />
      <path
         id="path1219"
         style="fill:#ffffff;fill-opacity:1;fill-rule:nonzero;stroke:none;stroke-width:1.32772"
         d="m -42.396909,124.60631 0.02797,11.51243 3.076863,-1.23828 -0.0086,-6.98534 h 1.505621 v 29.68098 h -1.615893 v 3.63576 c 1.468124,-0.0389 6.570229,-0.16188 7.531328,-0.0726 v -3.5626 l -1.620734,-0.0253 v -29.65624 h 1.537356 v 6.98642 l 3.087087,1.18556 v -11.50005 c -0.395929,-0.12326 -2.255939,-0.17912 -4.478671,-0.18935 -3.704549,-0.0171 -8.417264,0.0928 -9.042327,0.22861 z m 15.346668,0.0291 v 3.42705 l 1.702496,0.20333 v 29.67722 l -1.702496,-0.11565 v 3.53893 c 4.21213,0.13511 7.855121,0.86967 10.440361,1.23182 v -11.12512 l -2.802529,1.30928 v 5.85304 l -1.542198,-0.19903 v -12.66786 l 1.542198,0.23722 v 1.93218 l 1.779956,0.35933 v -7.53456 l -1.779956,-0.25335 v 1.7353 l -1.542198,-0.23506 v -13.32197 l 1.542198,0.20226 v 5.91974 l 2.802529,2.6702 v -11.62377 c -3.036543,-0.53348 -6.786783,-1.01856 -10.440361,-1.22053 z m -22.503606,0.31739 -1.896683,0.26465 c -3.522945,0.49167 -3.777748,0.62409 -3.71537,6.03432 l 0.04895,4.24575 c 0.03362,2.91568 1.446167,4.82477 2.92033,6.8159 2.249149,3.03789 4.186894,5.0092 4.239296,9.56464 l 0.05541,4.81647 c 0.01234,1.07214 -0.383304,1.1345 -0.689603,1.18234 -0.593827,0.0927 -0.951515,0.17728 -0.966632,-0.99299 l -0.04142,-3.2065 -4.362477,-1.85796 0.0624,5.4765 c 0.06762,5.93452 1.767532,5.34237 5.889076,4.72772 4.602211,-0.68632 4.986612,-0.63373 4.92406,-6.47701 l -0.05433,-5.07522 c -0.09725,-9.08399 -6.906868,-8.64514 -7.016005,-18.00342 l -0.02959,-2.5368 c -0.0117,-1.00427 0.0043,-1.2107 0.745548,-1.27862 0.840088,-0.077 0.900312,-0.0835 0.916068,1.28292 l 0.05056,4.38507 4.288782,1.79502 v -6.61365 c 0,-5.25639 -2.090603,-5.00655 -5.36837,-4.54913 z m 34.545337,4.59002 1.685283,0.34964 v 29.97684 l -1.685283,-0.23292 v 3.23985 c 2.076813,0.26605 6.1952974,1.32647 6.9460751,1.50616 l 0.08015,-3.22909 -1.025264,-0.27595 v -14.47902 c 1.6826249,0.36355 2.0967146,2.02209 2.1016279,3.99724 l 0.025283,10.16333 c 0.00548,2.20081 0.075903,2.94663 0.4088128,4.20165 l 4.4533847,1.33617 c -0.2743981,-1.32604 -0.7420169,-2.82621 -0.7493125,-5.92404 l -0.02206,-9.36453 c -0.00857,-3.63549 -0.4922295,-5.36408 -3.488367,-6.23603 v -0.0904 c 2.647907,0.9026 3.8895151,-1.61438 3.8848111,-3.99347 l -0.00914,-4.62606 c -0.00967,-4.89328 -1.3662071,-7.11935 -5.8438914,-8.27257 -1.2767864,-0.32883 -6.7621087,-1.52068 -6.7621087,-1.52068 z m -43.26061,-2.7014 c -1.852565,0.39419 -6.632706,1.77649 -9.490945,2.88106 v 3.49052 l 1.410408,-0.52662 -2.579294,30.62449 -1.498628,0.54598 0.0011,3.33345 c 2.022513,-0.81067 5.610656,-1.87073 7.355965,-2.34154 v -3.35281 l -1.478187,0.45669 0.345878,-8.98262 2.685264,-1.00052 0.692297,8.91054 -1.281312,0.36524 v 3.32377 c 2.753773,-0.74938 5.936403,-1.2988 6.964366,-1.50078 V 159.66 l -1.274316,0.18235 -3.040826,-29.26464 1.188253,-0.36255 z m 57.60514594,6.45065 1.16296984,0.48466 -0.003773,29.65194 -1.15866516,-0.40397 v 3.5427 c 0.69789868,0.16436 5.16342898,1.94993 5.16342898,1.94993 v -29.57555 l 3.2022005,30.95315 c 0.9541334,0.41648 5.2380789,2.85757 5.4985499,3.00801 l -0.05917,-32.35119 1.228056,0.87088 -0.03712,-3.48245 c -3.090862,-2.2175 -4.3546299,-2.84344 -5.5706302,-3.56636 l 0.026357,3.46201 0.7342502,0.44969 -0.020986,22.0055 -2.3291648,-26.80638 c -0.7647053,-0.50979 -5.8054659,-2.69282 -7.836324,-3.49374 z M -71.803023,131.33084 c -0.85246,0.26744 -7.448988,3.5692 -10.610879,5.74491 v 3.47385 l 1.502392,-0.97093 v 28.99192 l -1.502392,0.90853 v 3.39585 c 3.629909,-2.22028 7.89332,-4.23905 10.610879,-5.15698 v -11.31178 l -2.889132,3.02792 v 6.04722 l -1.604058,0.70897 -0.04465,-12.84699 1.562639,-0.67131 v 1.78426 l 1.748757,-0.77191 v -7.15694 l -1.748757,0.70951 v 1.72455 l -1.545963,0.7676 -0.04734,-12.71466 1.679367,-0.79557 v 5.22905 l 2.889132,0.89993 z m 62.7475996,0.83323 0.5556651,0.12426 c 0.7734827,0.17296 1.577682,0.5196 1.5814661,2.04622 l 0.016139,6.51144 c 0.00377,1.52663 -0.7918609,2.15938 -1.566941,1.99512 l -0.5863266,-0.12426 z m -54.1737976,1.29691 0.949955,14.62533 -1.636333,0.58094 z"
         sodipodi:nodetypes="cccccccccccccccccccccccccccccccccccccccccccccccccccccccccccccccccccccccccccccccccccccccccccccccccccccccccccccccccccccccccccccccccccccccccccccccccccccccccccccccccccc" />
      <path
         id="path1247"
         style="fill:#000000;fill-opacity:1;fill-rule:nonzero;stroke:none;stroke-width:1.32772"
         d="m -56.741448,129.61268 c 0,0.90477 0.0096,6.45582 0.193111,7.86805 0.152396,1.17271 1.653136,3.62579 2.135517,4.29686 3.011024,4.18878 4.282883,5.46472 4.747087,8.35971 0.07768,0.48445 0.116188,2.03493 0.116188,2.03493 l 0.715425,0.28993 c 0,0 -0.03425,-1.69147 -0.04895,-2.02255 -0.160805,-3.62094 -4.203047,-7.65992 -4.975161,-8.97455 -0.698793,-1.1898 -1.759225,-2.79834 -1.997271,-4.18013 -0.189569,-1.10037 -0.178338,-6.08983 -0.108658,-7.7836 0.06962,-1.69239 0.0276,-2.6949 0.598698,-3.31893 -1.550305,1.03355 -1.375986,2.93313 -1.375986,3.43028 z m 29.740696,-0.6966 -0.02206,28.08661 0.846677,0.035 V 129.0124 Z m 24.2873295,0.30446 -0.0043,1.12531 c 0.1560042,0.14067 0.6953649,1.81394 0.7622238,2.41846 v -3.25545 z m -65.8933185,0.8144 -0.75792,0.21839 v 3.48891 l 0.747699,-0.29801 z m 53.63965,0.64442 v 28.14094 l 0.798264,0.1334 v -28.10329 z m -52.295405,3.32161 -0.757919,0.29209 -2.512594,28.71382 0.757919,-0.23238 z m 66.1531317,0.13717 -0.0043,27.86768 0.76598868,0.25605 v -27.83433 z m -47.8447107,0.84399 c 0,0 0.01044,1.028 0.423338,1.18932 l 3.07848,1.20278 -0.01129,-0.95856 z m 28.648732,0.11242 v 1.2017 l 2.015022,1.78318 v -1.0925 z m -12.404285,0.48896 v 0.91338 l 3.102149,1.11456 v -0.91392 z m -5.932646,0.81494 -0.767603,0.29908 v 20.00662 h 0.767603 z m -44.618304,1.16781 -0.75792,0.44539 v 3.47385 l 0.75792,-0.44539 z m 1.499702,3.58789 -0.757383,0.41365 v 26.8677 l 0.757383,-0.43786 z m 6.216126,0.77889 v 0.89186 l 2.138208,0.66648 v -0.88648 z m 57.566421,8.39844 -2.182855,1.02527 v 0.89132 l 2.182855,-1.02526 z m -37.556579,0.70145 c 0,0 -0.05478,6.95092 0.08499,7.53025 0.05245,0.2174 0.200643,0.45937 0.200643,0.45937 l 0.739631,-0.11565 c 0,0 -0.216192,-0.43342 -0.221084,-0.85689 l -0.07746,-6.7051 z m -6.740056,2.18446 -0.771904,0.23399 0.535224,7.04398 0.756305,-0.1603 z m 67.5780647,1.17857 -0.045184,6.10263 0.8386065,8.61199 0.7579191,0.42657 z m -78.0888917,0.54813 -2.690643,2.82889 v 1.20224 l 2.690643,-2.78317 z m 31.771319,2.66805 v 3.66588 h 0.757382 v -3.65781 z m 12.297776,0.11673 v 3.54162 l 0.824621,0.0447 v -3.56421 z m -54.543882,12.24022 -0.75039,0.44539 v 3.39908 l 0.756845,-0.46099 z"
         sodipodi:nodetypes="ccccccccccccccccccccccccccccccccccccccccccccccccccccccccccccccccccccccccccccccccccccccccccccccccccccccccccccccccccccccc" />
      <path
         id="path391"
         style="fill:#000000;fill-opacity:1;fill-rule:nonzero;stroke:none;stroke-width:1.43057"
         d="m 0.42422427,178.65209 -2.01287097,2.59489 5.6437883,4.37539 2.0962491,-2.70463 -0.8439881,-0.6541 -1.3453199,1.73477 -1.6562349,-1.28454 0.9687798,-1.25065 -0.8439853,-0.65464 -0.9687825,1.25119 -1.45505497,-1.12854 1.26140747,-1.6245 z m -73.41280927,3.55726 c -0.792214,0.6262 -1.067096,1.59922 -0.27057,2.60781 0.760106,0.96246 1.772109,0.91872 2.563697,0.2937 l 0.643342,-0.50833 -0.759533,-0.96286 -0.675618,0.53307 c -0.365027,0.2878 -0.658658,0.3319 -0.933819,-0.0172 -0.30645,-0.38888 -0.203033,-0.67264 0.215166,-1.0032 l 2.838569,-2.24418 c 0.418609,-0.3309 0.719367,-0.36581 1.026338,0.0226 0.19579,0.24778 0.165473,0.62315 -0.307148,0.99783 l -0.434095,0.34426 0.761147,0.96233 0.410427,-0.32598 c 0.836072,-0.66439 1.168767,-1.67855 0.407738,-2.64115 -0.821979,-1.03971 -1.843447,-0.9379 -2.600811,-0.33943 z m 66.7792631,3.71963 c -0.9755054,0.83644 -0.8922788,1.84641 -0.2350694,2.61157 l 2.3969436,2.79016 c 0.6565318,0.76442 1.6409688,1.00059 2.6164108,0.16406 0.93074275,-0.79819 0.85765675,-1.81747 0.1893456,-2.57176 l -0.534687,-0.62291 -0.9305913,0.79827 0.5599698,0.65195 c 0.3029804,0.35262 0.3578369,0.64436 0.019912,0.93382 -0.3750667,0.32127 -0.6618143,0.23042 -1.0102018,-0.17536 l -2.3571466,-2.74497 c -0.347732,-0.40493 -0.3945051,-0.70384 -0.018838,-1.02581 0.2393933,-0.20514 0.6152118,-0.19099 1.0085878,0.26681 l 0.3614778,0.42011 0.9305913,-0.7988 -0.3421137,-0.39752 c -0.7059573,-0.81911 -1.733687,-1.08923 -2.6545909,-0.29962 z m -60.2506071,3.6884 c -0.665778,0.75806 -0.760985,1.76712 0.204407,2.61426 0.966902,0.84844 1.954401,0.62342 2.620713,-0.13556 l 2.426528,-2.76433 c 0.664996,-0.75748 0.76063,-1.76557 -0.206021,-2.61426 -0.963487,-0.84586 -1.94951,-0.62584 -2.618025,0.1353 z m 4.309231,-1.0736 -2.387261,2.72076 c -0.352116,0.40136 -0.640938,0.49017 -1.012892,0.16353 -0.371175,-0.32594 -0.320466,-0.62399 0.03174,-1.02526 l 2.38726,-2.72023 c 0.352208,-0.40127 0.64319,-0.48844 1.012883,-0.16394 0.371842,0.32663 0.320389,0.62378 -0.03173,1.02514 z m 50.69672,1.53574 -0.970934,0.53361 1.968224,3.57928 -0.01829,0.009 -3.274818,-2.85901 -0.996217,0.54813 3.437805,6.25594 0.970396,-0.53307 -2.147349,-3.90795 0.01666,-0.0108 3.5168808,3.15701 0.9359673,-0.51424 z m -44.236925,0.61376 -3.432426,6.25863 0.970397,0.53199 2.144124,-3.90902 0.01776,0.009 -0.775133,4.66156 0.936507,0.51316 3.4335,-6.25808 -0.971471,-0.53361 -1.963382,3.58089 -0.01721,-0.0102 0.654102,-4.29739 z m 36.142402,3.40123 -3.133881,0.97846 2.127447,6.81483 3.266209,-1.01935 -0.318445,-1.01988 -2.095172,0.65356 -0.625055,-2.0005 1.51046,-0.47067 -0.317905,-1.02042 -1.511,0.47067 -0.547595,-1.75521 1.963922,-0.61215 z m -28.154387,0.35502 -2.143584,6.80945 1.168885,0.36739 0.950493,-3.01769 1.565327,0.49219 0.320598,-1.01881 -1.565866,-0.49219 0.5519,-1.75467 2.094095,0.65894 0.320596,-1.01881 z m 7.920236,1.89668 -0.621827,7.11122 3.408219,0.29908 0.09306,-1.06453 -2.18608,-0.1915 0.182353,-2.08818 1.57501,0.13824 0.0936,-1.06506 -1.576084,-0.13663 0.160298,-1.83268 2.048911,0.17967 0.09306,-1.06453 z m 9.997659,0.16243 -1.714331,0.14631 0.610533,7.11229 1.221602,-0.10436 -0.249592,-2.91656 c 0.216243,-0.0179 0.471277,-0.0494 0.627206,-0.0828 l 1.1194,2.87084 1.240427,-0.10704 -1.30982,-3.13173 c 0.397061,-0.22271 0.800768,-0.72353 0.702515,-1.8671 -0.08141,-0.94752 -0.403157,-2.08145 -2.24794,-1.91985 z m 0.214592,3.19577 -0.432482,0.0377 -0.188271,-2.18662 0.434635,-0.0377 c 0.713189,-0.0605 0.931831,0.23779 0.998367,1.01492 0.07266,0.84825 -0.152261,1.11454 -0.812249,1.1717 z"
         sodipodi:nodetypes="ccccccccccccccccccccccccccccccccccccccccccccccccccccccccccccccccccccccccccccccccccccccccccccccccccccccccccccccccccccccccccccccccccccccccccccc" />
      <path
         id="path967"
         style="fill:#ffffff;fill-opacity:1;fill-rule:nonzero;stroke:none;stroke-width:1.43057"
         d="m -0.03891901,178.51385 -2.01287099,2.59489 5.6437883,4.37539 2.0962491,-2.70463 -0.8439881,-0.6541 -1.3453199,1.73477 -1.6562376,-1.28454 0.9687826,-1.25065 -0.8439853,-0.65464 -0.96878261,1.25119 -1.45505494,-1.12855 1.26140748,-1.62449 z M -73.28121,181.77902 c -0.792213,0.6262 -1.067096,1.59922 -0.27057,2.60781 0.760106,0.96246 1.772112,0.91872 2.563697,0.2937 l 0.643343,-0.50833 -0.759534,-0.96286 -0.675617,0.53307 c -0.365026,0.2878 -0.658658,0.33193 -0.933819,-0.0172 -0.306451,-0.38888 -0.203034,-0.67264 0.215165,-1.0032 l 2.838569,-2.24418 c 0.418609,-0.3309 0.719367,-0.36583 1.026338,0.0226 0.195787,0.24779 0.165473,0.62317 -0.307147,0.99783 l -0.434096,0.34427 0.761147,0.96233 0.410427,-0.32598 c 0.836072,-0.66439 1.168767,-1.67855 0.407738,-2.64115 -0.821978,-1.03971 -1.843442,-0.93791 -2.600811,-0.33944 z m 66.5554912,3.89176 c -0.9755054,0.83644 -0.8922787,1.84641 -0.2350694,2.61157 l 2.3969436,2.79016 c 0.6565318,0.76443 1.6409688,1.00059 2.6164108,0.16406 0.9307428,-0.79819 0.8457617,-1.8071 0.1893456,-2.57176 l -0.534687,-0.6229 -0.9305912,0.79826 0.5599697,0.65195 c 0.3029914,0.35262 0.3578479,0.64436 0.019912,0.93382 -0.3750749,0.32127 -0.6618143,0.23042 -1.0102018,-0.17536 l -2.3571355,-2.74497 c -0.3477321,-0.40492 -0.3945383,-0.70384 -0.018838,-1.0258 0.2393933,-0.20515 0.6152118,-0.191 1.0085878,0.2668 l 0.3614779,0.42011 0.9305912,-0.7988 -0.3421136,-0.39752 c -0.7059535,-0.8191 -1.7336928,-1.08924 -2.6546021,-0.29962 z m -57.5992332,0.75094 -2.427602,2.76434 c -0.665778,0.75807 -0.760985,1.76712 0.204407,2.61426 0.966902,0.84844 1.954402,0.62342 2.620713,-0.13555 l 2.426529,-2.76434 c 0.664995,-0.75748 0.760629,-1.76557 -0.206022,-2.61426 -0.962988,-0.84542 -1.949602,-0.62548 -2.618025,0.13555 z m 1.881629,1.69173 -2.38726,2.72076 c -0.352117,0.40136 -0.640939,0.49017 -1.012893,0.16353 -0.371175,-0.32595 -0.320466,-0.624 0.03174,-1.02526 l 2.387261,-2.72023 c 0.35184,-0.40087 0.642943,-0.48864 1.012882,-0.16395 0.371842,0.32664 0.320389,0.62379 -0.03173,1.02515 z m 50.501996,1.77942 -0.970934,0.53361 1.968224,3.57927 -0.01829,0.01 -3.274816,-2.85901 -0.996216,0.54813 3.437804,6.25593 0.970397,-0.53307 -2.147349,-3.90794 0.01666,-0.0108 3.5168776,3.15701 0.93597,-0.51424 z m -43.981415,0.30822 -3.432426,6.25862 0.970394,0.532 2.144124,-3.90902 0.01774,0.01 -0.775133,4.66156 0.936507,0.51317 3.433502,-6.25809 -0.971473,-0.53361 -1.963382,3.58089 -0.01721,-0.0102 0.654102,-4.29738 z m 36.081617,3.46309 -3.133882,0.97846 2.127447,6.81483 3.266209,-1.01935 -0.318444,-1.01988 -2.095173,0.65356 -0.625055,-2.0005 1.51046,-0.47067 -0.317905,-1.02042 -1.510999,0.47067 -0.547596,-1.75521 1.963922,-0.61215 z m -28.154388,0.28617 -2.143584,6.80944 1.168885,0.3674 0.950493,-3.0177 1.565327,0.49219 0.320598,-1.0188 -1.565866,-0.49219 0.5519,-1.75468 2.094095,0.65895 0.320596,-1.01881 z m 7.989089,1.94832 -0.621827,7.11122 3.408219,0.29908 0.09306,-1.06454 -2.18608,-0.19149 0.182353,-2.08818 1.575011,0.13824 0.0936,-1.06507 -1.576084,-0.13663 0.160298,-1.83267 2.048911,0.17967 0.09306,-1.06454 z m 10.083725,0.21407 -1.71433,0.14631 0.610532,7.11229 1.221602,-0.10435 -0.249591,-2.91657 c 0.216242,-0.0179 0.471276,-0.0494 0.627206,-0.0828 l 1.119399,2.87085 1.240427,-0.10705 -1.309819,-3.13172 c 0.397061,-0.22271 0.800767,-0.72353 0.702514,-1.8671 -0.08133,-0.94654 -0.402532,-2.08154 -2.24794,-1.91986 z m 1.026346,2.02419 c 0.07266,0.84812 -0.152262,1.11441 -0.81225,1.17157 l -0.432482,0.0377 -0.188271,-2.18662 0.434635,-0.0377 c 0.731655,-0.062 0.934156,0.26523 0.998368,1.01505 z"
         sodipodi:nodetypes="ccccccccccccccccccccccccccccccccccccccccccccccccccccccccccccccccccccccccccccccccccccccccccccccccccccccccccccccccccccccccccccccccccccccccccccc" />
    </g>
  </g>
</svg>
