<svg width="1114" height="600" viewBox="0 0 1114 600" fill="none" xmlns="http://www.w3.org/2000/svg">
<path d="M70.2 92.7V123.9H44.1V208.2H70.2V240H0V-3.57628e-06H70.2V31.2H44.1V92.7H70.2ZM158.899 240L155.599 188.7H137.299L134.299 240H91.6992L117.199 -3.57628e-06H175.399L201.799 240H158.899ZM147.199 47.7H145.999L139.099 156.6H153.799L147.199 47.7ZM300.607 1.19998C311.607 3.39999 318.307 8.29999 320.707 15.9L324.007 30.9L324.607 82.8H281.407V41.4L280.807 36.3L279.307 33L276.307 31.8H274.207L271.207 32.1L269.107 33.9L268.207 37.5V83.7C268.807 86.5 270.407 88.6 273.007 90L277.807 93.6L303.907 107.7C317.107 114.7 323.807 124.1 324.007 135.9L324.607 193.2C324.607 203.4 324.007 211.5 322.807 217.5L318.907 228.9C316.507 232.7 312.807 235.5 307.807 237.3L291.907 240L249.007 239.1L236.107 234.6C232.307 231.8 229.607 228.3 228.007 224.1L224.707 208.2V140.7H268.207V198.6L269.107 204.6L270.307 207.3L274.507 208.8L275.407 209.1L278.707 208.2L280.507 206.1L281.407 202.2V142.8L277.807 137.1L272.107 133.2L243.907 118.2C231.107 111.4 224.707 100.8 224.707 86.4V47.1C224.707 36.3 225.207 28.2 226.207 22.8L230.107 11.4C233.907 6.59999 238.107 3.8 242.707 2.99999L259.507 0.299993L275.107 -3.57628e-06L300.607 1.19998ZM414.333 31.8V240H370.233V31.8H348.633V-3.57628e-06H435.933V31.8H414.333ZM528.696 92.7V123.9H502.596V208.2H528.696V240H458.496V-3.57628e-06H528.696V31.2H502.596V92.7H528.696ZM644.695 12L649.495 24L650.995 48.6V79.8L650.095 99C649.095 103.6 647.295 108.1 644.695 112.5C640.495 116.7 636.095 119.6 631.495 121.2L640.495 126.3C647.495 132.5 650.995 143.2 650.995 158.4V240H607.495L606.595 144.6C605.595 143 604.195 141.8 602.395 141L596.695 140.1H595.495L593.695 140.4V240H550.195V-3.57628e-06H612.895L631.495 2.7C636.695 4.49999 641.095 7.59998 644.695 12ZM601.795 31.8L596.395 31.2H593.695V104.4L595.795 104.7H597.595L602.695 104.4L605.995 102.6L607.495 99V40.2L606.595 35.7L605.395 33L601.795 31.8ZM778.472 -3.57628e-06V240H739.772L715.172 117H713.972L715.172 240H676.172V-3.57628e-06H715.172L739.172 119.7H741.272V-3.57628e-06H778.472Z" fill="#253B73"/>
<path d="M49.5 330.9L46.2 331.8L44.1 333.9L45 506.4L48 508.2H50.1L52.8 507.9L55.5 505.5L56.4 437.7H99.9V492.3L98.1 516.6C97.9 519.2 96.6 523 94.2 528C91.4 531.8 87.4 534.6 82.2 536.4L65.4 539.7L50.4 540L24.9 538.8L12.6 534.6C8 532 4.9 528.7 3.3 524.7L0.3 510.3L0 346.8C0 341.2 0.2 335.7 0.6 330.3C1.2 322.5 2.3 316.9 3.9 313.5C6.3 308.5 10.5 304.9 16.5 302.7L31.8 300L75 300.9C79.2 300.9 83.3 302.2 87.3 304.8C91.5 307.4 94.3 310.7 95.7 314.7L99.3 329.1L99.9 381.6H56.4V341.4L55.8 335.7L54.3 332.7L50.7 331.2L49.5 330.9ZM215.761 311.4C219.761 317.6 221.761 329.6 221.761 347.4L221.161 509.4L218.161 523.8C215.161 532.6 208.361 537.4 197.761 538.2L172.261 540L154.861 539.7L139.261 536.4C135.261 535.2 131.761 532.7 128.761 528.9C125.161 525.1 123.361 521.2 123.361 517.2L122.461 329.4C123.261 324.4 124.261 319.9 125.461 315.9C128.461 307.3 135.461 302.6 146.461 301.8L171.961 300L189.361 300.9C193.561 301.1 197.361 301.6 200.761 302.4C208.161 303.8 213.161 306.8 215.761 311.4ZM178.261 338.7L177.061 334.8L174.361 332.1L171.061 331.5H170.161L166.861 333L165.961 505.2L168.061 507.6L172.261 508.5L173.761 507.9L176.461 506.7L178.261 338.7ZM347.808 300V540H309.108L284.508 417H283.308L284.508 540H245.508V300H284.508L308.508 419.7H310.608V300H347.808ZM442.87 392.7V423.9H416.17V540H372.07V300H442.87V331.2H416.17V392.7H442.87ZM533.677 392.7V423.9H507.577V508.2H533.677V540H463.477V300H533.677V331.2H507.577V392.7H533.677ZM649.676 312L654.476 324L655.976 348.6V379.8L655.076 399C654.076 403.6 652.276 408.1 649.676 412.5C645.476 416.7 641.076 419.6 636.476 421.2L645.476 426.3C652.476 432.5 655.976 443.2 655.976 458.4V540H612.476L611.576 444.6C610.576 443 609.176 441.8 607.376 441L601.676 440.1H600.476L598.676 440.4V540H555.176V300H617.876L636.476 302.7C641.676 304.5 646.076 307.6 649.676 312ZM606.776 331.8L601.376 331.2H598.676V404.4L600.776 404.7H602.576L607.676 404.4L610.976 402.6L612.476 399V340.2L611.576 335.7L610.376 333L606.776 331.8ZM751.352 392.7V423.9H725.252V508.2H751.352V540H681.152V300H751.352V331.2H725.252V392.7H751.352ZM875.152 300V540H836.452L811.852 417H810.652L811.852 540H772.852V300H811.852L835.852 419.7H837.952V300H875.152ZM948.914 330.9L945.614 331.8L943.514 333.9L944.414 506.4L947.414 508.2H949.514L952.214 507.9L954.914 505.5L955.814 437.7H999.314V492.3L997.514 516.6C997.314 519.2 996.014 523 993.614 528C990.814 531.8 986.814 534.6 981.614 536.4L964.814 539.7L949.814 540L924.314 538.8L912.014 534.6C907.414 532 904.314 528.7 902.714 524.7L899.714 510.3L899.414 346.8C899.414 341.2 899.614 335.7 900.014 330.3C900.614 322.5 901.714 316.9 903.314 313.5C905.714 308.5 909.914 304.9 915.914 302.7L931.214 300L974.414 300.9C978.614 300.9 982.714 302.2 986.714 304.8C990.914 307.4 993.714 310.7 995.114 314.7L998.714 329.1L999.314 381.6H955.814V341.4L955.214 335.7L953.714 332.7L950.114 331.2L948.914 330.9ZM1092.08 392.7V423.9H1065.97V508.2H1092.08V540H1021.88V300H1092.08V331.2H1065.97V392.7H1092.08Z" fill="black"/>
</svg>
