<svg width="653" height="327" viewBox="0 0 653 327" fill="none" xmlns="http://www.w3.org/2000/svg">
<path d="M58.5 326.098C47.3 326.098 41.7 319.598 41.7 306.598C41.7 288.798 52.8 266.298 75 239.098C104.8 202.098 133.9 176.598 162.3 162.598C163.3 158.798 164.6 153.798 166.2 147.598C168 141.198 170 133.498 172.2 124.498C176.4 107.098 178.8 96.2984 179.4 92.0984C178.8 94.4984 173.1 103.498 162.3 119.098C154.9 129.498 147.4 138.998 139.8 147.598C132.4 156.198 124.8 163.698 117 170.098C95 188.498 73.3 197.698 51.9 197.698C49.7 197.698 47.5 197.598 45.3 197.398C43.1 197.198 40.9 196.898 38.7 196.498C27.7 194.498 18.5 188.598 11.1 178.798C3.7 168.998 1.2517e-06 156.798 1.2517e-06 142.198C1.2517e-06 116.998 9.8 93.0984 29.4 70.4984C23.8 61.6984 20.2 51.7984 18.6 40.7984V39.2984C18.6 35.4984 19.8 33.5984 22.2 33.5984C24.2 33.5984 25.4 35.5984 25.8 39.5984C27 48.7984 29.9 57.0984 34.5 64.4984C62.3 34.8984 101.5 14.4984 152.1 3.29843C157.3 2.29843 162.2 1.49843 166.8 0.898424C171.6 0.298432 176.1 -0.0015645 180.3 -0.0015645C207.1 -0.0015645 220.5 9.49843 220.5 28.4984C220.5 41.2984 213.2 53.6984 198.6 65.6984C199 66.0984 199.6 66.5984 200.4 67.1984C201.4 67.7984 201.8 68.4984 201.6 69.2984L177.3 157.798C181.3 156.598 184.9 155.998 188.1 155.998C194.9 155.998 199.8 158.698 202.8 164.098C204 166.098 204.6 167.998 204.6 169.798C204.6 171.198 204.2 171.898 203.4 171.898C202 171.898 200.4 170.398 198.6 167.398C196.2 162.798 192.2 160.498 186.6 160.498C183.6 160.498 179.9 161.298 175.5 162.898C151.3 233.898 121.7 284.498 86.7 314.698C82.3 318.498 77.5 321.298 72.3 323.098C67.1 325.098 62.5 326.098 58.5 326.098ZM100.8 92.6984C126.8 92.6984 151.1 86.7984 173.7 74.9984C176.1 69.7984 177.6 65.8984 178.2 63.2984C178.8 60.4984 181.3 59.0984 185.7 59.0984C188.9 59.0984 191.8 59.7984 194.4 61.1984C205.2 51.5984 210.6 41.5984 210.6 31.1984C210.6 14.5984 199.4 6.29843 177 6.29843C173.2 6.29843 169.2 6.59843 165 7.19843C161 7.79842 156.7 8.59843 152.1 9.59844C131.5 14.3984 111.4 23.3984 91.8 36.5984C74.2 48.3984 59.2 61.9984 46.8 77.3984C60.4 87.5984 78.4 92.6984 100.8 92.6984ZM50.4 191.398C55.8 191.398 61.3 190.698 66.9 189.298C83.7 185.498 103 171.298 124.8 146.698C133.6 136.698 141.7 126.498 149.1 116.098C156.7 105.698 163.4 94.9984 169.2 83.9984C145.8 94.9984 121.9 100.498 97.5 100.498C74.1 100.498 55.6 94.9984 42 83.9984C39.6 87.1984 37.3 90.4984 35.1 93.8984C33.1 97.0984 31.3 100.398 29.7 103.798C20.9 121.998 16.5 138.698 16.5 153.898C16.5 178.898 27.8 191.398 50.4 191.398ZM65.7 318.898C69.9 318.898 74.9 315.998 80.7 310.198C115.7 273.598 142.3 226.398 160.5 168.598C135.7 182.998 110.8 206.898 85.8 240.298C66.4 266.298 56.7 287.798 56.7 304.798C56.7 314.198 59.7 318.898 65.7 318.898ZM295.664 196.198C291.664 196.198 287.964 194.898 284.564 192.298C281.364 189.698 279.464 187.198 278.864 184.798C278.264 181.998 281.964 171.998 289.964 154.798L283.064 164.698C280.064 169.098 277.064 172.998 274.064 176.398C271.064 179.798 268.264 182.798 265.664 185.398C258.064 192.598 251.664 195.598 246.464 194.398C234.464 191.598 228.464 184.798 228.464 173.998C228.464 165.398 232.564 154.398 240.764 140.998C243.364 136.998 246.664 132.998 250.664 128.998C254.664 124.998 259.264 121.098 264.464 117.298C277.864 107.498 290.764 102.598 303.164 102.598C310.764 102.598 317.964 104.598 324.764 108.598C326.964 110.198 328.064 111.898 328.064 113.698C328.064 115.098 327.664 115.798 326.864 115.798C326.664 115.798 326.464 115.698 326.264 115.498C322.064 110.898 316.464 108.598 309.464 108.598C301.264 108.598 292.364 111.698 282.764 117.898C273.164 124.098 264.564 132.398 256.964 142.798C246.164 157.798 240.764 169.998 240.764 179.398C240.764 184.798 242.664 188.198 246.464 189.598C251.264 191.598 261.464 182.698 277.064 162.898C283.464 155.098 288.764 148.098 292.964 141.898C297.364 135.698 300.864 130.398 303.464 125.998C304.664 123.798 306.864 122.698 310.064 122.698C316.064 122.698 319.064 124.498 319.064 128.098C319.064 128.698 318.964 129.098 318.764 129.298C301.364 156.898 292.664 175.598 292.664 185.398C292.664 187.798 293.364 189.098 294.764 189.298C298.964 190.498 305.964 187.398 315.764 179.998C327.564 171.198 338.664 159.498 349.064 144.898C351.264 141.898 353.264 140.398 355.064 140.398C355.664 140.398 355.964 140.598 355.964 140.998C355.964 141.998 355.064 143.898 353.264 146.698C349.064 153.298 344.364 159.498 339.164 165.298C334.164 171.098 328.564 176.498 322.364 181.498C313.564 188.898 306.364 193.498 300.764 195.298C299.364 195.898 297.664 196.198 295.664 196.198ZM446.07 195.898C441.67 196.298 437.47 195.198 433.47 192.598C429.47 189.798 427.47 186.698 427.47 183.298C427.47 177.098 433.37 165.198 445.17 147.598C458.17 128.198 464.67 116.998 464.67 113.998C464.67 112.198 463.77 111.198 461.97 110.998C456.17 111.398 448.37 115.998 438.57 124.798C423.57 138.598 408.47 159.398 393.27 187.198C392.67 188.198 390.37 188.698 386.37 188.698C381.97 188.698 379.77 186.898 379.77 183.298C379.77 177.098 385.67 165.198 397.47 147.598C410.47 128.198 416.97 116.998 416.97 113.998C416.97 112.198 416.07 111.198 414.27 110.998C408.47 111.398 399.47 117.198 387.27 128.398C369.67 144.798 353.47 166.598 338.67 193.798C338.47 194.198 337.97 194.498 337.17 194.698C336.57 194.898 335.37 194.998 333.57 194.998C325.97 194.998 322.57 193.798 323.37 191.398C325.57 185.598 329.37 176.898 334.77 165.298C340.37 153.698 347.57 139.098 356.37 121.498C362.37 109.698 368.47 103.798 374.67 103.798C376.67 103.798 377.97 104.298 378.57 105.298C378.97 105.898 374.77 114.498 365.97 131.098C361.77 139.098 358.47 145.498 356.07 150.298C353.67 154.898 351.97 157.898 350.97 159.298C354.37 155.898 358.37 151.698 362.97 146.698C367.77 141.698 373.27 135.898 379.47 129.298C389.27 118.298 400.07 110.098 411.87 104.698C414.27 103.698 416.77 103.198 419.37 103.198C427.97 103.198 432.27 106.898 432.27 114.298C432.27 118.498 430.57 123.498 427.17 129.298C436.37 118.498 447.17 110.298 459.57 104.698C462.37 103.498 465.57 102.898 469.17 102.898C477.37 102.898 481.47 105.898 481.47 111.898C481.47 115.698 479.57 120.198 475.77 125.398C454.17 155.598 443.37 175.898 443.37 186.298C443.37 188.498 444.07 189.898 445.47 190.498C448.47 191.698 454.17 189.898 462.57 185.098C473.17 178.898 482.97 170.198 491.97 158.998C493.17 157.598 494.37 156.898 495.57 156.898C496.37 156.898 496.77 157.198 496.77 157.798C496.77 158.598 496.17 159.798 494.97 161.398C484.97 174.198 475.07 183.598 465.27 189.598C457.27 194.598 450.87 196.698 446.07 195.898ZM511.573 195.298C505.773 195.298 500.673 193.898 496.273 191.098C490.473 187.098 487.573 181.298 487.573 173.698C487.573 165.498 491.073 155.498 498.073 143.698C507.473 128.298 521.273 114.798 539.473 103.198C544.073 100.198 548.673 98.6984 553.273 98.6984C559.273 98.6984 563.573 100.598 566.173 104.398C567.773 106.598 568.573 109.098 568.573 111.898C568.573 120.298 561.773 129.498 548.173 139.498C544.173 142.298 539.873 144.898 535.273 147.298C530.873 149.498 526.073 151.098 520.873 152.098L507.973 154.798C503.173 163.398 500.773 170.598 500.773 176.398C500.773 184.398 505.473 188.398 514.873 188.398C522.273 188.398 531.273 185.298 541.873 179.098C556.073 170.898 568.273 159.498 578.473 144.898C580.073 142.498 581.573 141.298 582.973 141.298C583.573 141.298 583.873 141.698 583.873 142.498C583.873 143.498 583.173 144.998 581.773 146.998C562.373 176.198 540.473 192.198 516.073 194.998C515.273 195.198 514.473 195.298 513.673 195.298C513.073 195.298 512.373 195.298 511.573 195.298ZM511.573 149.698C517.173 149.698 524.373 147.198 533.173 142.198C545.573 135.198 554.273 126.198 559.273 115.198C560.673 112.398 561.373 110.098 561.373 108.298C561.373 106.498 560.673 105.598 559.273 105.598C556.673 105.598 551.373 108.798 543.373 115.198C537.573 120.198 531.873 125.598 526.273 131.398C520.873 136.998 515.673 142.998 510.673 149.398C510.473 149.598 510.773 149.698 511.573 149.698ZM571.859 205.198C571.059 205.198 570.659 204.898 570.659 204.298C570.659 201.698 577.459 196.898 591.059 189.898C594.459 188.298 597.559 186.698 600.359 185.098C603.159 183.298 605.559 181.698 607.559 180.298C619.759 171.298 625.859 163.498 625.859 156.898C625.859 151.898 620.959 149.398 611.159 149.398C588.359 148.998 576.959 143.998 576.959 134.398C576.959 130.198 578.759 126.198 582.359 122.398C586.559 117.598 593.559 112.998 603.359 108.598C613.959 103.798 623.659 101.398 632.459 101.398C640.259 101.398 646.159 103.298 650.159 107.098C651.959 108.898 652.859 111.098 652.859 113.698C652.859 116.498 651.959 118.998 650.159 121.198C648.359 123.398 646.359 124.498 644.159 124.498C640.159 124.498 637.959 121.798 637.559 116.398C637.559 112.598 636.959 110.398 635.759 109.798C634.559 109.198 631.359 108.898 626.159 108.898C619.559 108.898 612.159 111.098 603.959 115.498C594.159 120.498 589.559 126.498 590.159 133.498C590.559 137.498 598.159 139.498 612.959 139.498C633.159 139.498 643.259 144.398 643.259 154.198C643.259 164.798 634.559 175.398 617.159 185.998C606.159 192.798 592.759 198.798 576.959 203.998C574.759 204.798 573.059 205.198 571.859 205.198Z" fill="#B52532"/>
</svg>
