<svg width="643" height="378" viewBox="0 0 643 378" fill="none" xmlns="http://www.w3.org/2000/svg">
<path fill-rule="evenodd" clip-rule="evenodd" d="M253.292 367.87H211.055V9.198H276.414L320.138 305.071C313.607 234.751 305.059 121.212 305.059 61.4376V9.198H347.283V367.87H287.459L247.24 80.514C250.77 144.812 253.279 221.672 253.279 264.877V367.857M371.414 367.87V9.198H431.226C470.941 9.198 495.564 30.7944 495.564 81.0306V133.774C495.564 166.433 485.503 183.002 471.432 191.545C485.503 200.592 495.564 216.657 495.564 244.289V296.528C495.564 345.757 469.428 367.87 431.226 367.87H371.414ZM419.665 54.4068V172.96H425.691C442.787 172.96 447.314 166.433 447.314 146.84V78.5232C447.314 61.9416 442.283 54.4068 427.708 54.4068H419.665ZM419.665 212.146V322.648H427.708C442.787 322.648 447.314 314.118 447.314 297.032V236.25C447.314 218.673 441.766 212.146 425.691 212.146H419.665ZM585.987 300.548H555.829L551.795 367.87H503.053L538.229 9.198H606.589L640.781 367.87H590.009L585.987 300.548ZM557.834 259.862H583.478L579.444 194.053C577.944 167.933 573.922 85.05 570.908 40.3326H568.891L561.856 194.053L557.834 259.862ZM127.402 0H39.0591C28.702 0.00667567 18.7711 4.1214 11.4475 11.4404C4.12397 18.7594 0.00667983 28.6842 0 39.0348L0 338.008C0.00332613 348.364 4.11793 358.296 11.4408 365.624C18.7636 372.951 28.6964 377.076 39.0591 377.093H127.339C137.711 377.079 147.655 372.959 154.992 365.633C162.33 358.307 166.463 348.373 166.487 338.008V39.0348C166.47 28.6829 162.346 18.7601 155.019 11.4425C147.692 4.12499 137.761 0.00999488 127.402 0Z" fill="white"/>
<path fill-rule="evenodd" clip-rule="evenodd" d="M105.49 69.1248L105.578 70.41C108.276 71.9724 109.638 73.2576 112.361 74.9964C119.56 79.5324 128.436 87.5964 127.314 115.354C129.331 121.402 130.226 133.297 132.105 137.114C135.85 144.548 138.358 149.387 139.455 156.405C139.455 156.405 140.527 167.329 141.939 168.123C149.39 169.811 147.234 170.542 148.331 171.815C149.491 173.314 153.79 173.239 153.79 177.245C155.278 179.236 156.388 181.315 157.22 183.47V39.036C157.213 31.1314 154.071 23.5519 148.481 17.9589C142.892 12.366 135.312 9.21589 127.402 9.19922H98.8581C103.447 10.8372 106.045 12.7524 107.545 15.8016C111.226 16.1166 115.614 24.3696 108.78 36.579C111.806 38.595 109.449 41.5938 107.28 45.084C106.65 46.2054 105.956 48.1962 103.926 48.0576C101.342 53.5134 98.2025 58.7928 95.8449 59.1204C95.1262 60.0024 94.6093 62.346 95.6809 63.4548C99.1607 65.0046 103.397 67.1466 105.49 69.1248ZM157.22 203.038C155.248 207.991 151.831 212.238 147.413 215.227C142.995 218.215 137.78 219.807 132.445 219.796C128.951 219.797 125.49 219.111 122.261 217.776C119.032 216.44 116.098 214.482 113.626 212.013C111.155 209.544 109.194 206.613 107.856 203.387C106.519 200.16 105.83 196.702 105.83 193.21C105.83 180.673 114.454 170.152 126.167 167.342C123.103 159.656 116.623 147.22 114.694 143.15C112.878 139.093 108.491 113.792 107.545 108.79C107.331 107.693 96.0592 115.329 96.034 115.795C95.3784 116.425 87.5867 136.787 87.2589 137.883C87.095 138.576 87.0824 141.285 87.0824 141.285C87.0824 141.285 90.9152 141.764 93.1216 148.454C95.3027 155.132 101.947 179.488 101.947 179.488C101.947 179.488 100.157 181.353 100.081 181.252C108.491 209.375 105.553 221.484 109.323 229.737C114.063 241.354 115.349 239.83 119.409 249.607C122.334 256.726 125.587 284.736 126.671 285.971C131.21 291.729 133.656 296.215 133.656 299.453C133.656 302.729 129.81 312.368 131.21 317.987C132.067 321.301 132.508 328.697 134.047 330.109C134.047 330.109 135.459 332.893 134.765 334.141C134.564 334.556 134.16 335.199 134.349 335.716C136.846 344.536 144.94 359.605 131.84 367.493H132.118C139.143 366.4 145.541 362.822 150.149 357.41C154.756 351.999 157.265 345.114 157.22 338.009V203.038Z" fill="#B52532"/>
<path fill-rule="evenodd" clip-rule="evenodd" d="M123.607 332.273C118.816 327.989 122.019 326.187 121.817 324.499C118.665 311.432 108.276 303.532 113.647 299.223C112.323 294.914 109.625 289.496 109.726 289.508C93.5502 280.222 79.7698 265.14 77.4374 262.922C74.6006 259.848 69.7592 256.748 68.8641 254.254C64.9682 250.688 45.9052 223.661 41.4672 213.707L33.726 212.611C30.1958 198.247 18.4453 186.188 18.1553 171.787C18.0545 166.331 20.6265 154.663 21.5846 152.345C22.5302 149.976 27.0312 146.108 27.0312 146.108V142.252C10.1493 142.731 15.0034 141.005 12.1035 134.44C10.0611 129.904 11.5236 128.896 12.2548 125.746C14.5243 116.46 22.0511 102.121 25.1527 95.607C26.1109 92.3184 29.3637 84.393 29.3637 84.393C41.9463 58.7898 46.649 60.6672 61.5893 59.2182L62.3206 58.1598C77.2987 57.5046 74.8402 56.3832 76.9457 41.9688C74.7771 42.9012 74.1215 37.4454 74.1215 37.4454C72.9364 29.2554 76.3909 30.8052 78.03 30.6414C78.3956 17.1594 79.7698 12.9006 89.5031 9.18359H39.0717C35.1473 9.18359 31.2613 9.9565 27.6359 11.4582C24.0105 12.9598 20.7168 15.1607 17.943 17.9352C15.1691 20.7096 12.9696 24.0032 11.4701 27.6276C9.97055 31.252 9.20043 35.1362 9.20375 39.0582V338.018C9.20375 354.512 22.5681 367.88 39.0843 367.88H127.402C117.291 362.412 123.267 352.004 123.607 332.273Z" fill="#253B73"/>
<path fill-rule="evenodd" clip-rule="evenodd" d="M211.055 367.87H253.292L253.279 367.857V264.877C253.279 221.672 250.77 144.812 247.24 80.514L287.459 367.87H347.283V9.198H305.059V61.4376C305.059 121.212 313.607 234.751 320.138 305.071L276.414 9.198H211.055V367.87ZM371.414 9.198V367.87H431.226C469.428 367.87 495.564 345.757 495.564 296.528V244.289C495.564 216.657 485.503 200.592 471.432 191.545C485.503 183.002 495.564 166.433 495.564 133.774V81.0306C495.564 30.7944 470.941 9.198 431.226 9.198H371.414ZM419.665 172.96V54.4068H427.708C442.283 54.4068 447.314 61.9416 447.314 78.5232V146.84C447.314 166.433 442.787 172.96 425.691 172.96H419.665ZM419.665 322.648V212.146H425.691C441.766 212.146 447.314 218.673 447.314 236.25V297.032C447.314 314.118 442.787 322.648 427.708 322.648H419.665ZM551.795 367.87L555.829 300.548H585.987L590.009 367.87H640.781L606.589 9.198H538.229L503.053 367.87H551.795ZM583.478 259.862H557.834L561.856 194.053L568.891 40.3326H570.908C572.988 71.1963 575.548 120.241 577.428 156.255C578.272 172.42 578.979 185.961 579.444 194.053L583.478 259.862Z" fill="black"/>
</svg>
