<svg width="576" height="238" viewBox="0 0 576 238" fill="none" xmlns="http://www.w3.org/2000/svg">
<path d="M240.3 237.302C237.9 237.302 236 236.902 234.6 236.102C226.4 231.902 222.3 223.102 222.3 209.702C222.3 192.102 228.4 165.902 240.6 131.102C245.8 116.902 250.9 102.602 255.9 88.2016C261.1 73.8016 266.3 59.4016 271.5 45.0016C271.7 44.2016 271.8 43.5016 271.8 42.9016C272 42.3016 272.1 41.7016 272.1 41.1015C272.1 36.9016 270 34.8016 265.8 34.8016C261.2 34.8016 254.6 37.0016 246 41.4016C227 50.8016 206.4 67.3016 184.2 90.9016C156.8 119.902 132.5 154.502 111.3 194.702C111.7 195.702 112.9 196.602 114.9 197.402C116.9 198.402 117.4 199.302 116.4 200.102C116.4 202.702 112.2 204.002 103.8 204.002C96.3999 204.002 92.6999 202.902 92.6999 200.702C92.6999 194.902 94.8999 185.902 99.2999 173.702C103.7 161.302 110.6 145.702 120 126.902L148.5 69.9016C154.3 58.7016 158.4 49.0016 160.8 40.8016C163.4 32.6015 164.7 26.1015 164.7 21.3016C164.7 10.7016 155.9 5.40156 138.3 5.40156C122.9 5.40156 101.2 12.0016 73.1999 25.2016C57.3999 32.8016 43.6999 43.0016 32.0999 55.8016C19.2999 69.4016 12.8999 82.0016 12.8999 93.6016C12.8999 101.002 15.7999 107.202 21.5999 112.202C27.5999 117.002 35.0999 119.402 44.0999 119.402C47.4999 119.402 50.7999 119.102 53.9999 118.502L58.1999 117.902C45.9999 122.502 37.4999 124.802 32.6999 124.802C26.6999 124.802 20.9999 123.802 15.5999 121.802C5.1999 118.002 -9.75914e-05 110.102 -9.75914e-05 98.1016C-9.75914e-05 88.9016 2.7999 79.6016 8.3999 70.2016C13.1999 61.8016 22.1999 52.3016 35.3999 41.7016C49.1999 30.3016 64.1999 21.0016 80.3999 13.8016C100.6 4.60156 120.2 0.00155807 139.2 0.00155807C158.2 0.00155807 171.3 5.90156 178.5 17.7016C178.9 18.9016 179.1 20.1016 179.1 21.3016C179.1 25.9016 176.9 34.1016 172.5 45.9016C168.1 57.5016 161.3 72.8016 152.1 91.8016L114.3 169.802C114.7 170.402 124.9 155.402 144.9 124.802C155.3 109.002 174.2 89.3016 201.6 65.7016C228 42.9015 246.3 30.1015 256.5 27.3015C259.1 26.5016 262.1 26.1016 265.5 26.1016C272.7 26.1016 278.8 28.2016 283.8 32.4016C289 36.4015 291.6 40.6016 291.6 45.0016C291.6 46.6016 291.2 47.9016 290.4 48.9016C275.4 71.7016 262.8 99.9016 252.6 133.502C248 148.702 244.5 162.702 242.1 175.502C239.9 188.102 238.8 199.402 238.8 209.402C238.8 224.602 241.9 231.802 248.1 231.002C250.1 230.202 252.6 229.302 255.6 228.302C258.6 227.502 262.2 226.402 266.4 225.002C267 224.802 267.8 224.702 268.8 224.702C271.8 224.702 269.2 226.802 261 231.002C253 235.202 246.1 237.302 240.3 237.302ZM288.726 196.502C282.926 196.502 277.826 195.102 273.426 192.302C267.626 188.302 264.726 182.502 264.726 174.902C264.726 166.702 268.226 156.702 275.226 144.902C284.626 129.502 298.426 116.002 316.626 104.402C321.226 101.402 325.826 99.9016 330.426 99.9016C336.426 99.9016 340.726 101.802 343.326 105.602C344.926 107.802 345.726 110.302 345.726 113.102C345.726 121.502 338.926 130.702 325.326 140.702C321.326 143.502 317.026 146.102 312.426 148.502C308.026 150.702 303.226 152.302 298.026 153.302L285.126 156.002C280.326 164.602 277.926 171.802 277.926 177.602C277.926 185.602 282.626 189.602 292.026 189.602C299.426 189.602 308.426 186.502 319.026 180.302C333.226 172.102 345.426 160.702 355.626 146.102C357.226 143.702 358.726 142.502 360.126 142.502C360.726 142.502 361.026 142.902 361.026 143.702C361.026 144.702 360.326 146.202 358.926 148.202C339.526 177.402 317.626 193.402 293.226 196.202C292.426 196.402 291.626 196.502 290.826 196.502C290.226 196.502 289.526 196.502 288.726 196.502ZM288.726 150.902C294.326 150.902 301.526 148.402 310.326 143.402C322.726 136.402 331.426 127.402 336.426 116.402C337.826 113.602 338.526 111.302 338.526 109.502C338.526 107.702 337.826 106.802 336.426 106.802C333.826 106.802 328.526 110.002 320.526 116.402C314.726 121.402 309.026 126.802 303.426 132.602C298.026 138.202 292.826 144.202 287.826 150.602C287.626 150.802 287.926 150.902 288.726 150.902ZM347.512 199.802C346.512 199.802 345.012 198.802 343.012 196.802C342.012 195.802 341.512 193.502 341.512 189.902C341.512 182.502 343.112 173.302 346.312 162.302C348.312 155.902 350.412 149.902 352.612 144.302C355.012 138.702 357.612 133.502 360.412 128.702C365.012 121.102 369.712 117.302 374.512 117.302C376.912 117.302 379.012 118.202 380.812 120.002C382.612 121.602 383.512 123.302 383.512 125.102C383.512 125.702 383.412 126.102 383.212 126.302C380.212 129.102 375.212 135.302 368.212 144.902C364.812 150.702 361.712 157.002 358.912 163.802C356.112 170.602 353.712 178.002 351.712 186.002C354.912 181.002 359.212 175.402 364.612 169.202C370.212 163.002 377.012 156.202 385.012 148.802C391.212 143.002 397.012 137.802 402.412 133.202C408.012 128.402 413.312 124.202 418.312 120.602C418.312 120.402 418.412 120.302 418.612 120.302V120.002C422.812 114.002 428.312 111.002 435.112 111.002C437.712 111.002 439.012 111.802 439.012 113.402C439.012 114.202 438.512 115.302 437.512 116.702C431.712 121.902 425.712 131.302 419.512 144.902C413.112 159.502 409.912 171.002 409.912 179.402C409.912 186.202 412.512 189.602 417.712 189.602C428.512 189.602 439.712 184.202 451.312 173.402C466.712 159.202 475.712 140.002 478.312 115.802C479.312 108.602 481.612 104.702 485.212 104.102H486.112C488.512 104.102 490.112 105.102 490.912 107.102L491.812 111.902C491.412 127.902 482.812 145.802 466.012 165.602C448.612 186.202 432.312 196.502 417.112 196.502C404.112 196.502 397.612 188.502 397.612 172.502C397.612 161.102 401.512 148.502 409.312 134.702C383.912 154.302 364.412 175.202 350.812 197.402C349.812 199.002 348.712 199.802 347.512 199.802ZM494.032 206.402C493.232 206.402 492.832 206.102 492.832 205.502C492.832 202.902 499.632 198.102 513.232 191.102C516.632 189.502 519.732 187.902 522.532 186.302C525.332 184.502 527.732 182.902 529.732 181.502C541.932 172.502 548.032 164.702 548.032 158.102C548.032 153.102 543.132 150.602 533.332 150.602C510.532 150.202 499.132 145.202 499.132 135.602C499.132 131.402 500.932 127.402 504.532 123.602C508.732 118.802 515.732 114.202 525.532 109.802C536.132 105.002 545.832 102.602 554.632 102.602C562.432 102.602 568.332 104.502 572.332 108.302C574.132 110.102 575.032 112.302 575.032 114.902C575.032 117.702 574.132 120.202 572.332 122.402C570.532 124.602 568.532 125.702 566.332 125.702C562.332 125.702 560.132 123.002 559.732 117.602C559.732 113.802 559.132 111.602 557.932 111.002C556.732 110.402 553.532 110.102 548.332 110.102C541.732 110.102 534.332 112.302 526.132 116.702C516.332 121.702 511.732 127.702 512.332 134.702C512.732 138.702 520.332 140.702 535.132 140.702C555.332 140.702 565.432 145.602 565.432 155.402C565.432 166.002 556.732 176.602 539.332 187.202C528.332 194.002 514.932 200.002 499.132 205.202C496.932 206.002 495.232 206.402 494.032 206.402Z" fill="#253B73"/>
</svg>
