<svg width="812" height="812" viewBox="0 0 812 812" fill="none" xmlns="http://www.w3.org/2000/svg">
<path d="M423.223 146.171C327.439 146.171 243.71 198.697 198.937 276.515H131.879L177.252 319.836L133.025 388.126H81.5987L124.872 429.434L64.96 521.955L156.5 467.946L177.713 488.197C212.062 591.3 309.107 665.84 423.223 665.84C565.953 665.84 682.08 549.273 682.08 406C682.08 262.728 565.953 146.171 423.223 146.171Z" fill="#061922"/>
<path d="M242.051 293.828V251.445L214.612 293.828H174.939L199.463 317.242L169.248 363.894L218.126 335.05L242.051 357.882V320.941L287.99 293.828H242.051Z" fill="#0050B5"/>
<path d="M186.166 405.42V366.445L160.935 405.42H124.679L147.093 426.811L119.183 469.915L164.342 443.277L186.166 464.119V430.392L228.497 405.42H186.166Z" fill="#0050B5"/>
<path d="M422.717 260.729C403.593 260.729 385.156 264.675 367.917 272.462L365.699 273.461V227.625L332.55 278.839H284.53L314.208 307.167L301.833 326.255V308.026L264.27 366.047H208.58L243.004 398.902L202.441 461.548L268.064 422.831L280.898 435.081L281.006 435.565C281.852 439.684 282.795 443.448 283.856 447.094L284.455 449.126H244.3L273.741 476.669L238.418 532.118L298.051 498.242C298.909 497.758 299.701 497.565 300.419 497.565C302.187 497.565 303.602 498.693 304.8 499.65C304.973 499.791 306.45 501.016 308.251 502.49C311.058 504.803 314.614 507.737 315.087 508.114C328.415 518.503 348.847 533.345 372.266 542.239C388.38 548.25 405.35 551.304 422.696 551.304C502.516 551.304 567.442 486.122 567.442 406.012C567.442 325.901 502.516 260.717 422.696 260.717" fill="#0050B5"/>
<path d="M234.26 316.469L259.385 301.639H234.26V277.816L218.844 301.639H194.416L209.512 316.05L193.772 340.355L219.24 325.331L234.26 339.678V316.469Z" fill="white"/>
<path d="M178.677 391.805L165.006 412.936H143.418L156.757 425.67L142.775 447.276L165.414 433.918L178.677 446.598V426.089L200.983 412.936H178.677V391.805Z" fill="white"/>
<path d="M422.717 270.332C399.415 270.332 376.445 276.409 356.207 287.905V259.738L337.693 288.335H308.273L326.453 305.693L307.501 334.988L307.566 334.946C301.458 344.883 296.702 355.509 293.348 366.649V336.73L268.878 374.544H229.814L253.953 397.59L229.172 435.887L269.285 412.217L290.09 432.08C291.549 439.608 293.702 447.136 296.487 454.449L294.141 458.784H268.813L286.256 475.099L266.498 505.62L293.166 489.885C299.058 486.562 304.844 487.283 310.822 492.048C311.048 492.22 311.465 492.596 312.097 493.133C339.718 516.988 361.499 527.956 374.923 532.947C390.479 538.743 406.572 541.679 422.729 541.679C497.266 541.679 557.896 480.82 557.896 406.001C557.896 331.181 497.254 270.332 422.717 270.332Z" fill="white"/>
<path d="M487.967 361.196C477.916 325.587 453.585 297.562 422.333 288.355C409.657 284.623 396.191 285.409 383.677 289.635C363.781 296.347 346.157 308.048 332.326 323.276C341.368 317.758 353.314 314.027 365.613 314.027C415.229 314.027 450.446 357.206 487.967 361.196Z" fill="#0050B5"/>
<path d="M501.036 361.015C519.443 358.23 527.543 345.089 521.147 333.118C501.09 305.877 470.085 287.25 434.643 283.809C466.902 293.681 490.836 324.352 501.036 361.015Z" fill="#0050B5"/>
<path d="M491.136 437.189C492.626 429.155 493.525 420.789 493.816 412.173C421.486 411.054 316.448 408.495 316.448 408.495V403.764C316.448 403.764 421.486 401.203 493.816 400.086C493.525 391.47 492.626 383.104 491.136 375.07C443.943 372.317 409.582 325.223 360.856 325.223C334.982 325.223 317.604 340.516 308.23 362.692C303.162 376.168 300.377 390.761 300.377 406.022C300.377 421.282 303.215 436.166 308.38 449.749C317.753 471.925 334.971 487.036 360.856 487.036C409.582 487.036 443.943 439.931 491.136 437.189Z" fill="#0050B5"/>
<path d="M506.94 399.891C522.251 399.675 535.365 399.568 544.857 399.578C543.913 381.672 539.199 364.798 531.378 349.742C531.624 361.862 522.014 372.155 504.176 374.693C505.718 382.909 506.639 391.341 506.94 399.891Z" fill="#0050B5"/>
<path d="M487.966 451.062C450.434 455.053 415.229 498.243 365.613 498.243C353.55 498.243 341.818 494.63 332.839 489.285C335.207 491.854 337.66 494.36 340.243 496.726C353.517 508.901 369.481 518.15 387.126 523.527C398.033 526.84 409.701 527.366 420.694 524.376C452.727 515.665 477.745 487.284 487.966 451.062Z" fill="#0050B5"/>
<path d="M501.037 451.246C490.922 487.564 467.352 517.967 435.542 528.141C470.803 524.451 501.584 505.728 521.457 478.476C527.211 466.679 519.099 453.978 501.037 451.246Z" fill="#0050B5"/>
<path d="M544.857 412.679C535.374 412.69 522.239 412.572 506.94 412.367C506.63 420.906 505.709 429.349 504.176 437.565C521.971 440.103 531.582 450.364 531.378 462.442C539.135 447.407 543.913 430.575 544.878 412.711L544.857 412.679Z" fill="#0050B5"/>
<path d="M341.561 548.948L320.272 557.562L319.993 534.127L310.018 527.277L283.716 565.833L293.595 572.618L308.412 550.916L308.422 551.808L308.851 572.554L310.254 573.522L329.937 565.993L329.411 566.757L315.257 587.513L325.125 594.3L351.439 555.744L341.561 548.948Z" fill="white"/>
<path d="M463.548 607.94C467.405 602.821 469.12 596.292 468.37 589.582L467.974 585.903L447.959 588.14L444.981 598.54L456.135 597.293L456.018 597.712C454.678 602.142 450.928 605.326 446.46 605.832C442.753 606.251 439.185 605.24 436.379 602.97C433.593 600.713 431.825 597.444 431.429 593.765C431.021 590.119 432.039 586.569 434.279 583.774C436.528 580.978 439.786 579.203 443.449 578.805C447.125 578.407 450.725 579.419 453.574 581.709L454.109 582.139L460.903 572.6L460.367 572.223C456.146 569.179 450.606 567.492 445.111 567.492C444.146 567.492 443.182 567.546 442.217 567.653C435.286 568.428 429.103 571.708 424.808 576.881C420.543 582.042 418.604 588.528 419.333 595.141C420.64 606.96 430.004 615.983 442.089 617.07C443.932 617.23 445.806 617.221 447.682 617.005C454.046 616.295 459.681 613.07 463.548 607.94Z" fill="white"/>
<path d="M491.858 555.188L480.699 559.874L498.664 602.982L509.822 598.297L491.858 555.188Z" fill="white"/>
<path d="M556.363 553.927C555.41 556.572 553.492 559.036 550.846 561.058C544.729 565.714 536.092 564.66 531.592 558.702C527.178 552.852 528.571 544.313 534.689 539.655C537.325 537.645 540.217 536.472 543.025 536.246L544.202 536.149L537.015 526.621L536.618 526.707C533.414 527.363 530.296 528.826 527.371 531.063C521.778 535.321 518.168 541.279 517.203 547.84C516.25 554.304 517.944 560.788 521.962 566.101C525.936 571.37 531.625 574.769 537.989 575.672C538.075 575.684 538.161 575.693 538.246 575.705C544.857 576.587 551.51 574.704 557.113 570.435C560.113 568.155 562.373 565.563 563.83 562.736L564.014 562.369L556.78 552.798L556.363 553.927Z" fill="white"/>
<path d="M623.496 473.634C628.05 460.03 621.45 445.942 608.475 441.554C605.947 440.704 603.355 440.285 600.773 440.285C596.958 440.285 593.176 441.209 589.661 443.026C585.163 445.36 581.488 448.996 579.013 453.534C578.241 454.953 577.587 456.449 577.084 457.975C572.606 471.333 579.409 485.712 592.234 490.046C598.438 492.133 605.101 491.617 610.983 488.541C616.875 485.465 621.312 480.162 623.496 473.634ZM600.44 479.055C599.004 479.055 597.548 478.818 596.101 478.334C592.747 477.205 590.048 474.871 588.484 471.752C586.92 468.601 586.673 464.999 587.808 461.6C588.966 458.18 591.334 455.437 594.473 453.878C597.59 452.33 601.158 452.114 604.49 453.233C607.865 454.373 610.575 456.717 612.129 459.836C613.682 462.966 613.908 466.591 612.773 470.021C612.514 470.784 612.183 471.526 611.808 472.247C609.45 476.57 605.101 479.055 600.44 479.055Z" fill="white"/>
<path d="M439.667 217.365C439.357 210.794 436.432 204.771 431.461 200.394C426.789 196.285 420.778 194.07 414.425 194.07C413.987 194.07 413.537 194.082 413.087 194.103C398.804 194.791 388.134 206.083 388.776 219.817C389.097 226.441 392.012 232.496 396.984 236.884C400.766 240.229 405.479 242.347 410.612 243.014C412.197 243.229 413.815 243.284 415.432 243.208C429.436 242.542 440.322 230.937 439.667 217.365ZM424.046 227.517C421.701 230.13 418.443 231.668 414.875 231.84C414.651 231.851 414.437 231.862 414.211 231.862C410.857 231.862 407.708 230.646 405.287 228.431C402.726 226.076 401.216 222.828 401.044 219.289C400.873 215.72 402.062 212.332 404.387 209.761C406.732 207.158 410.011 205.643 413.612 205.459C414.404 205.427 415.229 205.459 416.022 205.557C422.396 206.385 427.057 211.514 427.378 218.021C427.55 221.56 426.37 224.925 424.046 227.517Z" fill="white"/>
<path d="M474.049 249.965L487.934 254.223L481.237 234.467L481.581 234.424C488.116 233.478 492.84 229.746 494.534 224.175C497.587 214.131 492.455 206.753 479.673 202.828L466.978 198.934L453.37 243.629L464.941 247.179L468.842 234.36L474.049 249.965ZM475.366 212.926L477.305 213.517C480.176 214.399 482.031 215.625 482.856 217.184C483.681 218.743 483.231 220.218 483.038 220.841C482.49 222.637 481.397 223.864 479.812 224.497C479.052 224.799 478.205 224.95 477.274 224.95C476.288 224.95 475.226 224.778 474.112 224.443L472.056 223.81L475.366 212.926Z" fill="white"/>
<path d="M524.94 276.991L531.079 267.741L518.35 259.234L518.511 258.999L538.043 229.585L527.972 222.852L502.151 261.751L524.94 276.991Z" fill="white"/>
<path d="M583.148 269.836L535.547 284.967L543.442 294.85L550.213 292.517L550.343 292.677L560.959 305.972L560.863 306.142L557.232 312.101L565.363 322.264L590.391 278.891L583.148 269.836ZM566.412 297.077L560.08 289.162L574.191 284.343L566.412 297.077Z" fill="white"/>
<path d="M380.581 564.855L352.564 606.347L364.862 609.186L368.742 603.141L385.477 607.003L385.499 607.206L386.333 614.133L398.987 617.057L391.84 567.459L380.581 564.855ZM374.41 594.367L374.634 594.023L382.499 581.805L384.266 596.645L374.41 594.367Z" fill="white"/>
<path d="M598.533 333.998L598.03 334.729L580.609 360.347L584.38 371.037L628.254 355.411L624.214 343.968L599.979 352.604L617.968 326.287L614.164 315.543L570.292 331.18L574.341 342.613L598.533 333.998Z" fill="white"/>
<path d="M633.246 398.836L633.118 384.488L586.555 384.919L586.683 399.395C586.834 415.935 597.28 422.797 607.019 423.69C608.079 423.786 609.193 423.807 610.254 423.818C616.264 423.765 621.804 421.754 625.843 418.151C630.76 413.762 633.323 407.085 633.246 398.836ZM610.146 411.677H610.03C606.203 411.677 603.033 410.461 600.88 408.171C598.897 406.063 597.794 403.083 597.762 399.772L597.729 396.943L622.158 396.717L622.179 399.535C622.179 405.084 619.049 411.591 610.146 411.677Z" fill="white"/>
<path d="M423.158 166.176C359.753 166.176 302.08 191.148 259.257 231.746V245.19C300.922 202.407 358.992 175.79 423.158 175.79C549.625 175.79 652.51 279.067 652.51 406.023C652.51 532.981 549.625 636.246 423.158 636.246C323.969 636.246 239.296 572.697 207.38 484.036L198.981 488.994C232.687 580.473 320.454 645.87 423.158 645.87C554.906 645.87 662.089 538.283 662.089 406.034C662.089 273.785 554.906 166.176 423.158 166.176Z" fill="#0050B5"/>
</svg>
