<svg width="808" height="294" viewBox="0 0 808 294" fill="none" xmlns="http://www.w3.org/2000/svg">
<path d="M29.4 228.601C21.6 227.601 15.3 224.001 10.5 217.801C5.7 211.601 3.3 203.901 3.3 194.701C3.3 180.301 8.9 165.701 20.1 150.901C21.9 148.501 23.5 147.301 24.9 147.301C25.7 147.301 26.1 147.801 26.1 148.801C26.1 150.201 25.3 152.001 23.7 154.201C15.3 165.801 11.1 178.701 11.1 192.901C11.1 200.901 12.7 207.401 15.9 212.401C19.1 217.401 23.7 219.901 29.7 219.901C52.1 219.701 78.6 188.601 109.2 126.601C108.8 126.401 108.2 126.301 107.4 126.301C106.8 126.101 106 126.001 105 126.001C101 125.601 99 124.201 99 121.801C99 119.401 103.4 118.501 112.2 119.101C116.2 110.901 120.3 102.001 124.5 92.4008C128.9 82.8008 133.3 72.6008 137.7 61.8008C142.3 51.0008 145.7 42.9008 147.9 37.5008C150.3 32.1008 151.5 29.4008 151.5 29.4008C152.3 27.4008 154.2 26.4008 157.2 26.4008C159.6 26.4008 161.9 27.2008 164.1 28.8008C166.5 30.4008 167.7 32.2008 167.7 34.2008C167.7 34.4008 167.5 35.1008 167.1 36.3008C163.9 43.7008 158.8 54.4008 151.8 68.4008C144.8 82.4008 136 99.7008 125.4 120.301C150.6 121.501 174 116.701 195.6 105.901C215.2 96.5008 228 85.4008 234 72.6008C237.6 65.0008 239.4 58.0008 239.4 51.6008C239.4 38.6008 232.6 28.0008 219 19.8008C208.6 13.2008 195.6 9.00078 180 7.20078C169.6 6.00077 159.2 5.40076 148.8 5.40076C111 5.40076 77.9 13.0008 49.5 28.2008C23.7 41.6008 10.8 55.3008 10.8 69.3008C10.8 70.9008 11.2 72.9008 12 75.3008C12.8 77.5008 13.2 79.1008 13.2 80.1008C13.2 80.9008 12.9 81.3008 12.3 81.3008C11.5 81.3008 10 80.5008 7.8 78.9008C2.6 74.9008 8.49366e-07 70.0008 8.49366e-07 64.2008C8.49366e-07 49.2008 12.1 35.3008 36.3 22.5008C64.9 7.50078 102.4 0.000780106 148.8 0.000780106C154 0.000780106 159.2 0.100779 164.4 0.300776C169.6 0.500774 174.9 0.80077 180.3 1.20076C196.5 2.40077 212.3 7.20078 227.7 15.6008C247.1 26.4008 256.8 39.9008 256.8 56.1008C256.8 62.3008 255.5 68.4008 252.9 74.4008C247.7 87.0008 233.4 98.3008 210 108.301C197.2 113.901 183.5 118.201 168.9 121.201C154.3 124.001 138.7 125.601 122.1 126.001C82.9 197.001 52 231.201 29.4 228.601ZM240.253 207.001C226.053 204.001 218.953 197.401 218.953 187.201C218.953 181.201 220.853 172.501 224.653 161.101C227.453 152.501 231.253 142.701 236.053 131.701C241.053 120.501 247.253 108.101 254.653 94.5008C272.453 61.1008 285.953 43.7008 295.153 42.3008C295.953 42.1008 297.253 42.0008 299.053 42.0008C308.853 42.0008 313.753 46.6008 313.753 55.8008C313.753 68.4008 303.153 86.3008 281.953 109.501C270.153 122.701 257.153 134.401 242.953 144.601C234.553 164.601 230.353 179.301 230.353 188.701C230.353 194.901 232.253 198.601 236.053 199.801C239.053 200.601 246.053 197.001 257.053 189.001C269.653 179.801 280.453 168.601 289.453 155.401C290.853 153.401 292.153 152.401 293.353 152.401C294.153 152.401 294.553 152.801 294.553 153.601C294.553 154.401 294.053 155.601 293.053 157.201C285.453 169.401 275.553 181.001 263.353 192.001C251.553 202.801 243.853 207.801 240.253 207.001ZM246.253 136.501C253.453 131.101 259.453 125.701 264.253 120.301L281.953 99.3008C298.353 79.9008 306.553 65.6008 306.553 56.4008C306.553 54.6008 305.553 53.7008 303.553 53.7008C300.153 53.7008 294.753 58.6008 287.353 68.4008C285.153 71.6008 282.853 74.7008 280.453 77.7008C278.053 80.7008 275.653 83.8008 273.253 87.0008C270.253 91.4008 267.453 95.7008 264.853 99.9008C262.453 104.101 260.153 108.401 257.953 112.801C257.353 113.601 256.053 116.001 254.053 120.001C252.253 124.001 249.653 129.501 246.253 136.501ZM347.391 204.601C343.391 204.601 339.691 203.301 336.291 200.701C333.091 198.101 331.191 195.601 330.591 193.201C329.991 190.401 333.691 180.401 341.691 163.201L334.791 173.101C331.791 177.501 328.791 181.401 325.791 184.801C322.791 188.201 319.991 191.201 317.391 193.801C309.791 201.001 303.391 204.001 298.191 202.801C286.191 200.001 280.191 193.201 280.191 182.401C280.191 173.801 284.291 162.801 292.491 149.401C295.091 145.401 298.391 141.401 302.391 137.401C306.391 133.401 310.991 129.501 316.191 125.701C329.591 115.901 342.491 111.001 354.891 111.001C362.491 111.001 369.691 113.001 376.491 117.001C378.691 118.601 379.791 120.301 379.791 122.101C379.791 123.501 379.391 124.201 378.591 124.201C378.391 124.201 378.191 124.101 377.991 123.901C373.791 119.301 368.191 117.001 361.191 117.001C352.991 117.001 344.091 120.101 334.491 126.301C324.891 132.501 316.291 140.801 308.691 151.201C297.891 166.201 292.491 178.401 292.491 187.801C292.491 193.201 294.391 196.601 298.191 198.001C302.991 200.001 313.191 191.101 328.791 171.301C335.191 163.501 340.491 156.501 344.691 150.301C349.091 144.101 352.591 138.801 355.191 134.401C356.391 132.201 358.591 131.101 361.791 131.101C367.791 131.101 370.791 132.901 370.791 136.501C370.791 137.101 370.691 137.501 370.491 137.701C353.091 165.301 344.391 184.001 344.391 193.801C344.391 196.201 345.091 197.501 346.491 197.701C350.691 198.901 357.691 195.801 367.491 188.401C379.291 179.601 390.391 167.901 400.791 153.301C402.991 150.301 404.991 148.801 406.791 148.801C407.391 148.801 407.691 149.001 407.691 149.401C407.691 150.401 406.791 152.301 404.991 155.101C400.791 161.701 396.091 167.901 390.891 173.701C385.891 179.501 380.291 184.901 374.091 189.901C365.291 197.301 358.091 201.901 352.491 203.701C351.091 204.301 349.391 204.601 347.391 204.601ZM374.196 293.701C366.596 293.701 362.796 289.901 362.796 282.301C362.796 276.101 365.496 268.701 370.896 260.101C374.296 254.701 378.596 248.901 383.796 242.701C389.196 236.701 395.596 230.301 402.996 223.501C416.196 210.701 430.196 199.601 444.996 190.201C448.396 181.801 451.296 173.801 453.696 166.201C456.296 158.601 458.496 151.501 460.296 144.901C458.896 147.301 451.196 156.701 437.196 173.101C420.196 193.101 408.496 203.101 402.096 203.101C401.296 203.101 400.696 203.001 400.296 202.801L391.296 198.001C388.496 196.401 386.796 194.901 386.196 193.501C385.596 191.901 385.296 190.301 385.296 188.701C385.296 183.301 386.896 175.601 390.096 165.601C393.296 155.601 398.296 143.401 405.096 129.001C408.096 122.601 411.496 119.401 415.296 119.401C418.096 119.401 420.796 121.501 423.396 125.701L410.196 151.801C400.796 170.201 396.096 183.001 396.096 190.201C396.096 195.001 397.696 197.401 400.896 197.401C407.296 197.401 419.296 186.501 436.896 164.701C442.696 157.701 447.996 151.001 452.796 144.601C457.796 138.001 462.296 131.601 466.296 125.401C467.696 123.401 469.696 122.401 472.296 122.401C477.096 122.401 479.496 124.201 479.496 127.801C479.496 128.601 479.196 129.501 478.596 130.501C476.996 136.101 474.796 143.001 471.996 151.201C469.396 159.201 466.196 168.701 462.396 179.701C468.796 175.901 473.896 174.001 477.696 174.001C479.296 174.001 480.096 174.401 480.096 175.201C480.096 177.201 477.596 179.101 472.596 180.901C470.596 181.701 468.396 182.601 465.996 183.601C463.796 184.601 461.396 185.801 458.796 187.201C444.796 222.001 427.896 250.701 408.096 273.301C396.096 286.901 384.796 293.701 374.196 293.701ZM380.496 287.401C384.296 287.401 388.896 284.301 394.296 278.101C412.096 258.101 427.696 231.901 441.096 199.501C414.496 219.301 394.696 239.901 381.696 261.301C377.296 268.301 375.096 274.501 375.096 279.901C375.096 284.901 376.896 287.401 380.496 287.401ZM514.493 204.601C499.893 204.601 492.593 195.601 492.593 177.601C492.593 159.601 499.793 142.401 514.193 126.001C514.393 125.801 514.293 125.101 513.893 123.901C513.493 122.501 513.293 121.501 513.293 120.901C513.293 119.701 513.693 118.801 514.493 118.201C521.493 112.601 529.693 109.801 539.093 109.801C541.693 109.801 543.793 110.301 545.393 111.301C547.393 112.101 549.293 112.901 551.093 113.701C552.893 114.501 554.593 115.401 556.193 116.401C563.793 121.001 569.093 125.801 572.093 130.801C577.093 130.601 581.293 130.401 584.693 130.201C588.093 130.001 590.693 129.801 592.493 129.601H593.693C595.493 129.601 596.393 130.301 596.393 131.701C596.393 132.101 595.993 132.401 595.193 132.601C592.993 133.001 590.093 133.501 586.493 134.101C583.093 134.701 578.893 135.301 573.893 135.901C574.493 137.301 574.793 138.901 574.793 140.701C574.793 142.101 574.693 143.101 574.493 143.701C571.493 159.901 563.593 174.101 550.793 186.301C538.393 198.501 526.293 204.601 514.493 204.601ZM564.893 130.801C561.693 125.801 555.393 123.301 545.993 123.301C538.793 123.301 534.093 124.101 531.893 125.701C531.293 125.901 530.693 126.301 530.093 126.901C529.493 127.501 528.793 128.201 527.993 129.001C539.193 130.401 551.493 131.001 564.893 130.801ZM515.393 199.801C524.193 199.801 534.293 193.501 545.693 180.901C557.293 168.301 564.193 156.101 566.393 144.301C566.593 143.301 566.693 142.501 566.693 141.901C566.893 141.101 566.993 140.401 566.993 139.801C566.993 138.601 566.793 137.401 566.393 136.201C562.593 136.401 558.693 136.501 554.693 136.501C550.693 136.501 546.693 136.501 542.693 136.501C538.693 136.501 534.993 136.501 531.593 136.501C528.393 136.501 525.493 136.401 522.893 136.201C514.893 147.001 509.893 155.701 507.893 162.301C505.493 169.701 504.293 176.801 504.293 183.601C504.293 194.401 507.993 199.801 515.393 199.801ZM605.536 216.001C596.936 216.001 592.636 210.701 592.636 200.101C592.636 191.301 595.336 179.401 600.736 164.401C601.736 161.201 604.036 155.401 607.636 147.001C611.236 138.401 616.036 127.101 622.036 113.101L609.136 115.201C606.536 115.601 604.436 116.001 602.836 116.401C601.236 116.601 600.036 116.601 599.236 116.401C598.636 116.001 598.336 115.401 598.336 114.601C598.336 110.201 599.236 107.801 601.036 107.401L626.236 103.801C628.836 99.4008 631.936 94.3008 635.536 88.5008C639.136 82.5008 643.336 75.8008 648.136 68.4008C654.336 60.2008 660.136 54.5008 665.536 51.3008C668.136 50.1008 671.236 49.1008 674.836 48.3008C678.636 47.3008 683.036 46.8008 688.036 46.8008C695.636 46.8008 700.736 49.8008 703.336 55.8008C704.136 57.6008 704.536 59.5008 704.536 61.5008C704.536 65.5008 703.036 67.5008 700.036 67.5008C696.636 67.5008 693.836 64.6008 691.636 58.8008C690.436 55.4008 687.936 53.7008 684.136 53.7008C678.536 53.7008 673.536 56.2008 669.136 61.2008C667.736 62.6008 665.936 64.8008 663.736 67.8008C661.736 70.8008 659.136 74.6008 655.936 79.2008C652.536 84.2008 649.636 88.7008 647.236 92.7008C645.036 96.5008 643.236 99.8008 641.836 102.601C642.436 102.401 643.736 102.201 645.736 102.001C647.736 101.801 650.336 101.601 653.536 101.401C655.936 101.201 658.236 101.101 660.436 101.101C662.636 100.901 664.736 100.801 666.736 100.801C675.136 100.801 679.136 101.201 678.736 102.001C676.736 103.801 663.036 106.901 637.636 111.301C631.436 122.101 624.536 136.901 616.936 155.701C607.336 178.701 602.536 195.001 602.536 204.601C602.536 208.401 603.536 210.801 605.536 211.801C607.736 213.001 608.836 213.701 608.836 213.901C608.836 215.301 607.736 216.001 605.536 216.001ZM674.536 216.001C665.936 216.001 661.636 210.701 661.636 200.101C661.636 191.301 664.336 179.401 669.736 164.401C670.736 161.201 673.036 155.401 676.636 147.001C680.236 138.401 685.036 127.101 691.036 113.101L678.136 115.201C675.536 115.601 673.436 116.001 671.836 116.401C670.236 116.601 669.036 116.601 668.236 116.401C667.636 116.001 667.336 115.401 667.336 114.601C667.336 110.201 668.236 107.801 670.036 107.401L695.236 103.801C697.836 99.4008 700.936 94.3008 704.536 88.5008C708.136 82.5008 712.336 75.8008 717.136 68.4008C723.336 60.2008 729.136 54.5008 734.536 51.3008C737.136 50.1008 740.236 49.1008 743.836 48.3008C747.636 47.3008 752.036 46.8008 757.036 46.8008C764.636 46.8008 769.736 49.8008 772.336 55.8008C773.136 57.6008 773.536 59.5008 773.536 61.5008C773.536 65.5008 772.036 67.5008 769.036 67.5008C765.636 67.5008 762.836 64.6008 760.636 58.8008C759.436 55.4008 756.936 53.7008 753.136 53.7008C747.536 53.7008 742.536 56.2008 738.136 61.2008C736.736 62.6008 734.936 64.8008 732.736 67.8008C730.736 70.8008 728.136 74.6008 724.936 79.2008C721.536 84.2008 718.636 88.7008 716.236 92.7008C714.036 96.5008 712.236 99.8008 710.836 102.601C711.436 102.401 712.736 102.201 714.736 102.001C716.736 101.801 719.336 101.601 722.536 101.401C724.936 101.201 727.236 101.101 729.436 101.101C731.636 100.901 733.736 100.801 735.736 100.801C744.136 100.801 748.136 101.201 747.736 102.001C745.736 103.801 732.036 106.901 706.636 111.301C700.436 122.101 693.536 136.901 685.936 155.701C676.336 178.701 671.536 195.001 671.536 204.601C671.536 208.401 672.536 210.801 674.536 211.801C676.736 213.001 677.836 213.701 677.836 213.901C677.836 215.301 676.736 216.001 674.536 216.001ZM726.124 213.601C725.324 213.601 724.924 213.301 724.924 212.701C724.924 210.101 731.724 205.301 745.324 198.301C748.724 196.701 751.824 195.101 754.624 193.501C757.424 191.701 759.824 190.101 761.824 188.701C774.024 179.701 780.124 171.901 780.124 165.301C780.124 160.301 775.224 157.801 765.424 157.801C742.624 157.401 731.224 152.401 731.224 142.801C731.224 138.601 733.024 134.601 736.624 130.801C740.824 126.001 747.824 121.401 757.624 117.001C768.224 112.201 777.924 109.801 786.724 109.801C794.524 109.801 800.424 111.701 804.424 115.501C806.224 117.301 807.124 119.501 807.124 122.101C807.124 124.901 806.224 127.401 804.424 129.601C802.624 131.801 800.624 132.901 798.424 132.901C794.424 132.901 792.224 130.201 791.824 124.801C791.824 121.001 791.224 118.801 790.024 118.201C788.824 117.601 785.624 117.301 780.424 117.301C773.824 117.301 766.424 119.501 758.224 123.901C748.424 128.901 743.824 134.901 744.424 141.901C744.824 145.901 752.424 147.901 767.224 147.901C787.424 147.901 797.524 152.801 797.524 162.601C797.524 173.201 788.824 183.801 771.424 194.401C760.424 201.201 747.024 207.201 731.224 212.401C729.024 213.201 727.324 213.601 726.124 213.601Z" fill="#B52532"/>
</svg>
