<svg width="990" height="452" viewBox="0 0 990 452" fill="none" xmlns="http://www.w3.org/2000/svg">
<path d="M41.4 297.3C33.6 296.3 27.3 292.7 22.5 286.5C17.7 280.3 15.3 272.6 15.3 263.4C15.3 249 20.9 234.4 32.1 219.6C33.9 217.2 35.5 216 36.9 216C37.7 216 38.1 216.5 38.1 217.5C38.1 218.9 37.3 220.7 35.7 222.9C27.3 234.5 23.1 247.4 23.1 261.6C23.1 269.6 24.7 276.1 27.9 281.1C31.1 286.1 35.7 288.6 41.7 288.6C64.1 288.4 90.6 257.3 121.2 195.3C120.8 195.1 120.2 195 119.4 195C118.8 194.8 118 194.7 117 194.7C113 194.3 111 192.9 111 190.5C111 188.1 115.4 187.2 124.2 187.8C128.2 179.6 132.3 170.7 136.5 161.1C140.9 151.5 145.3 141.3 149.7 130.5C154.3 119.7 157.7 111.6 159.9 106.2C162.3 100.8 163.5 98.1 163.5 98.1C164.3 96.1 166.2 95.1 169.2 95.1C171.6 95.1 173.9 95.9 176.1 97.5C178.5 99.1 179.7 100.9 179.7 102.9C179.7 103.1 179.5 103.8 179.1 105C175.9 112.4 170.8 123.1 163.8 137.1C156.8 151.1 148 168.4 137.4 189C162.6 190.2 186 185.4 207.6 174.6C227.2 165.2 240 154.1 246 141.3C249.6 133.7 251.4 126.7 251.4 120.3C251.4 107.3 244.6 96.7 231 88.5C220.6 81.9 207.6 77.7 192 75.9C181.6 74.7 171.2 74.1 160.8 74.1C123 74.1 89.9 81.7 61.5 96.9C35.7 110.3 22.8 124 22.8 138C22.8 139.6 23.2 141.6 24 144C24.8 146.2 25.2 147.8 25.2 148.8C25.2 149.6 24.9 150 24.3 150C23.5 150 22 149.2 19.8 147.6C14.6 143.6 12 138.7 12 132.9C12 117.9 24.1 104 48.3 91.2C76.9 76.2 114.4 68.7 160.8 68.7C166 68.7 171.2 68.8 176.4 69C181.6 69.2 186.9 69.5 192.3 69.9C208.5 71.1 224.3 75.9 239.7 84.3C259.1 95.1 268.8 108.6 268.8 124.8C268.8 131 267.5 137.1 264.9 143.1C259.7 155.7 245.4 167 222 177C209.2 182.6 195.5 186.9 180.9 189.9C166.3 192.7 150.7 194.3 134.1 194.7C94.9 265.7 64 299.9 41.4 297.3ZM252.253 275.7C238.053 272.7 230.953 266.1 230.953 255.9C230.953 249.9 232.853 241.2 236.653 229.8C239.453 221.2 243.253 211.4 248.053 200.4C253.053 189.2 259.253 176.8 266.653 163.2C284.453 129.8 297.953 112.4 307.153 111C307.953 110.8 309.253 110.7 311.053 110.7C320.853 110.7 325.753 115.3 325.753 124.5C325.753 137.1 315.153 155 293.953 178.2C282.153 191.4 269.153 203.1 254.953 213.3C246.553 233.3 242.353 248 242.353 257.4C242.353 263.6 244.253 267.3 248.053 268.5C251.053 269.3 258.053 265.7 269.053 257.7C281.653 248.5 292.453 237.3 301.453 224.1C302.853 222.1 304.153 221.1 305.353 221.1C306.153 221.1 306.553 221.5 306.553 222.3C306.553 223.1 306.053 224.3 305.053 225.9C297.453 238.1 287.553 249.7 275.353 260.7C263.553 271.5 255.853 276.5 252.253 275.7ZM258.253 205.2C265.453 199.8 271.453 194.4 276.253 189L293.953 168C310.353 148.6 318.553 134.3 318.553 125.1C318.553 123.3 317.553 122.4 315.553 122.4C312.153 122.4 306.753 127.3 299.353 137.1C297.153 140.3 294.853 143.4 292.453 146.4C290.053 149.4 287.653 152.5 285.253 155.7C282.253 160.1 279.453 164.4 276.853 168.6C274.453 172.8 272.153 177.1 269.953 181.5C269.353 182.3 268.053 184.7 266.053 188.7C264.253 192.7 261.653 198.2 258.253 205.2ZM359.391 273.3C355.391 273.3 351.691 272 348.291 269.4C345.091 266.8 343.191 264.3 342.591 261.9C341.991 259.1 345.691 249.1 353.691 231.9L346.791 241.8C343.791 246.2 340.791 250.1 337.791 253.5C334.791 256.9 331.991 259.9 329.391 262.5C321.791 269.7 315.391 272.7 310.191 271.5C298.191 268.7 292.191 261.9 292.191 251.1C292.191 242.5 296.291 231.5 304.491 218.1C307.091 214.1 310.391 210.1 314.391 206.1C318.391 202.1 322.991 198.2 328.191 194.4C341.591 184.6 354.491 179.7 366.891 179.7C374.491 179.7 381.691 181.7 388.491 185.7C390.691 187.3 391.791 189 391.791 190.8C391.791 192.2 391.391 192.9 390.591 192.9C390.391 192.9 390.191 192.8 389.991 192.6C385.791 188 380.191 185.7 373.191 185.7C364.991 185.7 356.091 188.8 346.491 195C336.891 201.2 328.291 209.5 320.691 219.9C309.891 234.9 304.491 247.1 304.491 256.5C304.491 261.9 306.391 265.3 310.191 266.7C314.991 268.7 325.191 259.8 340.791 240C347.191 232.2 352.491 225.2 356.691 219C361.091 212.8 364.591 207.5 367.191 203.1C368.391 200.9 370.591 199.8 373.791 199.8C379.791 199.8 382.791 201.6 382.791 205.2C382.791 205.8 382.691 206.2 382.491 206.4C365.091 234 356.391 252.7 356.391 262.5C356.391 264.9 357.091 266.2 358.491 266.4C362.691 267.6 369.691 264.5 379.491 257.1C391.291 248.3 402.391 236.6 412.791 222C414.991 219 416.991 217.5 418.791 217.5C419.391 217.5 419.691 217.7 419.691 218.1C419.691 219.1 418.791 221 416.991 223.8C412.791 230.4 408.091 236.6 402.891 242.4C397.891 248.2 392.291 253.6 386.091 258.6C377.291 266 370.091 270.6 364.491 272.4C363.091 273 361.391 273.3 359.391 273.3ZM386.196 362.4C378.596 362.4 374.796 358.6 374.796 351C374.796 344.8 377.496 337.4 382.896 328.8C386.296 323.4 390.596 317.6 395.796 311.4C401.196 305.4 407.596 299 414.996 292.2C428.196 279.4 442.196 268.3 456.996 258.9C460.396 250.5 463.296 242.5 465.696 234.9C468.296 227.3 470.496 220.2 472.296 213.6C470.896 216 463.196 225.4 449.196 241.8C432.196 261.8 420.496 271.8 414.096 271.8C413.296 271.8 412.696 271.7 412.296 271.5L403.296 266.7C400.496 265.1 398.796 263.6 398.196 262.2C397.596 260.6 397.296 259 397.296 257.4C397.296 252 398.896 244.3 402.096 234.3C405.296 224.3 410.296 212.1 417.096 197.7C420.096 191.3 423.496 188.1 427.296 188.1C430.096 188.1 432.796 190.2 435.396 194.4L422.196 220.5C412.796 238.9 408.096 251.7 408.096 258.9C408.096 263.7 409.696 266.1 412.896 266.1C419.296 266.1 431.296 255.2 448.896 233.4C454.696 226.4 459.996 219.7 464.796 213.3C469.796 206.7 474.296 200.3 478.296 194.1C479.696 192.1 481.696 191.1 484.296 191.1C489.096 191.1 491.496 192.9 491.496 196.5C491.496 197.3 491.196 198.2 490.596 199.2C488.996 204.8 486.796 211.7 483.996 219.9C481.396 227.9 478.196 237.4 474.396 248.4C480.796 244.6 485.896 242.7 489.696 242.7C491.296 242.7 492.096 243.1 492.096 243.9C492.096 245.9 489.596 247.8 484.596 249.6C482.596 250.4 480.396 251.3 477.996 252.3C475.796 253.3 473.396 254.5 470.796 255.9C456.796 290.7 439.896 319.4 420.096 342C408.096 355.6 396.796 362.4 386.196 362.4ZM392.496 356.1C396.296 356.1 400.896 353 406.296 346.8C424.096 326.8 439.696 300.6 453.096 268.2C426.496 288 406.696 308.6 393.696 330C389.296 337 387.096 343.2 387.096 348.6C387.096 353.6 388.896 356.1 392.496 356.1ZM521.393 272.4C515.593 272.4 510.493 271 506.093 268.2C500.293 264.2 497.393 258.4 497.393 250.8C497.393 242.6 500.893 232.6 507.893 220.8C517.293 205.4 531.093 191.9 549.293 180.3C553.893 177.3 558.493 175.8 563.093 175.8C569.093 175.8 573.393 177.7 575.993 181.5C577.593 183.7 578.393 186.2 578.393 189C578.393 197.4 571.593 206.6 557.993 216.6C553.993 219.4 549.693 222 545.093 224.4C540.693 226.6 535.893 228.2 530.693 229.2L517.793 231.9C512.993 240.5 510.593 247.7 510.593 253.5C510.593 261.5 515.293 265.5 524.693 265.5C532.093 265.5 541.093 262.4 551.693 256.2C565.893 248 578.093 236.6 588.293 222C589.893 219.6 591.393 218.4 592.793 218.4C593.393 218.4 593.693 218.8 593.693 219.6C593.693 220.6 592.993 222.1 591.593 224.1C572.193 253.3 550.293 269.3 525.893 272.1C525.093 272.3 524.293 272.4 523.493 272.4C522.893 272.4 522.193 272.4 521.393 272.4ZM521.393 226.8C526.993 226.8 534.193 224.3 542.993 219.3C555.393 212.3 564.093 203.3 569.093 192.3C570.493 189.5 571.193 187.2 571.193 185.4C571.193 183.6 570.493 182.7 569.093 182.7C566.493 182.7 561.193 185.9 553.193 192.3C547.393 197.3 541.693 202.7 536.093 208.5C530.693 214.1 525.493 220.1 520.493 226.5C520.293 226.7 520.593 226.8 521.393 226.8ZM571.779 273.6C568.979 273.6 567.579 272.7 567.579 270.9C567.579 270.7 567.779 270 568.179 268.8C577.579 250.8 588.679 225.1 601.479 191.7C602.879 188.1 605.279 185 608.679 182.4C612.079 179.6 614.979 178.2 617.379 178.2C619.979 178.2 621.079 179.6 620.679 182.4C618.679 186.6 616.279 192 613.479 198.6C610.679 205.2 607.379 212.9 603.579 221.7C609.179 214.3 617.479 206 628.479 196.8C634.079 192.2 638.879 188.4 642.879 185.4C647.079 182.4 650.579 180.2 653.379 178.8C656.179 177.4 659.279 176.7 662.679 176.7C666.679 176.7 670.079 177.7 672.879 179.7C675.679 181.7 677.079 184 677.079 186.6C677.079 188.2 676.279 190 674.679 192C673.279 193.8 671.779 194.7 670.179 194.7C669.379 194.7 667.679 193.9 665.079 192.3C662.679 190.5 660.079 189.6 657.279 189.6C654.279 189.6 650.779 190.5 646.779 192.3C621.379 203.7 599.479 229.4 581.079 269.4C579.879 272.2 576.779 273.6 571.779 273.6Z" fill="#253B73"/>
<path d="M591.416 362.25C590.749 362.25 590.416 362 590.416 361.5C590.416 359.333 596.083 355.333 607.416 349.5C610.249 348.167 612.833 346.833 615.166 345.5C617.499 344 619.499 342.667 621.166 341.5C631.333 334 636.416 327.5 636.416 322C636.416 317.833 632.333 315.75 624.166 315.75C605.166 315.417 595.666 311.25 595.666 303.25C595.666 299.75 597.166 296.417 600.166 293.25C603.666 289.25 609.499 285.417 617.666 281.75C626.499 277.75 634.583 275.75 641.916 275.75C648.416 275.75 653.333 277.333 656.666 280.5C658.166 282 658.916 283.833 658.916 286C658.916 288.333 658.166 290.417 656.666 292.25C655.166 294.083 653.499 295 651.666 295C648.333 295 646.499 292.75 646.166 288.25C646.166 285.083 645.666 283.25 644.666 282.75C643.666 282.25 640.999 282 636.666 282C631.166 282 624.999 283.833 618.166 287.5C609.999 291.667 606.166 296.667 606.666 302.5C606.999 305.833 613.333 307.5 625.666 307.5C642.499 307.5 650.916 311.583 650.916 319.75C650.916 328.583 643.666 337.417 629.166 346.25C619.999 351.917 608.833 356.917 595.666 361.25C593.833 361.917 592.416 362.25 591.416 362.25ZM689.006 356.25C676.173 353.417 669.756 347.583 669.756 338.75C669.756 336.25 670.173 333.333 671.006 330C671.839 326.5 673.173 322.667 675.006 318.5L696.256 270.75C693.756 271.083 691.006 271.417 688.006 271.75C685.006 272.083 681.673 272.417 678.006 272.75C677.339 272.75 677.006 272.167 677.006 271C677.006 268.667 677.423 267.333 678.256 267L699.256 264L715.506 231C717.006 228 721.673 226.5 729.506 226.5C733.173 226.5 734.756 226.917 734.256 227.75C730.589 233.583 726.839 239.5 723.006 245.5C719.339 251.333 715.673 257.167 712.006 263C712.506 262.833 713.589 262.667 715.256 262.5C716.923 262.333 719.089 262.167 721.756 262C723.756 261.833 725.673 261.75 727.506 261.75C729.339 261.583 731.089 261.5 732.756 261.5C739.756 261.5 743.089 261.833 742.756 262.5C741.589 263.667 730.256 265.917 708.756 269.25C690.589 303.583 681.506 327.833 681.506 342C681.506 347.167 683.006 350.25 686.006 351.25C688.339 351.917 694.256 348.833 703.756 342C709.256 338 714.256 333.667 718.756 329C723.256 324.167 727.339 319.083 731.006 313.75C732.173 312.083 733.256 311.25 734.256 311.25C734.923 311.25 735.256 311.583 735.256 312.25C735.256 312.917 734.839 313.917 734.006 315.25C727.673 325.417 719.256 335 708.756 344C698.589 352.833 692.006 356.917 689.006 356.25ZM781.908 354.75C778.575 354.75 775.492 353.667 772.658 351.5C769.992 349.333 768.408 347.25 767.908 345.25C767.408 342.917 770.492 334.583 777.158 320.25L771.408 328.5C768.908 332.167 766.408 335.417 763.908 338.25C761.408 341.083 759.075 343.583 756.908 345.75C750.575 351.75 745.242 354.25 740.908 353.25C730.908 350.917 725.908 345.25 725.908 336.25C725.908 329.083 729.325 319.917 736.158 308.75C738.325 305.417 741.075 302.083 744.408 298.75C747.742 295.417 751.575 292.167 755.908 289C767.075 280.833 777.825 276.75 788.158 276.75C794.492 276.75 800.492 278.417 806.158 281.75C807.992 283.083 808.908 284.5 808.908 286C808.908 287.167 808.575 287.75 807.908 287.75C807.742 287.75 807.575 287.667 807.408 287.5C803.908 283.667 799.242 281.75 793.408 281.75C786.575 281.75 779.158 284.333 771.158 289.5C763.158 294.667 755.992 301.583 749.658 310.25C740.658 322.75 736.158 332.917 736.158 340.75C736.158 345.25 737.742 348.083 740.908 349.25C744.908 350.917 753.408 343.5 766.408 327C771.742 320.5 776.158 314.667 779.658 309.5C783.325 304.333 786.242 299.917 788.408 296.25C789.408 294.417 791.242 293.5 793.908 293.5C798.908 293.5 801.408 295 801.408 298C801.408 298.5 801.325 298.833 801.158 299C786.658 322 779.408 337.583 779.408 345.75C779.408 347.75 779.992 348.833 781.158 349C784.658 350 790.492 347.417 798.658 341.25C808.492 333.917 817.742 324.167 826.408 312C828.242 309.5 829.908 308.25 831.408 308.25C831.908 308.25 832.158 308.417 832.158 308.75C832.158 309.583 831.408 311.167 829.908 313.5C826.408 319 822.492 324.167 818.158 329C813.992 333.833 809.325 338.333 804.158 342.5C796.825 348.667 790.825 352.5 786.158 354C784.992 354.5 783.575 354.75 781.908 354.75ZM835.246 356.25C822.413 353.417 815.996 347.583 815.996 338.75C815.996 336.25 816.413 333.333 817.246 330C818.079 326.5 819.413 322.667 821.246 318.5L842.496 270.75C839.996 271.083 837.246 271.417 834.246 271.75C831.246 272.083 827.913 272.417 824.246 272.75C823.579 272.75 823.246 272.167 823.246 271C823.246 268.667 823.663 267.333 824.496 267L845.496 264L861.746 231C863.246 228 867.913 226.5 875.746 226.5C879.413 226.5 880.996 226.917 880.496 227.75C876.829 233.583 873.079 239.5 869.246 245.5C865.579 251.333 861.913 257.167 858.246 263C858.746 262.833 859.829 262.667 861.496 262.5C863.163 262.333 865.329 262.167 867.996 262C869.996 261.833 871.913 261.75 873.746 261.75C875.579 261.583 877.329 261.5 878.996 261.5C885.996 261.5 889.329 261.833 888.996 262.5C887.829 263.667 876.496 265.917 854.996 269.25C836.829 303.583 827.746 327.833 827.746 342C827.746 347.167 829.246 350.25 832.246 351.25C834.579 351.917 840.496 348.833 849.996 342C855.496 338 860.496 333.667 864.996 329C869.496 324.167 873.579 319.083 877.246 313.75C878.413 312.083 879.496 311.25 880.496 311.25C881.163 311.25 881.496 311.583 881.496 312.25C881.496 312.917 881.079 313.917 880.246 315.25C873.913 325.417 865.496 335 854.996 344C844.829 352.833 838.246 356.917 835.246 356.25ZM873.398 362.25C872.732 362.25 872.398 362 872.398 361.5C872.398 359.333 878.065 355.333 889.398 349.5C892.232 348.167 894.815 346.833 897.148 345.5C899.482 344 901.482 342.667 903.148 341.5C913.315 334 918.398 327.5 918.398 322C918.398 317.833 914.315 315.75 906.148 315.75C887.148 315.417 877.648 311.25 877.648 303.25C877.648 299.75 879.148 296.417 882.148 293.25C885.648 289.25 891.482 285.417 899.648 281.75C908.482 277.75 916.565 275.75 923.898 275.75C930.398 275.75 935.315 277.333 938.648 280.5C940.148 282 940.898 283.833 940.898 286C940.898 288.333 940.148 290.417 938.648 292.25C937.148 294.083 935.482 295 933.648 295C930.315 295 928.482 292.75 928.148 288.25C928.148 285.083 927.648 283.25 926.648 282.75C925.648 282.25 922.982 282 918.648 282C913.148 282 906.982 283.833 900.148 287.5C891.982 291.667 888.148 296.667 888.648 302.5C888.982 305.833 895.315 307.5 907.648 307.5C924.482 307.5 932.898 311.583 932.898 319.75C932.898 328.583 925.648 337.417 911.148 346.25C901.982 351.917 890.815 356.917 877.648 361.25C875.815 361.917 874.398 362.25 873.398 362.25Z" fill="#253B73"/>
</svg>
