<svg width="1121" height="623" viewBox="0 0 1121 623" fill="none" xmlns="http://www.w3.org/2000/svg">
<path fill-rule="evenodd" clip-rule="evenodd" d="M170.828 104.031L170.985 106.262C175.785 108.975 178.208 111.206 183.053 114.224C195.86 122.099 211.652 136.098 209.655 184.286C213.244 194.785 214.837 215.434 218.179 222.062C224.841 234.967 229.305 243.367 231.256 255.55C231.256 255.55 233.163 274.515 235.675 275.893C248.931 278.824 245.096 280.092 247.047 282.302C249.111 284.905 256.76 284.773 256.76 291.729C259.407 295.185 261.38 298.794 262.861 302.535V51.7969C262.849 38.0744 257.258 24.9163 247.314 15.2069C237.37 5.49748 223.884 0.0289455 209.812 0H159.029C167.194 2.84358 171.815 6.16838 174.484 11.4618C181.034 12.0086 188.84 26.3359 176.682 47.5315C182.066 51.0313 177.871 56.2372 174.013 62.2962C172.891 64.243 171.658 67.699 168.046 67.4584C163.448 76.9297 157.863 86.0948 153.668 86.6635C152.39 88.1947 151.47 92.2632 153.377 94.1881C159.568 96.8785 167.104 100.597 170.828 104.031ZM262.861 336.505C259.352 345.105 253.273 352.477 245.413 357.665C237.554 362.853 228.276 365.616 218.785 365.597C212.567 365.6 206.411 364.408 200.666 362.09C194.921 359.772 189.701 356.372 185.304 352.086C180.906 347.8 177.418 342.711 175.038 337.11C172.658 331.509 171.433 325.506 171.433 319.443C171.433 297.679 186.776 279.414 207.614 274.537C202.164 261.194 190.634 239.604 187.202 232.539C183.972 225.496 176.166 181.573 174.484 172.89C174.103 170.987 154.05 184.242 154.005 185.051C152.838 186.145 138.976 221.493 138.393 223.396C138.102 224.599 138.079 229.302 138.079 229.302C138.079 229.302 144.898 230.133 148.823 241.748C152.704 253.341 164.525 295.623 164.525 295.623C164.525 295.623 161.34 298.86 161.205 298.685C176.166 347.507 170.94 368.528 177.647 382.855C186.081 403.023 188.369 400.376 195.591 417.35C200.795 429.708 206.582 478.334 208.511 480.477C216.586 490.474 220.938 498.261 220.938 503.882C220.938 509.569 214.097 526.303 216.586 536.058C218.112 541.811 218.897 554.651 221.633 557.101C221.633 557.101 224.146 561.935 222.912 564.1C222.553 564.822 221.835 565.938 222.172 566.835C226.613 582.146 241.013 608.307 217.708 622H218.201C230.7 620.103 242.084 613.891 250.28 604.497C258.477 595.103 262.942 583.15 262.861 570.816V336.505Z" fill="#B52532"/>
<path fill-rule="evenodd" clip-rule="evenodd" d="M202.944 561.155C194.445 553.715 200.126 550.585 199.768 547.653C194.177 524.959 175.748 511.237 185.275 503.753C182.927 496.268 178.141 486.858 178.32 486.88C149.625 470.751 125.179 444.556 121.042 440.704C116.01 435.365 107.421 429.981 105.833 425.648C98.9224 419.455 65.1058 372.513 57.2332 355.225L43.5008 353.321C37.2385 328.373 16.3939 307.43 15.8795 282.416C15.7006 272.94 20.2631 252.675 21.9629 248.648C23.6403 244.534 31.6248 237.816 31.6248 237.816V231.119C1.67743 231.951 10.2881 228.953 5.14407 217.551C1.52087 209.673 4.11526 207.922 5.41246 202.451C9.43824 186.322 22.7904 161.418 28.2923 150.104C29.9921 144.392 35.7624 130.627 35.7624 130.627C58.0831 86.1582 66.4254 89.4189 92.9285 86.9022L94.2257 85.064C120.796 83.926 116.435 81.9783 120.17 56.9427C116.323 58.5622 115.16 49.0863 115.16 49.0863C113.057 34.8616 119.186 37.5533 122.093 37.2688C122.742 13.8527 125.179 6.45584 142.446 0H52.9838C46.0221 -2.42755e-06 39.1286 1.34242 32.6974 3.95055C26.2662 6.55868 20.4234 10.3814 15.5028 15.2001C10.5822 20.0189 6.68037 25.7393 4.02032 32.0343C1.36027 38.3293 -0.00585844 45.0756 1.88835e-05 51.8875V571.134C1.88835e-05 599.781 23.7074 623 53.0061 623H209.676C191.739 613.502 202.34 595.426 202.944 561.155Z" fill="#253B73"/>
<path d="M411.735 71.6L411.135 146L408.435 161.6C405.435 169.2 398.935 174.2 388.935 176.6L364.635 178.1H354.435V263H310.935V23H376.935L394.335 26C399.135 27.4 403.135 30.4 406.335 35L410.235 46.1L411.735 71.6ZM363.135 55.1L357.435 54.2H354.435V146.9H359.535L364.035 146.3L367.035 143.6L368.235 140.3L367.335 58.4L366.135 56.3L363.135 55.1ZM501.838 231.2V263H431.638V23H475.138V231.2H501.838ZM589.658 263L586.358 211.7H568.058L565.058 263H522.458L547.958 23H606.158L632.558 263H589.658ZM577.958 70.7H576.758L569.858 179.6H584.558L577.958 70.7ZM739.965 23L710.865 165.8V263H665.565V165.8L634.665 23H677.265L688.365 115.4L698.865 23H739.965ZM831.135 115.7V146.9H805.035V231.2H831.135V263H760.935V23H831.135V54.2H805.035V115.7H831.135ZM947.134 35L951.934 47L953.434 71.6V102.8L952.534 122C951.534 126.6 949.734 131.1 947.134 135.5C942.934 139.7 938.534 142.6 933.934 144.2L942.934 149.3C949.934 155.5 953.434 166.2 953.434 181.4V263H909.934L909.034 167.6C908.034 166 906.634 164.8 904.834 164L899.134 163.1H897.934L896.134 163.4V263H852.634V23H915.334L933.934 25.7C939.134 27.5 943.534 30.6 947.134 35ZM904.234 54.8L898.834 54.2H896.134V127.4L898.234 127.7H900.034L905.134 127.4L908.434 125.6L909.934 122V63.2L909.034 58.7L907.834 56L904.234 54.8ZM1054.51 24.2C1065.51 26.4 1072.21 31.3 1074.61 38.9L1077.91 53.9L1078.51 105.8H1035.31V64.4L1034.71 59.3L1033.21 56L1030.21 54.8H1028.11L1025.11 55.1L1023.01 56.9L1022.11 60.5V106.7C1022.71 109.5 1024.31 111.6 1026.91 113L1031.71 116.6L1057.81 130.7C1071.01 137.7 1077.71 147.1 1077.91 158.9L1078.51 216.2C1078.51 226.4 1077.91 234.5 1076.71 240.5L1072.81 251.9C1070.41 255.7 1066.71 258.5 1061.71 260.3L1045.81 263L1002.91 262.1L990.01 257.6C986.21 254.8 983.51 251.3 981.91 247.1L978.61 231.2V163.7H1022.11V221.6L1023.01 227.6L1024.21 230.3L1028.41 231.8L1029.31 232.1L1032.61 231.2L1034.41 229.1L1035.31 225.2V165.8L1031.71 160.1L1026.01 156.2L997.81 141.2C985.01 134.4 978.61 123.8 978.61 109.4V70.1C978.61 59.3 979.11 51.2 980.11 45.8L984.01 34.4C987.81 29.6 992.01 26.8 996.61 26L1013.41 23.3L1029.01 23L1054.51 24.2Z" fill="#253B73"/>
<path d="M386.835 324.2C397.835 326.4 404.535 331.3 406.935 338.9L410.235 353.9L410.835 405.8H367.635V364.4L367.035 359.3L365.535 356L362.535 354.8H360.435L357.435 355.1L355.335 356.9L354.435 360.5V406.7C355.035 409.5 356.635 411.6 359.235 413L364.035 416.6L390.135 430.7C403.335 437.7 410.035 447.1 410.235 458.9L410.835 516.2C410.835 526.4 410.235 534.5 409.035 540.5L405.135 551.9C402.735 555.7 399.035 558.5 394.035 560.3L378.135 563L335.235 562.1L322.335 557.6C318.535 554.8 315.835 551.3 314.235 547.1L310.935 531.2V463.7H354.435V521.6L355.335 527.6L356.535 530.3L360.735 531.8L361.635 532.1L364.935 531.2L366.735 529.1L367.635 525.2V465.8L364.035 460.1L358.335 456.2L330.135 441.2C317.335 434.4 310.935 423.8 310.935 409.4V370.1C310.935 359.3 311.435 351.2 312.435 345.8L316.335 334.4C320.135 329.6 324.335 326.8 328.935 326L345.735 323.3L361.335 323L386.835 324.2ZM500.56 354.8V563H456.46V354.8H434.86V323H522.16V354.8H500.56ZM596.103 563L592.803 511.7H574.503L571.503 563H528.903L554.403 323H612.603L639.003 563H596.103ZM584.403 370.7H583.203L576.303 479.6H591.003L584.403 370.7ZM711.205 354.8V563H667.105V354.8H645.505V323H732.805V354.8H711.205ZM831.268 324.2C842.268 326.4 848.968 331.3 851.368 338.9L854.668 353.9L855.268 405.8H812.068V364.4L811.468 359.3L809.968 356L806.968 354.8H804.868L801.868 355.1L799.768 356.9L798.868 360.5V406.7C799.468 409.5 801.068 411.6 803.668 413L808.468 416.6L834.568 430.7C847.768 437.7 854.468 447.1 854.668 458.9L855.268 516.2C855.268 526.4 854.668 534.5 853.468 540.5L849.568 551.9C847.168 555.7 843.468 558.5 838.468 560.3L822.568 563L779.668 562.1L766.768 557.6C762.968 554.8 760.268 551.3 758.668 547.1L755.368 531.2V463.7H798.868V521.6L799.768 527.6L800.968 530.3L805.168 531.8L806.068 532.1L809.368 531.2L811.168 529.1L812.068 525.2V465.8L808.468 460.1L802.768 456.2L774.568 441.2C761.768 434.4 755.368 423.8 755.368 409.4V370.1C755.368 359.3 755.868 351.2 756.868 345.8L760.768 334.4C764.568 329.6 768.768 326.8 773.368 326L790.168 323.3L805.768 323L831.268 324.2Z" fill="#090909"/>
</svg>
