<svg width="1184" height="623" viewBox="0 0 1184 623" fill="none" xmlns="http://www.w3.org/2000/svg">
<path fill-rule="evenodd" clip-rule="evenodd" d="M167.018 104.031L167.172 106.262C171.865 108.975 174.234 111.206 178.97 114.224C191.493 122.099 206.932 136.098 204.98 184.286C208.489 194.785 210.046 215.434 213.314 222.062C219.827 234.967 224.191 243.367 226.099 255.55C226.099 255.55 227.963 274.515 230.419 275.893C243.38 278.824 239.63 280.092 241.538 282.302C243.556 284.905 251.034 284.773 251.034 291.729C253.622 295.185 255.552 298.794 256.999 302.535V51.7969C256.987 38.0744 251.521 24.9163 241.799 15.2069C232.077 5.49748 218.892 0.0289455 205.133 0H155.483C163.466 2.84358 167.983 6.16838 170.593 11.4618C176.997 12.0086 184.629 26.3359 172.742 47.5315C178.006 51.0313 173.905 56.2372 170.133 62.2962C169.036 64.243 167.83 67.699 164.299 67.4584C159.803 76.9297 154.343 86.0948 150.242 86.6635C148.992 88.1947 148.092 92.2632 149.957 94.1881C156.009 96.8785 163.378 100.597 167.018 104.031ZM256.999 336.505C253.569 345.105 247.625 352.477 239.941 357.665C232.256 362.853 223.185 365.616 213.906 365.597C207.827 365.6 201.808 364.408 196.191 362.09C190.574 359.772 185.471 356.372 181.171 352.086C176.872 347.8 173.462 342.711 171.135 337.11C168.808 331.509 167.611 325.506 167.611 319.443C167.611 297.679 182.611 279.414 202.984 274.537C197.655 261.194 186.383 239.604 183.028 232.539C179.87 225.496 172.238 181.573 170.593 172.89C170.22 170.987 150.614 184.242 150.571 185.051C149.43 186.145 135.877 221.493 135.307 223.396C135.022 224.599 135 229.302 135 229.302C135 229.302 141.667 230.133 145.505 241.748C149.299 253.341 160.856 295.623 160.856 295.623C160.856 295.623 157.742 298.86 157.61 298.685C172.238 347.507 167.128 368.528 173.685 382.855C181.931 403.023 184.168 400.376 191.23 417.35C196.317 429.708 201.976 478.334 203.862 480.477C211.756 490.474 216.011 498.261 216.011 503.882C216.011 509.569 209.322 526.303 211.756 536.058C213.248 541.811 214.015 554.651 216.691 557.101C216.691 557.101 219.147 561.935 217.941 564.1C217.59 564.822 216.888 565.938 217.217 566.835C221.559 582.146 235.639 608.307 212.853 622H213.335C225.555 620.103 236.685 613.891 244.699 604.497C252.713 595.103 257.078 583.15 256.999 570.816V336.505Z" fill="#B52532"/>
<path fill-rule="evenodd" clip-rule="evenodd" d="M198.418 561.155C190.109 553.715 195.663 550.585 195.313 547.653C189.846 524.959 171.828 511.237 181.143 503.753C178.847 496.268 174.168 486.858 174.343 486.88C146.288 470.751 122.388 444.556 118.342 440.704C113.422 435.365 105.026 429.981 103.473 425.648C96.7163 419.455 63.6539 372.513 55.9568 355.225L42.5307 353.321C36.408 328.373 16.0283 307.43 15.5254 282.416C15.3504 272.94 19.8112 252.675 21.4731 248.648C23.1131 244.534 30.9195 237.816 30.9195 237.816V231.119C1.64002 231.951 10.0587 228.953 5.02935 217.551C1.48695 209.673 4.02348 207.922 5.29175 202.451C9.22775 186.322 22.2822 161.418 27.6614 150.104C29.3232 144.392 34.9648 130.627 34.9648 130.627C56.7878 86.1582 64.944 89.4189 90.856 86.9022L92.1243 85.064C118.102 83.926 113.838 81.9783 117.49 56.9427C113.729 58.5622 112.591 49.0863 112.591 49.0863C110.536 34.8616 116.527 37.5533 119.37 37.2688C120.004 13.8527 122.388 6.45584 139.269 0H51.8022C44.9957 -2.42755e-06 38.256 1.34242 31.9682 3.95055C25.6805 6.55868 19.9679 10.3814 15.157 15.2001C10.3462 20.0189 6.53139 25.7393 3.93066 32.0343C1.32993 38.3293 -0.00572779 45.0756 1.84624e-05 51.8875V571.134C1.84624e-05 599.781 23.1787 623 51.824 623H205C187.463 613.502 197.828 595.426 198.418 561.155Z" fill="#253B73"/>
<path d="M404.8 71.6L404.2 146L401.5 161.6C398.5 169.2 392 174.2 382 176.6L357.7 178.1H347.5V263H304V23H370L387.4 26C392.2 27.4 396.2 30.4 399.4 35L403.3 46.1L404.8 71.6ZM356.2 55.1L350.5 54.2H347.5V146.9H352.6L357.1 146.3L360.1 143.6L361.3 140.3L360.4 58.4L359.2 56.3L356.2 55.1ZM494.903 231.2V263H424.703V23H468.203V231.2H494.903ZM582.723 263L579.423 211.7H561.123L558.123 263H515.523L541.023 23H599.223L625.623 263H582.723ZM571.023 70.7H569.823L562.923 179.6H577.623L571.023 70.7ZM733.03 23L703.93 165.8V263H658.63V165.8L627.73 23H670.33L681.43 115.4L691.93 23H733.03ZM847.3 34.4C851.3 40.6 853.3 52.6 853.3 70.4L852.7 232.4L849.7 246.8C846.7 255.6 839.9 260.4 829.3 261.2L803.8 263L786.4 262.7L770.8 259.4C766.8 258.2 763.3 255.7 760.3 251.9C756.7 248.1 754.9 244.2 754.9 240.2L754 52.4C754.8 47.4 755.8 42.9 757 38.9C760 30.3 767 25.6 778 24.8L803.5 23L820.9 23.9C825.1 24.1 828.9 24.6 832.3 25.4C839.7 26.8 844.7 29.8 847.3 34.4ZM809.8 61.7L808.6 57.8L805.9 55.1L802.6 54.5H801.7L798.4 56L797.5 228.2L799.6 230.6L803.8 231.5L805.3 230.9L808 229.7L809.8 61.7ZM947.847 115.7V146.9H921.147V263H877.047V23H947.847V54.2H921.147V115.7H947.847ZM1039.25 115.7V146.9H1012.55V263H968.453V23H1039.25V54.2H1012.55V115.7H1039.25ZM1135.76 24.2C1146.76 26.4 1153.46 31.3 1155.86 38.9L1159.16 53.9L1159.76 105.8H1116.56V64.4L1115.96 59.3L1114.46 56L1111.46 54.8H1109.36L1106.36 55.1L1104.26 56.9L1103.36 60.5V106.7C1103.96 109.5 1105.56 111.6 1108.16 113L1112.96 116.6L1139.06 130.7C1152.26 137.7 1158.96 147.1 1159.16 158.9L1159.76 216.2C1159.76 226.4 1159.16 234.5 1157.96 240.5L1154.06 251.9C1151.66 255.7 1147.96 258.5 1142.96 260.3L1127.06 263L1084.16 262.1L1071.26 257.6C1067.46 254.8 1064.76 251.3 1063.16 247.1L1059.86 231.2V163.7H1103.36V221.6L1104.26 227.6L1105.46 230.3L1109.66 231.8L1110.56 232.1L1113.86 231.2L1115.66 229.1L1116.56 225.2V165.8L1112.96 160.1L1107.26 156.2L1079.06 141.2C1066.26 134.4 1059.86 123.8 1059.86 109.4V70.1C1059.86 59.3 1060.36 51.2 1061.36 45.8L1065.26 34.4C1069.06 29.6 1073.26 26.8 1077.86 26L1094.66 23.3L1110.26 23L1135.76 24.2Z" fill="#253B73"/>
<path d="M379.9 324.2C390.9 326.4 397.6 331.3 400 338.9L403.3 353.9L403.9 405.8H360.7V364.4L360.1 359.3L358.6 356L355.6 354.8H353.5L350.5 355.1L348.4 356.9L347.5 360.5V406.7C348.1 409.5 349.7 411.6 352.3 413L357.1 416.6L383.2 430.7C396.4 437.7 403.1 447.1 403.3 458.9L403.9 516.2C403.9 526.4 403.3 534.5 402.1 540.5L398.2 551.9C395.8 555.7 392.1 558.5 387.1 560.3L371.2 563L328.3 562.1L315.4 557.6C311.6 554.8 308.9 551.3 307.3 547.1L304 531.2V463.7H347.5V521.6L348.4 527.6L349.6 530.3L353.8 531.8L354.7 532.1L358 531.2L359.8 529.1L360.7 525.2V465.8L357.1 460.1L351.4 456.2L323.2 441.2C310.4 434.4 304 423.8 304 409.4V370.1C304 359.3 304.5 351.2 305.5 345.8L309.4 334.4C313.2 329.6 317.4 326.8 322 326L338.8 323.3L354.4 323L379.9 324.2ZM498.126 415.7V446.9H472.026V531.2H498.126V563H427.926V323H498.126V354.2H472.026V415.7H498.126ZM614.125 335L618.925 347L620.425 371.6V402.8L619.525 422C618.525 426.6 616.725 431.1 614.125 435.5C609.925 439.7 605.525 442.6 600.925 444.2L609.925 449.3C616.925 455.5 620.425 466.2 620.425 481.4V563H576.925L576.025 467.6C575.025 466 573.625 464.8 571.825 464L566.125 463.1H564.925L563.125 463.4V563H519.625V323H582.325L600.925 325.7C606.125 327.5 610.525 330.6 614.125 335ZM571.225 354.8L565.825 354.2H563.125V427.4L565.225 427.7H567.025L572.125 427.4L575.425 425.6L576.925 422V363.2L576.025 358.7L574.825 356L571.225 354.8ZM645.602 323H688.802V563H645.602V323ZM783.184 415.7V446.9H757.084V531.2H783.184V563H712.984V323H783.184V354.2H757.084V415.7H783.184ZM880.584 324.2C891.584 326.4 898.284 331.3 900.684 338.9L903.984 353.9L904.584 405.8H861.384V364.4L860.784 359.3L859.284 356L856.284 354.8H854.184L851.184 355.1L849.084 356.9L848.184 360.5V406.7C848.784 409.5 850.384 411.6 852.984 413L857.784 416.6L883.884 430.7C897.084 437.7 903.784 447.1 903.984 458.9L904.584 516.2C904.584 526.4 903.984 534.5 902.784 540.5L898.884 551.9C896.484 555.7 892.784 558.5 887.784 560.3L871.884 563L828.984 562.1L816.084 557.6C812.284 554.8 809.584 551.3 807.984 547.1L804.684 531.2V463.7H848.184V521.6L849.084 527.6L850.284 530.3L854.484 531.8L855.384 532.1L858.684 531.2L860.484 529.1L861.384 525.2V465.8L857.784 460.1L852.084 456.2L823.884 441.2C811.084 434.4 804.684 423.8 804.684 409.4V370.1C804.684 359.3 805.184 351.2 806.184 345.8L810.084 334.4C813.884 329.6 818.084 326.8 822.684 326L839.484 323.3L855.084 323L880.584 324.2Z" fill="#090909"/>
</svg>
