<svg width="1121" height="623" viewBox="0 0 1121 623" fill="none" xmlns="http://www.w3.org/2000/svg">
<path fill-rule="evenodd" clip-rule="evenodd" d="M167.018 104.031L167.172 106.262C171.865 108.975 174.234 111.206 178.97 114.224C191.493 122.099 206.932 136.098 204.98 184.286C208.489 194.785 210.046 215.434 213.314 222.062C219.827 234.967 224.191 243.367 226.099 255.55C226.099 255.55 227.963 274.515 230.419 275.893C243.38 278.824 239.63 280.092 241.538 282.302C243.556 284.905 251.034 284.773 251.034 291.729C253.622 295.185 255.552 298.794 256.999 302.535V51.7969C256.987 38.0744 251.521 24.9163 241.799 15.2069C232.077 5.49748 218.892 0.0289455 205.133 0H155.483C163.466 2.84358 167.983 6.16838 170.593 11.4618C176.997 12.0086 184.629 26.3359 172.742 47.5315C178.006 51.0313 173.905 56.2372 170.133 62.2962C169.036 64.243 167.83 67.699 164.299 67.4584C159.803 76.9297 154.343 86.0948 150.242 86.6635C148.992 88.1947 148.092 92.2632 149.957 94.1881C156.009 96.8785 163.378 100.597 167.018 104.031ZM256.999 336.505C253.569 345.105 247.625 352.477 239.941 357.665C232.256 362.853 223.185 365.616 213.906 365.597C207.827 365.6 201.808 364.408 196.191 362.09C190.574 359.772 185.471 356.372 181.171 352.086C176.872 347.8 173.462 342.711 171.135 337.11C168.808 331.509 167.611 325.506 167.611 319.443C167.611 297.679 182.611 279.414 202.984 274.537C197.655 261.194 186.383 239.604 183.028 232.539C179.87 225.496 172.238 181.573 170.593 172.89C170.22 170.987 150.614 184.242 150.571 185.051C149.43 186.145 135.877 221.493 135.307 223.396C135.022 224.599 135 229.302 135 229.302C135 229.302 141.667 230.133 145.505 241.748C149.299 253.341 160.856 295.623 160.856 295.623C160.856 295.623 157.742 298.86 157.61 298.685C172.238 347.507 167.128 368.528 173.685 382.855C181.931 403.023 184.168 400.376 191.23 417.35C196.317 429.708 201.976 478.334 203.862 480.477C211.756 490.474 216.011 498.261 216.011 503.882C216.011 509.569 209.322 526.303 211.756 536.058C213.248 541.811 214.015 554.651 216.691 557.101C216.691 557.101 219.147 561.935 217.941 564.1C217.59 564.822 216.888 565.938 217.217 566.835C221.559 582.146 235.639 608.307 212.853 622H213.335C225.555 620.103 236.685 613.891 244.699 604.497C252.713 595.103 257.078 583.15 256.999 570.816V336.505Z" fill="#B52532"/>
<path fill-rule="evenodd" clip-rule="evenodd" d="M198.418 561.155C190.109 553.715 195.663 550.585 195.313 547.653C189.846 524.959 171.828 511.237 181.143 503.753C178.847 496.268 174.168 486.858 174.343 486.88C146.288 470.751 122.388 444.556 118.342 440.704C113.422 435.365 105.026 429.981 103.473 425.648C96.7163 419.455 63.6539 372.513 55.9568 355.225L42.5307 353.321C36.408 328.373 16.0283 307.43 15.5254 282.416C15.3504 272.94 19.8112 252.675 21.4731 248.648C23.1131 244.534 30.9195 237.816 30.9195 237.816V231.119C1.64002 231.951 10.0587 228.953 5.02935 217.551C1.48695 209.673 4.02348 207.922 5.29175 202.451C9.22775 186.322 22.2822 161.418 27.6614 150.104C29.3232 144.392 34.9648 130.627 34.9648 130.627C56.7878 86.1582 64.944 89.4189 90.856 86.9022L92.1243 85.064C118.102 83.926 113.838 81.9783 117.49 56.9427C113.729 58.5622 112.591 49.0863 112.591 49.0863C110.536 34.8616 116.527 37.5533 119.37 37.2688C120.004 13.8527 122.388 6.45584 139.269 0H51.8022C44.9957 -2.42755e-06 38.256 1.34242 31.9682 3.95055C25.6805 6.55868 19.9679 10.3814 15.157 15.2001C10.3462 20.0189 6.53139 25.7393 3.93066 32.0343C1.32993 38.3293 -0.00572779 45.0756 1.84624e-05 51.8875V571.134C1.84624e-05 599.781 23.1787 623 51.824 623H205C187.463 613.502 197.828 595.426 198.418 561.155Z" fill="#253B73"/>
<path d="M398.5 35L403.3 47L404.8 71.6V102.8L403.9 122C402.9 126.6 401.1 131.1 398.5 135.5C394.3 139.7 389.9 142.6 385.3 144.2L394.3 149.3C401.3 155.5 404.8 166.2 404.8 181.4V263H361.3L360.4 167.6C359.4 166 358 164.8 356.2 164L350.5 163.1H349.3L347.5 163.4V263H304V23H366.7L385.3 25.7C390.5 27.5 394.9 30.6 398.5 35ZM355.6 54.8L350.2 54.2H347.5V127.4L349.6 127.7H351.4L356.5 127.4L359.8 125.6L361.3 122V63.2L360.4 58.7L359.2 56L355.6 54.8ZM500.177 115.7V146.9H474.077V231.2H500.177V263H429.977V23H500.177V54.2H474.077V115.7H500.177ZM597.576 24.8C608.176 25.6 615.176 30.7 618.576 40.1C620.776 46.5 621.876 51.8 621.876 56L622.176 105.5H578.976V59.3L577.776 56.9L574.776 55.1L571.776 54.5L568.176 55.1L565.476 57.8L566.676 229.7L569.976 230.9L571.776 231.5L575.076 230.6L577.776 228.2L578.976 225.2V169.4H572.676V138.5H622.176V261.2H603.876L597.276 247.7C590.676 256.9 580.076 261.9 565.476 262.7L560.076 263L540.876 260.3C528.076 255.1 521.676 244.3 521.676 227.9L523.176 46.7C523.176 44.3 524.476 40.5 527.076 35.3C532.276 28.3 541.376 24.5 554.376 23.9L572.676 23L597.576 24.8ZM746.395 23L744.595 239.9L740.395 251C737.595 255.6 733.795 258.4 728.995 259.4L711.895 262.7L696.595 263L670.795 261.8C666.595 261.6 662.295 260.1 657.895 257.3C653.495 254.3 650.895 251 650.095 247.4L646.195 233.3L645.895 23H689.095L691.195 229.4L694.495 231.2H696.295L699.295 230.6L701.695 229.1L702.595 23H746.395ZM840.899 231.2V263H770.699V23H814.199V231.2H840.899ZM928.72 263L925.42 211.7H907.12L904.12 263H861.52L887.02 23H945.22L971.62 263H928.72ZM917.02 70.7H915.82L908.92 179.6H923.62L917.02 70.7ZM1089.03 35L1093.83 47L1095.33 71.6V102.8L1094.43 122C1093.43 126.6 1091.63 131.1 1089.03 135.5C1084.83 139.7 1080.43 142.6 1075.83 144.2L1084.83 149.3C1091.83 155.5 1095.33 166.2 1095.33 181.4V263H1051.83L1050.93 167.6C1049.93 166 1048.53 164.8 1046.73 164L1041.03 163.1H1039.83L1038.03 163.4V263H994.527V23H1057.23L1075.83 25.7C1081.03 27.5 1085.43 30.6 1089.03 35ZM1046.13 54.8L1040.73 54.2H1038.03V127.4L1040.13 127.7H1041.93L1047.03 127.4L1050.33 125.6L1051.83 122V63.2L1050.93 58.7L1049.73 56L1046.13 54.8Z" fill="#B52532"/>
<path d="M379.9 324.2C390.9 326.4 397.6 331.3 400 338.9L403.3 353.9L403.9 405.8H360.7V364.4L360.1 359.3L358.6 356L355.6 354.8H353.5L350.5 355.1L348.4 356.9L347.5 360.5V406.7C348.1 409.5 349.7 411.6 352.3 413L357.1 416.6L383.2 430.7C396.4 437.7 403.1 447.1 403.3 458.9L403.9 516.2C403.9 526.4 403.3 534.5 402.1 540.5L398.2 551.9C395.8 555.7 392.1 558.5 387.1 560.3L371.2 563L328.3 562.1L315.4 557.6C311.6 554.8 308.9 551.3 307.3 547.1L304 531.2V463.7H347.5V521.6L348.4 527.6L349.6 530.3L353.8 531.8L354.7 532.1L358 531.2L359.8 529.1L360.7 525.2V465.8L357.1 460.1L351.4 456.2L323.2 441.2C310.4 434.4 304 423.8 304 409.4V370.1C304 359.3 304.5 351.2 305.5 345.8L309.4 334.4C313.2 329.6 317.4 326.8 322 326L338.8 323.3L354.4 323L379.9 324.2ZM498.126 415.7V446.9H472.026V531.2H498.126V563H427.926V323H498.126V354.2H472.026V415.7H498.126ZM586.825 563L583.525 511.7H565.225L562.225 563H519.625L545.125 323H603.325L629.725 563H586.825ZM575.125 370.7H573.925L567.025 479.6H581.725L575.125 370.7ZM728.533 324.2C739.533 326.4 746.233 331.3 748.633 338.9L751.933 353.9L752.533 405.8H709.333V364.4L708.733 359.3L707.233 356L704.233 354.8H702.133L699.133 355.1L697.033 356.9L696.133 360.5V406.7C696.733 409.5 698.333 411.6 700.933 413L705.733 416.6L731.833 430.7C745.033 437.7 751.733 447.1 751.933 458.9L752.533 516.2C752.533 526.4 751.933 534.5 750.733 540.5L746.833 551.9C744.433 555.7 740.733 558.5 735.733 560.3L719.833 563L676.933 562.1L664.033 557.6C660.233 554.8 657.533 551.3 655.933 547.1L652.633 531.2V463.7H696.133V521.6L697.033 527.6L698.233 530.3L702.433 531.8L703.333 532.1L706.633 531.2L708.433 529.1L709.333 525.2V465.8L705.733 460.1L700.033 456.2L671.833 441.2C659.033 434.4 652.633 423.8 652.633 409.4V370.1C652.633 359.3 653.133 351.2 654.133 345.8L658.033 334.4C661.833 329.6 666.033 326.8 670.633 326L687.433 323.3L703.033 323L728.533 324.2ZM869.859 334.4C873.859 340.6 875.859 352.6 875.859 370.4L875.259 532.4L872.259 546.8C869.259 555.6 862.459 560.4 851.859 561.2L826.359 563L808.959 562.7L793.359 559.4C789.359 558.2 785.859 555.7 782.859 551.9C779.259 548.1 777.459 544.2 777.459 540.2L776.559 352.4C777.359 347.4 778.359 342.9 779.559 338.9C782.559 330.3 789.559 325.6 800.559 324.8L826.059 323L843.459 323.9C847.659 324.1 851.459 324.6 854.859 325.4C862.259 326.8 867.259 329.8 869.859 334.4ZM832.359 361.7L831.159 357.8L828.459 355.1L825.159 354.5H824.259L820.959 356L820.059 528.2L822.159 530.6L826.359 531.5L827.859 530.9L830.559 529.7L832.359 361.7ZM1001.91 323V563H963.205L938.605 440H937.405L938.605 563H899.605V323H938.605L962.605 442.7H964.705V323H1001.91Z" fill="#090909"/>
</svg>
