<svg width="1024" height="452" viewBox="0 0 1024 452" fill="none" xmlns="http://www.w3.org/2000/svg">
<path d="M196.5 299.4C192.1 299.4 187.3 298.5 182.1 296.7C162.7 289.9 141.6 275.3 118.8 252.9C112.2 246.5 104.8 237.6 96.5998 226.2C84.5998 248.6 77.3998 264.1 74.9998 272.7C73.7998 276.7 71.3998 278.7 67.7998 278.7C63.5998 278.7 61.8998 276.5 62.6998 272.1C63.0998 269.1 65.6998 263.1 70.4998 254.1C75.2998 244.9 82.0998 232.7 90.8998 217.5C86.4998 210.9 82.9998 204.7 80.3998 198.9C76.7998 191.7 74.9998 187 74.9998 184.8C74.9998 183 76.3998 180.9 79.1998 178.5C82.1998 176.1 84.6998 174.9 86.6998 174.9C87.0998 174.9 87.4998 175.1 87.8998 175.5C90.6998 181.5 96.3998 187.2 105 192.6C120.2 165.6 129.7 143.7 133.5 126.9C133.3 126.7 133 126.6 132.6 126.6L128.4 129C126.4 130.2 124.9 130.8 123.9 130.8C123.1 130.8 122.7 130.4 122.7 129.6C124.9 125.6 127.9 121.4 131.7 117L139.2 108.3C140.8 106.7 142.4 105.3 144 104.1C145.6 102.7 147.4 101.7 149.4 101.1C150.6 100.7 151.5 100.5 152.1 100.5C154.9 100.5 156.3 102.5 156.3 106.5C156.3 110.3 154.9 115.8 152.1 123C145.9 138.8 132.9 163.6 113.1 197.4C123.3 202.4 131.9 205 138.9 205.2C140.5 205.4 142 205.5 143.4 205.5C144.8 205.5 146.2 205.5 147.6 205.5C169.2 205.5 189.1 200.6 207.3 190.8C224.9 181.6 236.5 170.9 242.1 158.7C244.9 152.5 246.3 146.4 246.3 140.4C246.3 125.8 239.2 113.4 225 103.2C210.2 92.2 190.2 86.1 165 84.9C161.6 84.7 158.2 84.6 154.8 84.6C151.4 84.4 148 84.3 144.6 84.3C104.4 84.3 72.5998 90.1 49.1998 101.7C29.3998 111.5 19.4998 122.2 19.4998 133.8C19.4998 136.6 20.1998 139 21.5998 141C22.5998 143.4 25.1998 145 29.3998 145.8C30.7998 146.2 32.1998 146.5 33.5998 146.7C34.9998 146.7 36.1998 146.7 37.1998 146.7H40.1998C42.3998 146.7 43.4998 147.1 43.4998 147.9C43.4998 149.9 41.4998 150.9 37.4998 150.9C18.2998 150.9 6.6998 148.5 2.6998 143.7C0.899805 141.5 -0.00019554 138.9 -0.00019554 135.9C-0.00019554 122.7 12.1998 110.5 36.5998 99.3C65.5998 86.3 104.6 79.8 153.6 79.8H166.2C194.6 80.4 217.9 86.5 236.1 98.1C254.5 109.9 263.7 123.8 263.7 139.8C263.7 146.4 262 153.1 258.6 159.9C250.4 175.5 236.1 188 215.7 197.4C196.3 206.4 175.1 210.9 152.1 210.9C137.3 210.9 123.1 208.4 109.5 203.4C107.3 207.6 105.4 210.8 103.8 213C109.6 221.6 115.1 229.1 120.3 235.5C125.5 241.9 130.3 247.1 134.7 251.1C164.3 278.5 186.4 292.2 201 292.2C204 292.2 207.9 291.6 212.7 290.4C215.7 289.6 218.6 287.8 221.4 285C224.2 282.4 226 281.1 226.8 281.1C229.2 281.1 230.4 282.5 230.4 285.3C230.4 287.5 226 290.3 217.2 293.7C215.8 294.3 214.4 294.9 213 295.5C211.8 296.1 210.5 296.6 209.1 297C204.7 298.6 200.5 299.4 196.5 299.4ZM98.3998 204.3C98.7998 203.5 99.2998 202.7 99.8998 201.9C100.5 201.1 101 200.3 101.4 199.5L94.7998 196.2C95.3998 198.2 96.5998 200.9 98.3998 204.3ZM254.904 272.4C249.104 272.4 244.004 271 239.604 268.2C233.804 264.2 230.904 258.4 230.904 250.8C230.904 242.6 234.404 232.6 241.404 220.8C250.804 205.4 264.604 191.9 282.804 180.3C287.404 177.3 292.004 175.8 296.604 175.8C302.604 175.8 306.904 177.7 309.504 181.5C311.104 183.7 311.904 186.2 311.904 189C311.904 197.4 305.104 206.6 291.504 216.6C287.504 219.4 283.204 222 278.604 224.4C274.204 226.6 269.404 228.2 264.204 229.2L251.304 231.9C246.504 240.5 244.104 247.7 244.104 253.5C244.104 261.5 248.804 265.5 258.204 265.5C265.604 265.5 274.604 262.4 285.204 256.2C299.404 248 311.604 236.6 321.804 222C323.404 219.6 324.904 218.4 326.304 218.4C326.904 218.4 327.204 218.8 327.204 219.6C327.204 220.6 326.504 222.1 325.104 224.1C305.704 253.3 283.804 269.3 259.404 272.1C258.604 272.3 257.804 272.4 257.004 272.4C256.404 272.4 255.704 272.4 254.904 272.4ZM254.904 226.8C260.504 226.8 267.704 224.3 276.504 219.3C288.904 212.3 297.604 203.3 302.604 192.3C304.004 189.5 304.704 187.2 304.704 185.4C304.704 183.6 304.004 182.7 302.604 182.7C300.004 182.7 294.704 185.9 286.704 192.3C280.904 197.3 275.204 202.7 269.604 208.5C264.204 214.1 259.004 220.1 254.004 226.5C253.804 226.7 254.104 226.8 254.904 226.8ZM295.99 362.4C288.39 362.4 284.59 358.6 284.59 351C284.59 344.8 287.29 337.4 292.69 328.8C296.09 323.4 300.39 317.6 305.59 311.4C310.99 305.4 317.39 299 324.79 292.2C337.99 279.4 351.99 268.3 366.79 258.9C368.59 254.5 370.59 249.1 372.79 242.7C374.99 236.3 377.49 228.7 380.29 219.9C379.69 221.3 377.49 224.2 373.69 228.6C370.09 232.8 364.79 238.7 357.79 246.3C340.99 264.9 329.09 273.3 322.09 271.5C311.29 268.7 305.89 262.7 305.89 253.5C305.89 244.5 311.19 232.7 321.79 218.1C324.79 214.1 328.49 210.1 332.89 206.1C337.29 202.1 342.29 198.2 347.89 194.4C362.09 184.6 375.49 179.7 388.09 179.7C395.89 179.7 402.99 181.7 409.39 185.7C411.19 186.9 412.09 188.4 412.09 190.2C412.09 192 411.69 192.9 410.89 192.9C410.69 192.9 410.49 192.8 410.29 192.6C406.29 188 400.79 185.7 393.79 185.7C385.59 185.7 376.39 188.8 366.19 195C355.99 201.2 346.59 209.5 337.99 219.9C324.59 236.3 317.89 249.1 317.89 258.3C317.89 262.5 319.49 265.3 322.69 266.7C327.09 268.5 338.19 259.6 355.99 240C362.99 232.2 368.99 225.2 373.99 219C379.19 212.8 383.29 207.5 386.29 203.1C387.69 201.1 389.69 200.1 392.29 200.1C397.09 200.1 399.49 201.9 399.49 205.5C399.49 206.3 399.19 207.2 398.59 208.2C397.19 212.2 395.29 217.6 392.89 224.4C390.49 231 387.59 239 384.19 248.4C390.59 244.6 395.69 242.7 399.49 242.7C401.09 242.7 401.89 243.1 401.89 243.9C401.89 245.9 399.39 247.8 394.39 249.6C392.39 250.4 390.19 251.3 387.79 252.3C385.59 253.3 383.19 254.5 380.59 255.9C366.59 290.7 349.69 319.4 329.89 342C317.89 355.6 306.59 362.4 295.99 362.4ZM302.29 356.1C306.09 356.1 310.69 353 316.09 346.8C333.89 326.8 349.49 300.6 362.89 268.2C336.29 288 316.49 308.6 303.49 330C299.09 337 296.89 343.2 296.89 348.6C296.89 353.6 298.69 356.1 302.29 356.1ZM475.636 272.1C470.436 270.9 465.536 268.1 460.936 263.7C459.936 262.7 459.436 261.2 459.436 259.2C459.436 251.2 463.036 240 470.236 225.6C464.636 232.8 460.036 238.7 456.436 243.3C452.836 247.9 450.136 251.2 448.336 253.2C440.536 262.2 434.036 267.6 428.836 269.4C427.036 270 425.236 270.3 423.436 270.3C416.036 270.3 411.736 267.3 410.536 261.3C409.736 259.5 409.336 257 409.336 253.8C409.336 244 415.836 225.3 428.836 197.7C431.836 191.3 435.236 188.1 439.036 188.1C441.836 188.1 444.536 190.2 447.136 194.4L434.536 219.3C430.136 227.9 426.736 235.3 424.336 241.5C422.136 247.7 421.036 252.5 421.036 255.9C421.036 260.7 422.636 263.1 425.836 263.1C431.036 263.1 439.436 256.4 451.036 243C457.236 235.8 463.236 227.8 469.036 219C475.036 210.2 480.936 200.6 486.736 190.2C487.936 187.8 489.736 186.6 492.136 186.6C494.136 186.6 496.036 187.5 497.836 189.3C499.836 190.9 500.636 192.1 500.236 192.9C480.836 233.1 471.136 256.2 471.136 262.2C471.136 264.6 471.936 265.6 473.536 265.2C489.736 263.8 507.136 249.5 525.736 222.3C526.736 220.5 527.836 219.5 529.036 219.3C530.236 218.9 530.836 219.3 530.836 220.5C530.836 221.3 530.436 222.4 529.636 223.8C520.836 237.6 510.336 249.7 498.136 260.1C487.336 269.1 479.836 273.1 475.636 272.1ZM539.182 275.7C524.982 272.7 517.882 266.1 517.882 255.9C517.882 249.9 519.782 241.2 523.582 229.8C526.382 221.2 530.182 211.4 534.982 200.4C539.982 189.2 546.182 176.8 553.582 163.2C571.382 129.8 584.882 112.4 594.082 111C594.882 110.8 596.182 110.7 597.982 110.7C607.782 110.7 612.682 115.3 612.682 124.5C612.682 137.1 602.082 155 580.882 178.2C569.082 191.4 556.082 203.1 541.882 213.3C533.482 233.3 529.282 248 529.282 257.4C529.282 263.6 531.182 267.3 534.982 268.5C537.982 269.3 544.982 265.7 555.982 257.7C568.582 248.5 579.382 237.3 588.382 224.1C589.782 222.1 591.082 221.1 592.282 221.1C593.082 221.1 593.482 221.5 593.482 222.3C593.482 223.1 592.982 224.3 591.982 225.9C584.382 238.1 574.482 249.7 562.282 260.7C550.482 271.5 542.782 276.5 539.182 275.7ZM545.182 205.2C552.382 199.8 558.382 194.4 563.182 189L580.882 168C597.282 148.6 605.482 134.3 605.482 125.1C605.482 123.3 604.482 122.4 602.482 122.4C599.082 122.4 593.682 127.3 586.282 137.1C584.082 140.3 581.782 143.4 579.382 146.4C576.982 149.4 574.582 152.5 572.182 155.7C569.182 160.1 566.382 164.4 563.782 168.6C561.382 172.8 559.082 177.1 556.882 181.5C556.282 182.3 554.982 184.7 552.982 188.7C551.182 192.7 548.582 198.2 545.182 205.2ZM646.319 273.3C642.319 273.3 638.619 272 635.219 269.4C632.019 266.8 630.119 264.3 629.519 261.9C628.919 259.1 632.619 249.1 640.619 231.9L633.719 241.8C630.719 246.2 627.719 250.1 624.719 253.5C621.719 256.9 618.919 259.9 616.319 262.5C608.719 269.7 602.319 272.7 597.119 271.5C585.119 268.7 579.119 261.9 579.119 251.1C579.119 242.5 583.219 231.5 591.419 218.1C594.019 214.1 597.319 210.1 601.319 206.1C605.319 202.1 609.919 198.2 615.119 194.4C628.519 184.6 641.419 179.7 653.819 179.7C661.419 179.7 668.619 181.7 675.419 185.7C677.619 187.3 678.719 189 678.719 190.8C678.719 192.2 678.319 192.9 677.519 192.9C677.319 192.9 677.119 192.8 676.919 192.6C672.719 188 667.119 185.7 660.119 185.7C651.919 185.7 643.019 188.8 633.419 195C623.819 201.2 615.219 209.5 607.619 219.9C596.819 234.9 591.419 247.1 591.419 256.5C591.419 261.9 593.319 265.3 597.119 266.7C601.919 268.7 612.119 259.8 627.719 240C634.119 232.2 639.419 225.2 643.619 219C648.019 212.8 651.519 207.5 654.119 203.1C655.319 200.9 657.519 199.8 660.719 199.8C666.719 199.8 669.719 201.6 669.719 205.2C669.719 205.8 669.619 206.2 669.419 206.4C652.019 234 643.319 252.7 643.319 262.5C643.319 264.9 644.019 266.2 645.419 266.4C649.619 267.6 656.619 264.5 666.419 257.1C678.219 248.3 689.319 236.6 699.719 222C701.919 219 703.919 217.5 705.719 217.5C706.319 217.5 706.619 217.7 706.619 218.1C706.619 219.1 705.719 221 703.919 223.8C699.719 230.4 695.019 236.6 689.819 242.4C684.819 248.2 679.219 253.6 673.019 258.6C664.219 266 657.019 270.6 651.419 272.4C650.019 273 648.319 273.3 646.319 273.3ZM678.825 273.6C676.025 273.6 674.625 272.7 674.625 270.9C674.625 270.7 674.825 270 675.225 268.8C684.625 250.8 695.725 225.1 708.525 191.7C709.925 188.1 712.325 185 715.725 182.4C719.125 179.6 722.025 178.2 724.425 178.2C727.025 178.2 728.125 179.6 727.725 182.4C725.725 186.6 723.325 192 720.525 198.6C717.725 205.2 714.425 212.9 710.625 221.7C716.225 214.3 724.525 206 735.525 196.8C741.125 192.2 745.925 188.4 749.925 185.4C754.125 182.4 757.625 180.2 760.425 178.8C763.225 177.4 766.325 176.7 769.725 176.7C773.725 176.7 777.125 177.7 779.925 179.7C782.725 181.7 784.125 184 784.125 186.6C784.125 188.2 783.325 190 781.725 192C780.325 193.8 778.825 194.7 777.225 194.7C776.425 194.7 774.725 193.9 772.125 192.3C769.725 190.5 767.125 189.6 764.325 189.6C761.325 189.6 757.825 190.5 753.825 192.3C728.425 203.7 706.525 229.4 688.125 269.4C686.925 272.2 683.825 273.6 678.825 273.6Z" fill="#253B73"/>
<path d="M524.05 362.25C523.383 362.25 523.05 362 523.05 361.5C523.05 359.333 528.716 355.333 540.05 349.5C542.883 348.167 545.466 346.833 547.8 345.5C550.133 344 552.133 342.667 553.8 341.5C563.966 334 569.05 327.5 569.05 322C569.05 317.833 564.966 315.75 556.8 315.75C537.8 315.417 528.3 311.25 528.3 303.25C528.3 299.75 529.8 296.417 532.8 293.25C536.3 289.25 542.133 285.417 550.3 281.75C559.133 277.75 567.216 275.75 574.55 275.75C581.05 275.75 585.966 277.333 589.3 280.5C590.8 282 591.55 283.833 591.55 286C591.55 288.333 590.8 290.417 589.3 292.25C587.8 294.083 586.133 295 584.3 295C580.966 295 579.133 292.75 578.8 288.25C578.8 285.083 578.3 283.25 577.3 282.75C576.3 282.25 573.633 282 569.3 282C563.8 282 557.633 283.833 550.8 287.5C542.633 291.667 538.8 296.667 539.3 302.5C539.633 305.833 545.966 307.5 558.3 307.5C575.133 307.5 583.55 311.583 583.55 319.75C583.55 328.583 576.3 337.417 561.8 346.25C552.633 351.917 541.466 356.917 528.3 361.25C526.466 361.917 525.05 362.25 524.05 362.25ZM616.39 354C611.556 354 607.306 352.833 603.64 350.5C598.806 347.167 596.39 342.333 596.39 336C596.39 329.167 599.306 320.833 605.14 311C612.973 298.167 624.473 286.917 639.64 277.25C643.473 274.75 647.306 273.5 651.14 273.5C656.14 273.5 659.723 275.083 661.89 278.25C663.223 280.083 663.89 282.167 663.89 284.5C663.89 291.5 658.223 299.167 646.89 307.5C643.556 309.833 639.973 312 636.14 314C632.473 315.833 628.473 317.167 624.14 318L613.39 320.25C609.39 327.417 607.39 333.417 607.39 338.25C607.39 344.917 611.306 348.25 619.14 348.25C625.306 348.25 632.806 345.667 641.64 340.5C653.473 333.667 663.64 324.167 672.14 312C673.473 310 674.723 309 675.89 309C676.39 309 676.64 309.333 676.64 310C676.64 310.833 676.056 312.083 674.89 313.75C658.723 338.083 640.473 351.417 620.14 353.75C619.473 353.917 618.806 354 618.14 354C617.64 354 617.056 354 616.39 354ZM616.39 316C621.056 316 627.056 313.917 634.39 309.75C644.723 303.917 651.973 296.417 656.14 287.25C657.306 284.917 657.89 283 657.89 281.5C657.89 280 657.306 279.25 656.14 279.25C653.973 279.25 649.556 281.917 642.89 287.25C638.056 291.417 633.306 295.917 628.64 300.75C624.14 305.417 619.806 310.417 615.64 315.75C615.473 315.917 615.723 316 616.39 316ZM721.378 354.75C718.045 354.75 714.961 353.667 712.128 351.5C709.461 349.333 707.878 347.25 707.378 345.25C706.878 342.917 709.961 334.583 716.628 320.25L710.878 328.5C708.378 332.167 705.878 335.417 703.378 338.25C700.878 341.083 698.545 343.583 696.378 345.75C690.045 351.75 684.711 354.25 680.378 353.25C670.378 350.917 665.378 345.25 665.378 336.25C665.378 329.083 668.795 319.917 675.628 308.75C677.795 305.417 680.545 302.083 683.878 298.75C687.211 295.417 691.045 292.167 695.378 289C706.545 280.833 717.295 276.75 727.628 276.75C733.961 276.75 739.961 278.417 745.628 281.75C747.461 283.083 748.378 284.5 748.378 286C748.378 287.167 748.045 287.75 747.378 287.75C747.211 287.75 747.045 287.667 746.878 287.5C743.378 283.667 738.711 281.75 732.878 281.75C726.045 281.75 718.628 284.333 710.628 289.5C702.628 294.667 695.461 301.583 689.128 310.25C680.128 322.75 675.628 332.917 675.628 340.75C675.628 345.25 677.211 348.083 680.378 349.25C684.378 350.917 692.878 343.5 705.878 327C711.211 320.5 715.628 314.667 719.128 309.5C722.795 304.333 725.711 299.917 727.878 296.25C728.878 294.417 730.711 293.5 733.378 293.5C738.378 293.5 740.878 295 740.878 298C740.878 298.5 740.795 298.833 740.628 299C726.128 322 718.878 337.583 718.878 345.75C718.878 347.75 719.461 348.833 720.628 349C724.128 350 729.961 347.417 738.128 341.25C747.961 333.917 757.211 324.167 765.878 312C767.711 309.5 769.378 308.25 770.878 308.25C771.378 308.25 771.628 308.417 771.628 308.75C771.628 309.583 770.878 311.167 769.378 313.5C765.878 319 761.961 324.167 757.628 329C753.461 333.833 748.795 338.333 743.628 342.5C736.295 348.667 730.295 352.5 725.628 354C724.461 354.5 723.045 354.75 721.378 354.75ZM756.716 362.25C756.049 362.25 755.716 362 755.716 361.5C755.716 359.333 761.382 355.333 772.716 349.5C775.549 348.167 778.132 346.833 780.466 345.5C782.799 344 784.799 342.667 786.466 341.5C796.632 334 801.716 327.5 801.716 322C801.716 317.833 797.632 315.75 789.466 315.75C770.466 315.417 760.966 311.25 760.966 303.25C760.966 299.75 762.466 296.417 765.466 293.25C768.966 289.25 774.799 285.417 782.966 281.75C791.799 277.75 799.882 275.75 807.216 275.75C813.716 275.75 818.632 277.333 821.966 280.5C823.466 282 824.216 283.833 824.216 286C824.216 288.333 823.466 290.417 821.966 292.25C820.466 294.083 818.799 295 816.966 295C813.632 295 811.799 292.75 811.466 288.25C811.466 285.083 810.966 283.25 809.966 282.75C808.966 282.25 806.299 282 801.966 282C796.466 282 790.299 283.833 783.466 287.5C775.299 291.667 771.466 296.667 771.966 302.5C772.299 305.833 778.632 307.5 790.966 307.5C807.799 307.5 816.216 311.583 816.216 319.75C816.216 328.583 808.966 337.417 794.466 346.25C785.299 351.917 774.132 356.917 760.966 361.25C759.132 361.917 757.716 362.25 756.716 362.25ZM853.306 354.75C841.139 354.75 835.056 347.25 835.056 332.25C835.056 317.25 841.056 302.917 853.056 289.25C853.222 289.083 853.139 288.5 852.806 287.5C852.472 286.333 852.306 285.5 852.306 285C852.306 284 852.639 283.25 853.306 282.75C859.139 278.083 865.972 275.75 873.806 275.75C875.972 275.75 877.722 276.167 879.056 277C880.722 277.667 882.306 278.333 883.806 279C885.306 279.667 886.722 280.417 888.056 281.25C894.389 285.083 898.806 289.083 901.306 293.25C905.472 293.083 908.972 292.917 911.806 292.75C914.639 292.583 916.806 292.417 918.306 292.25H919.306C920.806 292.25 921.556 292.833 921.556 294C921.556 294.333 921.222 294.583 920.556 294.75C918.722 295.083 916.306 295.5 913.306 296C910.472 296.5 906.972 297 902.806 297.5C903.306 298.667 903.556 300 903.556 301.5C903.556 302.667 903.472 303.5 903.306 304C900.806 317.5 894.222 329.333 883.556 339.5C873.222 349.667 863.139 354.75 853.306 354.75ZM895.306 293.25C892.639 289.083 887.389 287 879.556 287C873.556 287 869.639 287.667 867.806 289C867.306 289.167 866.806 289.5 866.306 290C865.806 290.5 865.222 291.083 864.556 291.75C873.889 292.917 884.139 293.417 895.306 293.25ZM854.056 350.75C861.389 350.75 869.806 345.5 879.306 335C888.972 324.5 894.722 314.333 896.556 304.5C896.722 303.667 896.806 303 896.806 302.5C896.972 301.833 897.056 301.25 897.056 300.75C897.056 299.75 896.889 298.75 896.556 297.75C893.389 297.917 890.139 298 886.806 298C883.472 298 880.139 298 876.806 298C873.472 298 870.389 298 867.556 298C864.889 298 862.472 297.917 860.306 297.75C853.639 306.75 849.472 314 847.806 319.5C845.806 325.667 844.806 331.583 844.806 337.25C844.806 346.25 847.889 350.75 854.056 350.75ZM966.925 354.5C963.258 354.833 959.758 353.917 956.425 351.75C953.091 349.417 951.425 346.833 951.425 344C951.425 338.833 956.341 328.917 966.175 314.25C977.008 298.083 982.425 288.75 982.425 286.25C982.425 284.75 981.675 283.917 980.175 283.75C975.341 284.083 967.841 288.917 957.675 298.25C943.175 311.75 929.591 330.083 916.925 353.25C916.591 353.583 915.675 353.75 914.175 353.75C907.008 353.75 903.758 352.75 904.425 350.75C906.258 345.917 909.425 338.667 913.925 329C918.591 319.333 924.591 307.167 931.925 292.5C936.925 282.667 942.008 277.75 947.175 277.75C948.841 277.75 949.925 278.167 950.425 279C950.758 279.5 947.258 286.667 939.925 300.5C936.425 307.167 933.675 312.5 931.675 316.5C929.675 320.333 928.258 322.833 927.425 324C930.258 321.167 933.591 317.667 937.425 313.5C941.425 309.333 946.008 304.5 951.175 299C959.341 289.833 968.341 283 978.175 278.5C980.508 277.5 983.175 277 986.175 277C993.008 277 996.425 279.5 996.425 284.5C996.425 287.667 994.841 291.417 991.675 295.75C973.675 320.917 964.675 337.833 964.675 346.5C964.675 348.333 965.258 349.5 966.425 350C969.091 351.167 975.675 348.417 986.175 341.75C998.508 333.75 1009.01 323.833 1017.67 312C1019.51 309.5 1021.17 308.25 1022.67 308.25C1023.17 308.25 1023.42 308.417 1023.42 308.75C1023.42 309.583 1022.67 311.167 1021.17 313.5C1013.84 325 1003.67 335.167 990.675 344C979.008 351.667 971.091 355.167 966.925 354.5Z" fill="#253B73"/>
</svg>
