<svg width="668" height="390" viewBox="0 0 668 390" fill="none" xmlns="http://www.w3.org/2000/svg">
<path d="M90.3 201C68.7 198.6 51.9 193.9 39.9 186.9C29.3 180.3 24 172.4 24 163.2C24 146.2 39 130.1 69 114.9C85.4 106.7 103.7 100.2 123.9 95.4C144.1 90.4 166.3 87.2 190.5 85.8C198.1 85.4 205.6 85.1 213 84.9C220.6 84.7 228.1 84.6 235.5 84.6C254.5 84.6 271.7 85.3 287.1 86.7C302.7 87.9 316.6 89.8 328.8 92.4C355 98.2 368.1 106.2 368.1 116.4C368.1 119 367.2 121.8 365.4 124.8C362.4 129.4 359.9 131.7 357.9 131.7C357.3 131.7 357 131.4 357 130.8C357 130 357.8 127.8 359.4 124.2C360.2 122.8 360.6 121.5 360.6 120.3C360.6 111.5 344.2 104.8 311.4 100.2C299.2 98.6 285.5 97.4 270.3 96.6C255.1 95.8 238.4 95.4 220.2 95.4C215 95.4 209.9 95.5 204.9 95.7C200.1 95.7 195.5 95.8 191.1 96C150.3 97.6 114.6 106.1 84 121.5C54.6 136.1 39.9 151.3 39.9 167.1C39.9 183.5 57.7 193.6 93.3 197.4C95.9 197.6 97.2 198.2 97.2 199.2C97.2 201 94.9 201.6 90.3 201ZM101.1 292.8C92.9 292.8 86.7 289.5 82.5 282.9C80.9 280.3 80.1 278.2 80.1 276.6C80.1 275 80.8 274.2 82.2 274.2C83.4 274.2 86.3 276.5 90.9 281.1C95.7 285.9 100.5 288.3 105.3 288.3C113.7 288.3 123.2 281.2 133.8 267C143.6 253.8 157.5 229.4 175.5 193.8C185.5 173.8 193.5 158.4 199.5 147.6C205.5 136.6 209.3 130.1 210.9 128.1C213.7 125.1 216.5 123.6 219.3 123.6C221.7 123.6 225.9 125 231.9 127.8C232.9 128.4 233.4 129.1 233.4 129.9C233.4 131.1 232.7 132.2 231.3 133.2C229.9 134.2 228.7 134.6 227.7 134.4C223.5 133.8 209.9 155.7 186.9 200.1C179.9 213.7 173.1 226 166.5 237C159.9 248 153.6 257.6 147.6 265.8C142.6 272.8 135.5 279.1 126.3 284.7C117.3 290.1 108.9 292.8 101.1 292.8ZM260.358 272.4C254.558 272.4 249.458 271 245.058 268.2C239.258 264.2 236.358 258.4 236.358 250.8C236.358 242.6 239.858 232.6 246.858 220.8C256.258 205.4 270.058 191.9 288.258 180.3C292.858 177.3 297.458 175.8 302.058 175.8C308.058 175.8 312.358 177.7 314.958 181.5C316.558 183.7 317.358 186.2 317.358 189C317.358 197.4 310.558 206.6 296.958 216.6C292.958 219.4 288.658 222 284.058 224.4C279.658 226.6 274.858 228.2 269.658 229.2L256.758 231.9C251.958 240.5 249.558 247.7 249.558 253.5C249.558 261.5 254.258 265.5 263.658 265.5C271.058 265.5 280.058 262.4 290.658 256.2C304.858 248 317.058 236.6 327.258 222C328.858 219.6 330.358 218.4 331.758 218.4C332.358 218.4 332.658 218.8 332.658 219.6C332.658 220.6 331.958 222.1 330.558 224.1C311.158 253.3 289.258 269.3 264.858 272.1C264.058 272.3 263.258 272.4 262.458 272.4C261.858 272.4 261.158 272.4 260.358 272.4ZM260.358 226.8C265.958 226.8 273.158 224.3 281.958 219.3C294.358 212.3 303.058 203.3 308.058 192.3C309.458 189.5 310.158 187.2 310.158 185.4C310.158 183.6 309.458 182.7 308.058 182.7C305.458 182.7 300.158 185.9 292.158 192.3C286.358 197.3 280.658 202.7 275.058 208.5C269.658 214.1 264.458 220.1 259.458 226.5C259.258 226.7 259.558 226.8 260.358 226.8ZM386.344 273.3C382.344 273.3 378.644 272 375.244 269.4C372.044 266.8 370.144 264.3 369.544 261.9C368.944 259.1 372.644 249.1 380.644 231.9L373.744 241.8C370.744 246.2 367.744 250.1 364.744 253.5C361.744 256.9 358.944 259.9 356.344 262.5C348.744 269.7 342.344 272.7 337.144 271.5C325.144 268.7 319.144 261.9 319.144 251.1C319.144 242.5 323.244 231.5 331.444 218.1C334.044 214.1 337.344 210.1 341.344 206.1C345.344 202.1 349.944 198.2 355.144 194.4C368.544 184.6 381.444 179.7 393.844 179.7C401.444 179.7 408.644 181.7 415.444 185.7C417.644 187.3 418.744 189 418.744 190.8C418.744 192.2 418.344 192.9 417.544 192.9C417.344 192.9 417.144 192.8 416.944 192.6C412.744 188 407.144 185.7 400.144 185.7C391.944 185.7 383.044 188.8 373.444 195C363.844 201.2 355.244 209.5 347.644 219.9C336.844 234.9 331.444 247.1 331.444 256.5C331.444 261.9 333.344 265.3 337.144 266.7C341.944 268.7 352.144 259.8 367.744 240C374.144 232.2 379.444 225.2 383.644 219C388.044 212.8 391.544 207.5 394.144 203.1C395.344 200.9 397.544 199.8 400.744 199.8C406.744 199.8 409.744 201.6 409.744 205.2C409.744 205.8 409.644 206.2 409.444 206.4C392.044 234 383.344 252.7 383.344 262.5C383.344 264.9 384.044 266.2 385.444 266.4C389.644 267.6 396.644 264.5 406.444 257.1C418.244 248.3 429.344 236.6 439.744 222C441.944 219 443.944 217.5 445.744 217.5C446.344 217.5 446.644 217.7 446.644 218.1C446.644 219.1 445.744 221 443.944 223.8C439.744 230.4 435.044 236.6 429.844 242.4C424.844 248.2 419.244 253.6 413.044 258.6C404.244 266 397.044 270.6 391.444 272.4C390.044 273 388.344 273.3 386.344 273.3ZM536.749 273C532.349 273.4 528.149 272.3 524.149 269.7C520.149 266.9 518.149 263.8 518.149 260.4C518.149 254.2 524.049 242.3 535.849 224.7C548.849 205.3 555.349 194.1 555.349 191.1C555.349 189.3 554.449 188.3 552.649 188.1C546.849 188.5 539.049 193.1 529.249 201.9C514.249 215.7 499.149 236.5 483.949 264.3C483.349 265.3 481.049 265.8 477.049 265.8C472.649 265.8 470.449 264 470.449 260.4C470.449 254.2 476.349 242.3 488.149 224.7C501.149 205.3 507.649 194.1 507.649 191.1C507.649 189.3 506.749 188.3 504.949 188.1C499.149 188.5 490.149 194.3 477.949 205.5C460.349 221.9 444.149 243.7 429.349 270.9C429.149 271.3 428.649 271.6 427.849 271.8C427.249 272 426.049 272.1 424.249 272.1C416.649 272.1 413.249 270.9 414.049 268.5C416.249 262.7 420.049 254 425.449 242.4C431.049 230.8 438.249 216.2 447.049 198.6C453.049 186.8 459.149 180.9 465.349 180.9C467.349 180.9 468.649 181.4 469.249 182.4C469.649 183 465.449 191.6 456.649 208.2C452.449 216.2 449.149 222.6 446.749 227.4C444.349 232 442.649 235 441.649 236.4C445.049 233 449.049 228.8 453.649 223.8C458.449 218.8 463.949 213 470.149 206.4C479.949 195.4 490.749 187.2 502.549 181.8C504.949 180.8 507.449 180.3 510.049 180.3C518.649 180.3 522.949 184 522.949 191.4C522.949 195.6 521.249 200.6 517.849 206.4C527.049 195.6 537.849 187.4 550.249 181.8C553.049 180.6 556.249 180 559.849 180C568.049 180 572.149 183 572.149 189C572.149 192.8 570.249 197.3 566.449 202.5C544.849 232.7 534.049 253 534.049 263.4C534.049 265.6 534.749 267 536.149 267.6C539.149 268.8 544.849 267 553.249 262.2C563.849 256 573.649 247.3 582.649 236.1C583.849 234.7 585.049 234 586.249 234C587.049 234 587.449 234.3 587.449 234.9C587.449 235.7 586.849 236.9 585.649 238.5C575.649 251.3 565.749 260.7 555.949 266.7C547.949 271.7 541.549 273.8 536.749 273ZM586.952 282.3C586.152 282.3 585.752 282 585.752 281.4C585.752 278.8 592.552 274 606.152 267C609.552 265.4 612.652 263.8 615.452 262.2C618.252 260.4 620.652 258.8 622.652 257.4C634.852 248.4 640.952 240.6 640.952 234C640.952 229 636.052 226.5 626.252 226.5C603.452 226.1 592.052 221.1 592.052 211.5C592.052 207.3 593.852 203.3 597.452 199.5C601.652 194.7 608.652 190.1 618.452 185.7C629.052 180.9 638.752 178.5 647.552 178.5C655.352 178.5 661.252 180.4 665.252 184.2C667.052 186 667.952 188.2 667.952 190.8C667.952 193.6 667.052 196.1 665.252 198.3C663.452 200.5 661.452 201.6 659.252 201.6C655.252 201.6 653.052 198.9 652.652 193.5C652.652 189.7 652.052 187.5 650.852 186.9C649.652 186.3 646.452 186 641.252 186C634.652 186 627.252 188.2 619.052 192.6C609.252 197.6 604.652 203.6 605.252 210.6C605.652 214.6 613.252 216.6 628.052 216.6C648.252 216.6 658.352 221.5 658.352 231.3C658.352 241.9 649.652 252.5 632.252 263.1C621.252 269.9 607.852 275.9 592.052 281.1C589.852 281.9 588.152 282.3 586.952 282.3Z" fill="#253B73"/>
</svg>
