<svg width="1114" height="600" viewBox="0 0 1114 600" fill="none" xmlns="http://www.w3.org/2000/svg">
<path d="M85.2 99L72.9 240H27L0 -3.57628e-06H42.3L52.5 141.3H54.6L66 -3.57628e-06H104.1L118.5 141.3H120.3L128.4 -3.57628e-06H169.8L145.5 240H99.9L87.3 99H85.2ZM263.559 92.7V123.9H237.459V208.2H263.559V240H193.359V-3.57628e-06H263.559V31.2H237.459V92.7H263.559ZM360.959 1.19998C371.959 3.39999 378.659 8.29999 381.059 15.9L384.359 30.9L384.959 82.8H341.759V41.4L341.159 36.3L339.659 33L336.659 31.8H334.559L331.559 32.1L329.459 33.9L328.559 37.5V83.7C329.159 86.5 330.759 88.6 333.359 90L338.159 93.6L364.259 107.7C377.459 114.7 384.159 124.1 384.359 135.9L384.959 193.2C384.959 203.4 384.359 211.5 383.159 217.5L379.259 228.9C376.859 232.7 373.159 235.5 368.159 237.3L352.259 240L309.359 239.1L296.459 234.6C292.659 231.8 289.959 228.3 288.359 224.1L285.059 208.2V140.7H328.559V198.6L329.459 204.6L330.659 207.3L334.859 208.8L335.759 209.1L339.059 208.2L340.859 206.1L341.759 202.2V142.8L338.159 137.1L332.459 133.2L304.259 118.2C291.459 111.4 285.059 100.8 285.059 86.4V47.1C285.059 36.3 285.559 28.2 286.559 22.8L290.459 11.4C294.259 6.59999 298.459 3.8 303.059 2.99999L319.859 0.299993L335.459 -3.57628e-06L360.959 1.19998ZM474.684 31.8V240H430.584V31.8H408.984V-3.57628e-06H496.284V31.8H474.684ZM589.048 92.7V123.9H562.948V208.2H589.048V240H518.848V-3.57628e-06H589.048V31.2H562.948V92.7H589.048ZM705.047 12L709.847 24L711.347 48.6V79.8L710.447 99C709.447 103.6 707.647 108.1 705.047 112.5C700.847 116.7 696.447 119.6 691.847 121.2L700.847 126.3C707.847 132.5 711.347 143.2 711.347 158.4V240H667.847L666.947 144.6C665.947 143 664.547 141.8 662.747 141L657.047 140.1H655.847L654.047 140.4V240H610.547V-3.57628e-06H673.247L691.847 2.7C697.047 4.49999 701.447 7.59998 705.047 12ZM662.147 31.8L656.747 31.2H654.047V104.4L656.147 104.7H657.947L663.047 104.4L666.347 102.6L667.847 99V40.2L666.947 35.7L665.747 33L662.147 31.8ZM838.823 -3.57628e-06V240H800.123L775.523 117H774.323L775.523 240H736.523V-3.57628e-06H775.523L799.523 119.7H801.623V-3.57628e-06H838.823Z" fill="#B52532"/>
<path d="M49.5 330.9L46.2 331.8L44.1 333.9L45 506.4L48 508.2H50.1L52.8 507.9L55.5 505.5L56.4 437.7H99.9V492.3L98.1 516.6C97.9 519.2 96.6 523 94.2 528C91.4 531.8 87.4 534.6 82.2 536.4L65.4 539.7L50.4 540L24.9 538.8L12.6 534.6C8 532 4.9 528.7 3.3 524.7L0.3 510.3L0 346.8C0 341.2 0.2 335.7 0.6 330.3C1.2 322.5 2.3 316.9 3.9 313.5C6.3 308.5 10.5 304.9 16.5 302.7L31.8 300L75 300.9C79.2 300.9 83.3 302.2 87.3 304.8C91.5 307.4 94.3 310.7 95.7 314.7L99.3 329.1L99.9 381.6H56.4V341.4L55.8 335.7L54.3 332.7L50.7 331.2L49.5 330.9ZM215.761 311.4C219.761 317.6 221.761 329.6 221.761 347.4L221.161 509.4L218.161 523.8C215.161 532.6 208.361 537.4 197.761 538.2L172.261 540L154.861 539.7L139.261 536.4C135.261 535.2 131.761 532.7 128.761 528.9C125.161 525.1 123.361 521.2 123.361 517.2L122.461 329.4C123.261 324.4 124.261 319.9 125.461 315.9C128.461 307.3 135.461 302.6 146.461 301.8L171.961 300L189.361 300.9C193.561 301.1 197.361 301.6 200.761 302.4C208.161 303.8 213.161 306.8 215.761 311.4ZM178.261 338.7L177.061 334.8L174.361 332.1L171.061 331.5H170.161L166.861 333L165.961 505.2L168.061 507.6L172.261 508.5L173.761 507.9L176.461 506.7L178.261 338.7ZM347.808 300V540H309.108L284.508 417H283.308L284.508 540H245.508V300H284.508L308.508 419.7H310.608V300H347.808ZM442.87 392.7V423.9H416.17V540H372.07V300H442.87V331.2H416.17V392.7H442.87ZM533.677 392.7V423.9H507.577V508.2H533.677V540H463.477V300H533.677V331.2H507.577V392.7H533.677ZM649.676 312L654.476 324L655.976 348.6V379.8L655.076 399C654.076 403.6 652.276 408.1 649.676 412.5C645.476 416.7 641.076 419.6 636.476 421.2L645.476 426.3C652.476 432.5 655.976 443.2 655.976 458.4V540H612.476L611.576 444.6C610.576 443 609.176 441.8 607.376 441L601.676 440.1H600.476L598.676 440.4V540H555.176V300H617.876L636.476 302.7C641.676 304.5 646.076 307.6 649.676 312ZM606.776 331.8L601.376 331.2H598.676V404.4L600.776 404.7H602.576L607.676 404.4L610.976 402.6L612.476 399V340.2L611.576 335.7L610.376 333L606.776 331.8ZM751.352 392.7V423.9H725.252V508.2H751.352V540H681.152V300H751.352V331.2H725.252V392.7H751.352ZM875.152 300V540H836.452L811.852 417H810.652L811.852 540H772.852V300H811.852L835.852 419.7H837.952V300H875.152ZM948.914 330.9L945.614 331.8L943.514 333.9L944.414 506.4L947.414 508.2H949.514L952.214 507.9L954.914 505.5L955.814 437.7H999.314V492.3L997.514 516.6C997.314 519.2 996.014 523 993.614 528C990.814 531.8 986.814 534.6 981.614 536.4L964.814 539.7L949.814 540L924.314 538.8L912.014 534.6C907.414 532 904.314 528.7 902.714 524.7L899.714 510.3L899.414 346.8C899.414 341.2 899.614 335.7 900.014 330.3C900.614 322.5 901.714 316.9 903.314 313.5C905.714 308.5 909.914 304.9 915.914 302.7L931.214 300L974.414 300.9C978.614 300.9 982.714 302.2 986.714 304.8C990.914 307.4 993.714 310.7 995.114 314.7L998.714 329.1L999.314 381.6H955.814V341.4L955.214 335.7L953.714 332.7L950.114 331.2L948.914 330.9ZM1092.08 392.7V423.9H1065.97V508.2H1092.08V540H1021.88V300H1092.08V331.2H1065.97V392.7H1092.08Z" fill="black"/>
</svg>
