<?xml version="1.0" encoding="UTF-8" standalone="no"?>
<!-- Created with Inkscape (http://www.inkscape.org/) -->

<svg
   width="111.55462mm"
   height="115.70692mm"
   viewBox="0 0 111.55462 115.70694"
   version="1.1"
   id="svg842"
   inkscape:version="1.3.2 (091e20e, 2023-11-25, custom)"
   sodipodi:docname="NBA_Western_Conference_1993.svg"
   xmlns:inkscape="http://www.inkscape.org/namespaces/inkscape"
   xmlns:sodipodi="http://sodipodi.sourceforge.net/DTD/sodipodi-0.dtd"
   xmlns="http://www.w3.org/2000/svg"
   xmlns:svg="http://www.w3.org/2000/svg">
  <sodipodi:namedview
     id="namedview844"
     pagecolor="#ffffff"
     bordercolor="#000000"
     borderopacity="0.25"
     inkscape:showpageshadow="2"
     inkscape:pageopacity="0.0"
     inkscape:pagecheckerboard="0"
     inkscape:deskcolor="#d1d1d1"
     inkscape:document-units="mm"
     showgrid="false"
     inkscape:zoom="1"
     inkscape:cx="211"
     inkscape:cy="219"
     inkscape:window-width="1920"
     inkscape:window-height="1009"
     inkscape:window-x="-8"
     inkscape:window-y="-8"
     inkscape:window-maximized="1"
     inkscape:current-layer="layer1" />
  <defs
     id="defs839" />
  <g
     inkscape:label="Layer 1"
     inkscape:groupmode="layer"
     id="layer1"
     transform="translate(-26.264914,-73.987313)">
    <g
       id="g1">
      <path
         id="path4134"
         style="fill:#ed174c;fill-opacity:1;fill-rule:nonzero;stroke:none;stroke-width:1.43057"
         d="m 82.016029,82.486866 c -29.576295,0 -53.552421,23.999124 -53.552421,53.604204 0,29.60365 23.976126,53.60317 53.552421,53.60317 29.576311,0 53.552421,-23.99952 53.552421,-53.60317 0,-29.60508 -23.97611,-53.604204 -53.552421,-53.604204 z"
         sodipodi:nodetypes="ccccc" />
      <path
         id="path761"
         style="fill:#000000;fill-opacity:1;fill-rule:nonzero;stroke:none;stroke-width:1.43057"
         d="m 82.01603,83.691421 c -28.911675,0 -52.349024,23.459839 -52.349024,52.399649 0,28.93841 23.437349,52.39863 52.349024,52.39863 28.91169,0 52.34903,-23.46022 52.34903,-52.39863 0,-28.93981 -23.43734,-52.399649 -52.34903,-52.399649 z"
         sodipodi:nodetypes="ccccc" />
      <path
         style="color:#000000;font-style:normal;font-variant:normal;font-weight:normal;font-stretch:normal;font-size:medium;line-height:normal;font-family:sans-serif;font-variant-ligatures:normal;font-variant-position:normal;font-variant-caps:normal;font-variant-numeric:normal;font-variant-alternates:normal;font-variant-east-asian:normal;font-feature-settings:normal;font-variation-settings:normal;text-indent:0;text-align:start;text-decoration:none;text-decoration-line:none;text-decoration-style:solid;text-decoration-color:#000000;letter-spacing:normal;word-spacing:normal;text-transform:none;writing-mode:lr-tb;direction:ltr;text-orientation:mixed;dominant-baseline:auto;baseline-shift:baseline;text-anchor:start;white-space:normal;shape-padding:0;shape-margin:0;inline-size:0;clip-rule:nonzero;display:inline;overflow:visible;visibility:visible;isolation:auto;mix-blend-mode:normal;color-interpolation:sRGB;color-interpolation-filters:linearRGB;solid-color:#000000;solid-opacity:1;vector-effect:none;fill:#bb9753;fill-opacity:1;fill-rule:nonzero;stroke:none;stroke-width:1;stroke-linecap:butt;stroke-linejoin:miter;stroke-miterlimit:4;stroke-dasharray:none;stroke-dashoffset:0;stroke-opacity:1;color-rendering:auto;image-rendering:auto;shape-rendering:auto;text-rendering:auto;enable-background:accumulate;stop-color:#000000"
         d="m 81.983439,84.800804 c -28.303989,0 -51.258696,22.974636 -51.258696,51.305086 0,28.32904 22.954707,51.30701 51.258696,51.30701 28.303991,0 51.256761,-22.97797 51.256761,-51.30701 0,-28.33045 -22.95277,-51.305086 -51.256761,-51.305086 z"
         id="path769"
         sodipodi:nodetypes="ccccc" />
      <path
         id="path777"
         style="color:#000000;font-style:normal;font-variant:normal;font-weight:normal;font-stretch:normal;font-size:medium;line-height:normal;font-family:sans-serif;font-variant-ligatures:normal;font-variant-position:normal;font-variant-caps:normal;font-variant-numeric:normal;font-variant-alternates:normal;font-variant-east-asian:normal;font-feature-settings:normal;font-variation-settings:normal;text-indent:0;text-align:start;text-decoration:none;text-decoration-line:none;text-decoration-style:solid;text-decoration-color:#000000;letter-spacing:normal;word-spacing:normal;text-transform:none;writing-mode:lr-tb;direction:ltr;text-orientation:mixed;dominant-baseline:auto;baseline-shift:baseline;text-anchor:start;white-space:normal;shape-padding:0;shape-margin:0;inline-size:0;clip-rule:nonzero;display:inline;overflow:visible;visibility:visible;isolation:auto;mix-blend-mode:normal;color-interpolation:sRGB;color-interpolation-filters:linearRGB;solid-color:#000000;solid-opacity:1;vector-effect:none;fill:#ed174c;fill-opacity:1;fill-rule:nonzero;stroke:none;stroke-width:0.992427;stroke-linecap:butt;stroke-linejoin:miter;stroke-miterlimit:4;stroke-dasharray:none;stroke-dashoffset:0;stroke-opacity:1;color-rendering:auto;image-rendering:auto;shape-rendering:auto;text-rendering:auto;enable-background:accumulate;stop-color:#000000"
         d="m 66.18895,77.221494 -0.3012,0.174891 v 8.59776 c -0.953952,0.414167 -1.811482,0.834786 -2.541537,1.245711 -1.320532,0.743288 -2.242225,1.378485 -2.669892,2.14829 l -0.07671,0.138073 v 13.281451 h 43.524209 l -0.0118,-13.281451 -0.0787,-0.138073 c -0.43627,-0.764904 -1.34744,-1.404999 -2.66784,-2.14829 -0.82887,-0.466589 -1.81762,-0.94611 -2.931211,-1.413954 l -0.0036,-8.243889 -0.345179,-0.162616 C 92.580604,74.826005 87.52971,74.045043 82.164821,73.989599 75.461957,73.920319 69.28155,75.435383 66.18893,77.221494 Z"
         sodipodi:nodetypes="cccccccccccccccc" />
      <path
         id="path3964"
         style="color:#000000;font-style:normal;font-variant:normal;font-weight:normal;font-stretch:normal;font-size:medium;line-height:normal;font-family:sans-serif;font-variant-ligatures:normal;font-variant-position:normal;font-variant-caps:normal;font-variant-numeric:normal;font-variant-alternates:normal;font-variant-east-asian:normal;font-feature-settings:normal;font-variation-settings:normal;text-indent:0;text-align:start;text-decoration:none;text-decoration-line:none;text-decoration-style:solid;text-decoration-color:#000000;letter-spacing:normal;word-spacing:normal;text-transform:none;writing-mode:lr-tb;direction:ltr;text-orientation:mixed;dominant-baseline:auto;baseline-shift:baseline;text-anchor:start;white-space:normal;shape-padding:0;shape-margin:0;inline-size:0;clip-rule:nonzero;display:inline;overflow:visible;visibility:visible;isolation:auto;mix-blend-mode:normal;color-interpolation:sRGB;color-interpolation-filters:linearRGB;solid-color:#000000;solid-opacity:1;vector-effect:none;fill:#000000;fill-opacity:1;fill-rule:nonzero;stroke:none;stroke-width:0.992427;stroke-linecap:butt;stroke-linejoin:miter;stroke-miterlimit:4;stroke-dasharray:none;stroke-dashoffset:0;stroke-opacity:1;color-rendering:auto;image-rendering:auto;shape-rendering:auto;text-rendering:auto;enable-background:accumulate;stop-color:#000000"
         d="m 67.094088,100.17971 h 30.139464 l -0.0092,-21.809155 c -5.189813,-2.38693 -9.928439,-3.121481 -15.070751,-3.174621 -6.35148,-0.06564 -12.236407,1.429692 -15.059497,2.967515 z m 31.345791,0 h 4.479651 l -0.0102,-10.258199 c -0.19616,-0.298474 -0.93637,-0.957858 -2.13448,-1.63231 -0.66424,-0.373919 -1.454976,-0.763935 -2.340047,-1.151619 z M 65.88775,87.310939 c -0.727686,0.330124 -1.385687,0.660122 -1.950898,0.978262 -1.198247,0.674457 -1.938346,1.333875 -2.134481,1.63231 v 10.258199 h 4.085379 z"
         sodipodi:nodetypes="cccccccccccccccccc" />
      <path
         style="color:#000000;font-style:normal;font-variant:normal;font-weight:normal;font-stretch:normal;font-size:medium;line-height:normal;font-family:sans-serif;font-variant-ligatures:normal;font-variant-position:normal;font-variant-caps:normal;font-variant-numeric:normal;font-variant-alternates:normal;font-variant-east-asian:normal;font-feature-settings:normal;font-variation-settings:normal;text-indent:0;text-align:start;text-decoration:none;text-decoration-line:none;text-decoration-style:solid;text-decoration-color:#000000;letter-spacing:normal;word-spacing:normal;text-transform:none;writing-mode:lr-tb;direction:ltr;text-orientation:mixed;dominant-baseline:auto;baseline-shift:baseline;text-anchor:start;white-space:normal;shape-padding:0;shape-margin:0;inline-size:0;clip-rule:nonzero;display:inline;overflow:visible;visibility:visible;isolation:auto;mix-blend-mode:normal;color-interpolation:sRGB;color-interpolation-filters:linearRGB;solid-color:#000000;solid-opacity:1;vector-effect:none;fill:#000000;fill-opacity:1;fill-rule:nonzero;stroke:none;stroke-width:1;stroke-linecap:butt;stroke-linejoin:miter;stroke-miterlimit:4;stroke-dasharray:none;stroke-dashoffset:0;stroke-opacity:1;color-rendering:auto;image-rendering:auto;shape-rendering:auto;text-rendering:auto;enable-background:accumulate;stop-color:#000000"
         d="m 81.916356,91.532593 c -22.535332,0 -40.811621,18.939127 -40.811621,42.293317 0,23.35304 18.276289,42.29492 40.811621,42.29492 22.535324,0 40.810084,-18.94188 40.810084,-42.29492 0,-23.35419 -18.27476,-42.293317 -40.810084,-42.293317 z"
         id="path4972"
         sodipodi:nodetypes="ccccc" />
      <path
         id="path4005"
         style="color:#000000;font-style:normal;font-variant:normal;font-weight:normal;font-stretch:normal;font-size:medium;line-height:normal;font-family:sans-serif;font-variant-ligatures:normal;font-variant-position:normal;font-variant-caps:normal;font-variant-numeric:normal;font-variant-alternates:normal;font-variant-east-asian:normal;font-feature-settings:normal;font-variation-settings:normal;text-indent:0;text-align:start;text-decoration:none;text-decoration-line:none;text-decoration-style:solid;text-decoration-color:#000000;letter-spacing:normal;word-spacing:normal;text-transform:none;writing-mode:lr-tb;direction:ltr;text-orientation:mixed;dominant-baseline:auto;baseline-shift:baseline;text-anchor:start;white-space:normal;shape-padding:0;shape-margin:0;inline-size:0;clip-rule:nonzero;display:inline;overflow:visible;visibility:visible;isolation:auto;mix-blend-mode:normal;color-interpolation:sRGB;color-interpolation-filters:linearRGB;solid-color:#000000;solid-opacity:1;vector-effect:none;fill:#f36f21;fill-opacity:1;fill-rule:nonzero;stroke:none;stroke-width:0.990508;stroke-linecap:butt;stroke-linejoin:miter;stroke-miterlimit:4;stroke-dasharray:none;stroke-dashoffset:0;stroke-opacity:1;color-rendering:auto;image-rendering:auto;shape-rendering:auto;text-rendering:auto;enable-background:accumulate;stop-color:#000000"
         d="m 77.631496,93.359491 c -4.887725,11.624599 -6.220042,26.898869 -4.445902,41.704739 1.468393,12.25428 5.064394,24.18205 10.428487,33.45727 2.507238,-0.2416 4.699128,-0.60019 6.858571,-1.08561 -0.132201,-0.92059 0.144346,-1.94248 0.621833,-3.29121 0.582528,-1.64544 1.524093,-3.85931 2.756317,-7.12244 5.106078,-13.52178 5.183955,-28.34833 3.552014,-40.27494 -1.683624,-12.30432 -4.98809,-20.603355 -6.375322,-22.522518 -3.117964,-0.772257 -6.276662,-1.109196 -9.476304,-1.109196 -1.08059,-5.9e-5 -2.442955,0.07559 -3.919694,0.243905 z m -1.839929,0.255176 c -4.629213,0.758388 -9.140094,2.377088 -13.292191,4.83608 -1.490328,2.398233 -6.329217,10.567433 -7.926325,21.625053 -1.629252,11.2802 0.0966,25.47927 12.325179,39.67151 3.162193,3.66999 7.58004,6.3619 8.649921,8.98437 2.036363,0.0824 4.144552,0.0671 6.297081,-0.0706 C 76.543,159.2454 73.049221,147.40677 71.593171,135.25548 69.836112,120.5922 71.047343,105.47741 75.791567,93.614667 Z m 17.477288,1.241108 c 1.442398,2.865817 4.231698,10.775785 5.722806,21.673125 1.656959,12.10941 1.599179,27.18115 -3.641506,41.05939 -1.242789,3.29111 -2.192664,5.5343 -2.744043,7.09176 -0.408234,1.15311 -0.563899,1.8843 -0.550239,2.37227 8.982117,-2.3175 18.031457,-7.24518 25.517657,-16.42872 2.37816,-5.38114 3.53276,-11.16165 3.53276,-16.92311 0,-18.60412 -12.13356,-33.913173 -27.837435,-38.844715 z M 59.505781,100.4175 c -9.071359,6.57452 -16.794163,18.38069 -16.794163,33.56678 0,11.31187 4.718663,22.79467 13.753012,30.79906 3.753255,1.62868 9.905621,3.32038 17.130576,3.8389 -1.722905,-2.35449 -5.165446,-4.64129 -7.910472,-7.82712 -12.526844,-14.5384 -14.378463,-29.31802 -12.698483,-40.94943 1.242498,-8.60248 4.391827,-15.50136 6.51953,-19.42819 z m 55.300689,55.56558 c -6.73095,6.64565 -14.41548,10.51445 -22.039786,12.5374 1.7664,1.8167 6.101943,1.24871 8.377356,0.79212 3.93142,-2.29836 7.5471,-5.34534 10.64276,-9.12601 1.10631,-1.35113 2.11216,-2.75553 3.01967,-4.20351 z m -54.301971,11.94318 c 3.874546,2.63098 8.072465,4.46837 12.395749,5.52695 0.813035,-0.56162 1.530418,-1.52721 1.368951,-3.17104 -5.254883,-0.30769 -9.982927,-1.23497 -13.7647,-2.35591 z m 30.573111,1.0115 c -2.20382,0.50838 -4.395966,0.86815 -6.552257,1.1015 0.894429,1.4437 1.834454,2.81449 2.817681,4.10482 3.326874,-0.48185 6.599406,-1.40462 9.728412,-2.7645 -1.255183,0.001 -4.453755,-0.10439 -5.993836,-2.44182 z m -8.333891,1.26923 c -2.351021,0.18273 -4.649006,0.22069 -6.866243,0.14677 0.07294,1.46267 -0.411108,2.64512 -1.108661,3.50701 3.550844,0.68134 7.165243,0.84436 10.736334,0.50371 -0.964754,-1.31673 -1.886426,-2.70402 -2.76143,-4.15749 z"
         sodipodi:nodetypes="cccccccccccccccccccccccccccccccccccccccccccccccccccc" />
      <path
         d="m 81.999045,102.26478 55.820485,19.61666 v 24.44261 L 82.183079,168.67433 26.264914,146.32405 v -24.55728 z"
         style="fill:#000000;fill-opacity:1;fill-rule:nonzero;stroke:none;stroke-width:1.43057"
         id="path825"
         sodipodi:nodetypes="ccccccc" />
      <path
         style="color:#000000;font-style:normal;font-variant:normal;font-weight:normal;font-stretch:normal;font-size:medium;line-height:normal;font-family:sans-serif;font-variant-ligatures:normal;font-variant-position:normal;font-variant-caps:normal;font-variant-numeric:normal;font-variant-alternates:normal;font-variant-east-asian:normal;font-feature-settings:normal;font-variation-settings:normal;text-indent:0;text-align:start;text-decoration:none;text-decoration-line:none;text-decoration-style:solid;text-decoration-color:#000000;letter-spacing:normal;word-spacing:normal;text-transform:none;writing-mode:lr-tb;direction:ltr;text-orientation:mixed;dominant-baseline:auto;baseline-shift:baseline;text-anchor:start;white-space:normal;shape-padding:0;shape-margin:0;inline-size:0;clip-rule:nonzero;display:inline;overflow:visible;visibility:visible;isolation:auto;mix-blend-mode:normal;color-interpolation:sRGB;color-interpolation-filters:linearRGB;solid-color:#000000;solid-opacity:1;vector-effect:none;fill:#000000;fill-opacity:1;fill-rule:nonzero;stroke:none;stroke-width:0.992432;stroke-linecap:butt;stroke-linejoin:miter;stroke-miterlimit:4;stroke-dasharray:none;stroke-dashoffset:0;stroke-opacity:1;color-rendering:auto;image-rendering:auto;shape-rendering:auto;text-rendering:auto;enable-background:accumulate;stop-color:#000000"
         d="M 81.889975,95.343527 27.908198,115.64496 v 30.13949 l 54.158245,21.48491 54.160177,-21.48491 v -30.13949 z"
         id="path833"
         sodipodi:nodetypes="ccccccc" />
      <path
         style="color:#000000;font-style:normal;font-variant:normal;font-weight:normal;font-stretch:normal;font-size:medium;line-height:normal;font-family:sans-serif;font-variant-ligatures:normal;font-variant-position:normal;font-variant-caps:normal;font-variant-numeric:normal;font-variant-alternates:normal;font-variant-east-asian:normal;font-feature-settings:normal;font-variation-settings:normal;text-indent:0;text-align:start;text-decoration:none;text-decoration-line:none;text-decoration-style:solid;text-decoration-color:#000000;letter-spacing:normal;word-spacing:normal;text-transform:none;writing-mode:lr-tb;direction:ltr;text-orientation:mixed;dominant-baseline:auto;baseline-shift:baseline;text-anchor:start;white-space:normal;shape-padding:0;shape-margin:0;inline-size:0;clip-rule:nonzero;display:inline;overflow:visible;visibility:visible;isolation:auto;mix-blend-mode:normal;color-interpolation:sRGB;color-interpolation-filters:linearRGB;solid-color:#000000;solid-opacity:1;vector-effect:none;fill:#ed174c;fill-opacity:1;fill-rule:nonzero;stroke:none;stroke-width:0.992432;stroke-linecap:butt;stroke-linejoin:miter;stroke-miterlimit:4;stroke-dasharray:none;stroke-dashoffset:0;stroke-opacity:1;color-rendering:auto;image-rendering:auto;shape-rendering:auto;text-rendering:auto;enable-background:accumulate;stop-color:#000000"
         d="m 81.891893,97.056413 52.731167,19.701057 v 27.93748 l -52.556617,20.8481 -52.554693,-20.8481 v -27.9394 z"
         id="path3955"
         sodipodi:nodetypes="ccccccc" />
      <path
         id="path837"
         style="fill:#ffffff;fill-opacity:1;fill-rule:nonzero;stroke:none;stroke-width:1.43057"
         d="m 81.890232,103.02858 -6.617714,2.38148 0.02404,2.84376 4.859604,-1.60112 v 49.33856 l -0.840702,-0.38507 v 2.92763 l 2.815636,1.08258 2.623357,-1.06417 v -2.92763 l -0.828431,0.36666 V 106.6527 l 5.145975,1.63947 v -2.84427 z m 8.200934,2.84479 -0.02404,48.17057 -1.099968,0.56047 v 2.54818 l 11.275322,-4.43823 v -11.91249 l -2.975693,-1.49476 v 11.92119 l -3.690599,1.55305 v -19.80251 h 2.621824 v 2.38403 h 2.183063 v -7.85268 h -2.183059 v 2.38556 l -2.621824,-0.002 v -19.87001 l 3.690599,1.23037 v 12.02858 l 2.975699,-1.4339 v -12.4208 z m -17.999403,0.52722 -5.557634,1.88852 c -1.58204,0.53758 -1.485034,1.48388 -1.485034,4.0731 v 9.1296 c 0,2.95011 0.785345,3.95027 1.328042,4.94756 l 5.178192,9.51568 c 0.08472,0.15567 0.308872,0.52136 0.308872,2.04601 v 13.4543 c 0,1.72851 0.134457,2.10556 -0.648427,1.77242 l -1.963683,-0.83558 c -0.501469,-0.21339 -0.448987,-0.39185 -0.448987,-1.49322 v -9.94524 l -3.284055,-2.48579 v 13.55913 c 0,0.44167 0.03251,1.9383 1.279973,2.43363 l 6.324695,2.51137 c 1.196802,0.47521 2.023005,-0.001 2.023005,-1.54027 v -17.93906 c 0,-1.72426 -0.545228,-2.77852 -0.927125,-3.46406 l -5.557632,-9.97643 c -0.239765,-0.4304 -0.328814,-1.63208 -0.328814,-3.09841 v -8.46993 c 0,-0.40487 -0.0709,-1.27241 0.553818,-1.47685 l 1.431342,-0.46842 c 0.902022,-0.2952 0.91843,0.43454 0.91843,1.14804 v 9.77801 l 3.283032,1.48095 v -13.47731 c 0,-3.11836 -0.388823,-3.76057 -2.42801,-3.06775 z m -10.030637,3.63333 -11.006851,3.89413 -0.02659,31.52375 -1.192016,-0.55484 v 2.6387 l 12.22546,4.85705 v -13.93397 l -3.227805,1.34748 v 8.66935 l -4.00049,-1.59805 V 132.9773 h 2.842737 v 2.38506 h 2.366646 v -7.85269 h -2.366646 v 2.38404 h -2.84274 v -14.47347 l 4.00049,-1.41293 v 7.93502 l 3.227805,1.39861 z m 40.343454,0.42547 v 2.93887 l 1.58271,0.56763 v 34.60838 l -1.33213,0.57478 v 2.61927 l 5.82712,-2.34466 v -2.5891 l -0.78854,0.32831 0.007,-14.46784 c 1.59686,0 1.82257,0.97382 1.82204,2.43619 l -0.004,11.18941 c -5.3e-4,1.628 0.25912,1.92551 0.55075,2.47762 l 3.61952,-1.43543 c 0,0 -0.60801,-1.17685 -0.607,-3.4702 l 0.004,-8.12269 c 0.001,-3.20787 0.18005,-4.80481 -2.99667,-4.8954 v -0.0665 c 2.38395,0.0878 3.37899,-0.87763 3.37918,-2.6387 l 0.001,-9.98922 c 2.7e-4,-3.62123 -1.22561,-4.22573 -5.11478,-5.60723 z m -52.87932,3.98259 -4.530277,1.47788 -1.006387,22.34047 -1.388897,-21.56625 -2.562505,1.02633 -0.972635,20.30929 -0.696495,-19.80098 -4.772158,1.64663 0.276144,2.67245 1.27128,-0.46996 1.915612,20.42486 3.513662,1.37765 0.855022,-11.55761 0.825359,12.14364 3.572984,1.51061 2.978763,-28.49437 0.718994,-0.23063 z m 58.52338,0.66632 0.49552,0.18001 c 0.66355,0.24104 1.36052,0.40738 1.36026,1.53566 l -0.003,11.24311 c -2.6e-4,1.12968 -0.69569,1.53793 -1.36486,1.34951 l -0.49399,-0.13909 z m 8.47912,0.0629 v 2.85962 l 1.39913,0.48836 v 24.81348 l -1.39913,0.59167 v 2.64023 l 4.95932,-2.09204 v -17.17353 l 4.13806,15.65577 3.37457,-1.44975 v -19.09426 l 0.88774,0.28586 v -2.90871 l -5.41598,-1.83481 v 2.89643 l 1.28816,0.39325 1.01917,14.40443 -3.85935,-18.29856 z"
         sodipodi:nodetypes="cccccccccccccccccccccccccccccccccccccccccccccccccccccccccccccccccccccccccccccccccccccccccccccccccccccccccccccccccccccccccccccccccccccccccccccccccccccccccccc" />
      <path
         id="path963"
         style="fill:#000000;fill-opacity:1;fill-rule:nonzero;stroke:none;stroke-width:1.43057"
         d="m 79.378867,107.66778 -0.768599,0.21785 V 154.541 l 0.768599,0.34569 z m -14.246928,1.19407 c 0,0 -1.690097,0.23303 -1.690097,2.07669 v 11.70181 c 0,1.63933 0.592592,2.58592 1.349008,3.97237 l 4.930685,9.03755 c 0.239297,0.43861 0.594731,0.66237 0.594731,1.91663 v 14.76853 l 0.339552,0.14268 c 0.419841,0.17641 0.424954,-0.24347 0.424954,-0.4091 v -14.88973 c 0,-0.71349 -0.349195,-1.29707 -0.585015,-1.73152 l -4.951651,-9.12243 c -0.49406,-0.91021 -1.316791,-2.08231 -1.316791,-3.66656 v -11.70182 c 0,-0.17236 -0.09341,-1.5968 0.904624,-2.0951 z m 23.467543,0.0286 -0.01534,45.04504 0.758369,-0.27205 v -44.5081 z m -19.323866,2.5294 c 0.08493,0 0.276141,0.14535 0.276141,0.64932 v 10.30882 l 3.632303,1.5106 v -0.7691 l -2.7916,-1.25287 v -10.29596 c 0,-0.33134 -0.167935,-0.42304 -0.458704,-0.33962 z m 26.420228,0.0132 -0.0138,11.94523 h 0.779847 V 111.6867 Z m 6.783396,2.81717 -0.0153,34.23456 0.75889,-0.27052 V 114.5146 Z m 12.519,0.30989 v 2.97263 l 0.7645,0.2112 v -2.92047 z m -56.928912,0.58808 -0.767064,0.27768 v 7.44205 l 3.21911,1.28354 v -0.67808 l -2.452046,-1.0744 z m -13.839875,1.04219 -0.764506,0.3058 -0.05472,1.31373 0.488366,5.67269 z m 6.032188,1.57145 -0.75888,0.26081 -0.0056,25.99272 0.764506,0.31398 z m 66.136229,0.98696 0.0425,24.51075 0.72155,-0.32421 0.002,-23.96818 z m -83.566983,1.31168 -0.763994,0.22194 0.275631,2.55841 0.751721,-0.26336 z m 1.643563,3.09331 -0.730244,0.27461 1.785213,18.51692 0.764506,0.25466 z m 60.049322,4.28124 0.0041,1.79237 h 0.760417 v -1.79237 z m -37.604018,0.0762 -0.773199,0.009 v 1.67731 h 0.773199 z m 65.447406,6.01582 v 2.89081 l 1.7709,7.15466 0.73638,-0.32984 z m -27.843388,0.12222 0.0041,1.72027 h 0.760417 v -1.72027 z m -38.347557,0.022 v 1.69879 h 0.743029 v -1.69879 z m 7.788252,3.8747 -0.04705,14.11397 c -0.0039,1.16287 0.110354,1.80804 1.57555,2.45358 -0.212348,-0.18545 -0.811402,-0.97236 -0.806951,-2.39682 l 0.04244,-13.5801 z m -3.433377,0.11812 -3.207859,1.28253 v 8.18355 l 0.746097,0.24086 v -7.9703 l 2.461762,-1.06878 z m 35.144298,1.6451 v 11.90431 l 0.764509,-0.30733 0.0066,-11.59698 z m 20.087352,4.8821 -0.7645,0.26336 v 2.74353 l 0.7645,-0.31142 z m -67.45711,0.12069 v 2.54103 l 0.76553,0.35387 0.01024,-2.54921 z m 53.57939,5.03961 -0.7645,0.26336 v 2.74353 l 0.7645,-0.31143 z m -24.345571,5.51161 v 3.08155 l 0.830986,0.32421 v -3.02941 z m 10.650421,0.01 -0.764506,0.34364 v 2.49602 l 0.764506,-0.26489 z"
         sodipodi:nodetypes="ccccccccccccccccccccccccccccccccccccccccccccccccccccccccccccccccccccccccccccccccccccccccccccccccccccccccccccccccccccccccccccccccccccccccccccccccccccc" />
      <path
         id="path4101"
         style="fill:#000000;fill-opacity:1;fill-rule:nonzero;stroke:none;stroke-width:1.43057"
         d="m 43.203604,156.83335 -3.216042,1.81078 c -0.883157,0.49726 -1.307917,1.41933 -0.675528,2.54358 0.60347,1.07284 1.613684,1.18707 2.496025,0.69087 l 0.717459,-0.40347 -0.602911,-1.07287 -0.753256,0.42291 c -0.406814,0.2284 -0.704697,0.2265 -0.923032,-0.16262 -0.243167,-0.43337 -0.09647,-0.69887 0.369725,-0.96138 l 3.164904,-1.78215 c 0.466667,-0.26278 0.770308,-0.25048 1.014056,0.18256 0.155466,0.2762 0.06677,0.64372 -0.460238,0.94145 l -0.484273,0.27358 0.604448,1.07287 0.45768,-0.25927 c 0.932589,-0.52829 1.421036,-1.4817 0.816667,-2.55483 -0.666611,-1.18364 -1.709849,-1.20126 -2.525684,-0.74201 z m 75.967946,-0.0547 -1.66248,2.84581 6.18917,3.61389 1.73153,-2.96598 -0.9256,-0.54052 -1.11122,1.90283 -1.8164,-1.06111 0.79979,-1.37151 -0.9256,-0.54052 -0.79978,1.37202 -1.59601,-0.93224 1.04219,-1.78214 z m -70.120366,8.72508 -2.701598,2.51699 c -0.740906,0.69028 -0.936933,1.68874 -0.05778,2.63154 0.88051,0.94426 1.888984,0.81846 2.630518,0.12733 l 2.700574,-2.51699 c 0.740071,-0.68976 0.937043,-1.68707 0.05676,-2.63154 -0.890348,-0.95528 -1.900283,-0.80576 -2.628474,-0.12733 z m -0.947065,4.3559 c -0.391896,0.36549 -0.689685,0.42536 -1.028379,0.0619 -0.337986,-0.36273 -0.257475,-0.65529 0.134492,-1.0207 l 2.657109,-2.47711 c 0.395048,-0.36829 0.694359,-0.42063 1.027866,-0.0624 0.338576,0.3636 0.257407,0.6552 -0.134491,1.0207 z m 67.562491,0.76026 c 0.73332,0.69648 1.74013,0.83222 2.62899,-0.10227 0.84815,-0.8917 0.66105,-1.89082 -0.0721,-2.58756 l -0.59728,-0.56763 -0.84837,0.89184 0.62592,0.59422 c 0.33842,0.32127 0.42251,0.60679 0.11455,0.93019 -0.34183,0.35895 -0.63718,0.29754 -1.02633,-0.0721 l -2.63308,-2.50113 c -0.3884,-0.36894 -0.46566,-0.66252 -0.12324,-1.02225 0.21816,-0.22918 0.59515,-0.25344 1.03451,0.16365 l 0.40348,0.38302 0.84837,-0.89235 -0.38251,-0.36206 c -0.78981,-0.74757 -1.84276,-0.91098 -2.68116,-0.0297 -0.88893,0.93443 -0.70283,1.93439 0.0312,2.63154 z m -8.81638,0.30952 -0.93429,0.60342 2.22704,3.44258 -0.0174,0.01 -3.48349,-2.62745 -0.95832,0.6203 3.89004,6.01633 0.93326,-0.60342 -2.42955,-3.7581 0.0158,-0.0118 3.74686,2.90819 0.90002,-0.58194 z m -49.254465,0.21966 -3.945775,5.97952 0.927123,0.61161 2.464831,-3.73458 0.01689,0.01 -1.156732,4.59983 0.894908,0.59012 3.946798,-5.97951 -0.928659,-0.61314 -2.256702,3.42161 -0.01637,-0.0113 1.005876,-4.24544 z m 40.423743,4.7269 -3.106096,1.09997 2.391192,6.75425 3.237516,-1.14548 -0.35796,-1.01099 -2.076698,0.73485 -0.702629,-1.98312 1.496798,-0.52927 -0.35694,-1.01099 -1.497821,0.52927 -0.615696,-1.7397 1.946809,-0.68831 z m -31.503305,0.16262 -2.459206,6.73022 1.155198,0.42137 1.090253,-2.98234 1.547424,0.56455 0.367679,-1.00689 -1.547424,-0.56456 0.633084,-1.73408 2.069539,0.75581 0.367677,-1.00689 z m 9.159764,2.27358 -0.879567,7.11068 3.407809,0.42239 0.131422,-1.06468 -2.18562,-0.27052 0.257734,-2.08794 1.575037,0.19534 0.131935,-1.06469 -1.575549,-0.19381 0.226541,-1.83226 2.04857,0.25365 0.131425,-1.06469 z m 9.470868,0.53188 0.768089,7.12347 1.223209,-0.13143 -0.313985,-2.92098 c 0.216601,-0.0226 0.471731,-0.0603 0.627459,-0.0972 l 1.185879,2.85655 1.242645,-0.13449 -1.382761,-3.11428 c 0.393549,-0.23217 0.78737,-0.74315 0.663765,-1.88851 -0.110425,-1.02325 -0.499006,-2.07134 -2.297611,-1.8773 z m 1.568392,3.06516 -0.236768,-2.19023 0.435181,-0.0471 c 0.734929,-0.08 0.94379,0.24898 1.024286,0.99666 0.09145,0.84944 -0.128567,1.12175 -0.789566,1.19355 z"
         sodipodi:nodetypes="ccccccccccccccccccccccccccccccccccccccccccccccccccccccccccccccccccccccccccccccccccccccccccccccccccccccccccccccccccccccccccccccccccccccccccccc" />
      <path
         id="path967"
         style="fill:#ffffff;fill-opacity:1;fill-rule:nonzero;stroke:none;stroke-width:1.43057"
         d="m 42.957662,156.42542 -3.216041,1.81078 c -0.883157,0.49726 -1.307918,1.41933 -0.675528,2.54358 0.603469,1.07284 1.613684,1.18707 2.496024,0.69087 l 0.717459,-0.40347 -0.602911,-1.07287 -0.753255,0.42291 c -0.406815,0.2284 -0.704698,0.2265 -0.923033,-0.16262 -0.243167,-0.43337 -0.09647,-0.69887 0.369725,-0.96139 l 3.164904,-1.78214 c 0.466668,-0.26278 0.770308,-0.25049 1.014056,0.18256 0.155466,0.2762 0.06677,0.64372 -0.460237,0.94144 l -0.484273,0.27359 0.604448,1.07286 0.457679,-0.25926 c 0.93259,-0.5283 1.421036,-1.48171 0.816667,-2.55484 -0.666609,-1.18364 -1.709871,-1.20126 -2.525684,-0.742 z m 76.017038,-0.12017 -1.66249,2.8458 6.18918,3.61389 1.73152,-2.96598 -0.92559,-0.54052 -1.11122,1.90283 -1.8164,-1.06111 0.79979,-1.37151 -0.92559,-0.54052 -0.79979,1.37202 -1.59601,-0.93224 1.04219,-1.78214 z m -70.169457,8.79054 -2.701598,2.517 c -0.740906,0.69027 -0.936934,1.68873 -0.05778,2.63153 0.88051,0.94427 1.888984,0.81846 2.630518,0.12734 l 2.700575,-2.51699 c 0.74007,-0.68976 0.937043,-1.68707 0.05676,-2.63154 -0.890596,-0.95555 -1.90059,-0.80548 -2.628475,-0.12734 z m 66.337727,5.32445 c 0.73331,0.69647 1.74012,0.83221 2.62898,-0.10228 0.84815,-0.89169 0.66104,-1.89082 -0.0721,-2.58756 l -0.59729,-0.56763 -0.84837,0.89184 0.62592,0.59422 c 0.33842,0.32128 0.42251,0.6068 0.11455,0.9302 -0.34182,0.35895 -0.63718,0.29754 -1.02633,-0.0721 l -2.63308,-2.50114 c -0.3884,-0.36894 -0.46566,-0.66252 -0.12324,-1.02224 0.21817,-0.22919 0.59516,-0.25344 1.03451,0.16364 l 0.40348,0.38302 0.84837,-0.89235 -0.38251,-0.36205 c -0.78969,-0.74747 -1.84262,-0.91109 -2.68115,-0.0297 -0.88893,0.93442 -0.70283,1.93438 0.0312,2.63153 z m -67.284793,-0.96855 c -0.391896,0.3655 -0.689685,0.42537 -1.028378,0.0619 -0.337987,-0.36273 -0.257476,-0.65529 0.134491,-1.02071 l 2.657109,-2.4771 c 0.395533,-0.36874 0.694563,-0.42025 1.027865,-0.0624 0.338576,0.3636 0.257408,0.65521 -0.134491,1.02071 z m 58.514683,1.25492 -0.93428,0.60342 2.22704,3.44258 -0.0174,0.01 -3.4835,-2.62745 -0.95831,0.6203 3.89003,6.01634 0.93326,-0.60343 -2.42954,-3.75809 0.0158,-0.0118 3.74685,2.9082 0.90002,-0.58195 z m -48.924854,0.005 -3.945775,5.97952 0.927123,0.6116 2.46483,-3.73457 0.01689,0.01 -1.156732,4.59982 0.894908,0.59013 3.946798,-5.97952 -0.92866,-0.61314 -2.256701,3.42162 -0.01636,-0.0113 1.005877,-4.24544 z m 40.211011,4.75682 -3.106096,1.09997 2.391192,6.75425 3.237517,-1.14548 -0.357959,-1.01099 -2.0767,0.73484 -0.702629,-1.98311 1.496798,-0.52928 -0.35694,-1.01099 -1.497822,0.52928 -0.615696,-1.7397 1.946809,-0.68831 z m -31.388757,0.16262 -2.459207,6.73021 1.155198,0.42138 1.090253,-2.98235 1.547424,0.56456 0.36768,-1.0069 -1.547424,-0.56456 0.633083,-1.73407 2.069539,0.75581 0.367677,-1.0069 z m 9.159764,2.27357 -0.879568,7.11068 3.40781,0.4224 0.131422,-1.06469 -2.185621,-0.27052 0.257735,-2.08794 1.575036,0.19534 0.131936,-1.06468 -1.575549,-0.19381 0.226541,-1.83226 2.048569,0.25364 0.131425,-1.06468 z m 9.482439,0.47403 0.768088,7.12347 1.223209,-0.13143 -0.313985,-2.92098 c 0.216602,-0.0226 0.471732,-0.0603 0.62746,-0.0972 l 1.185878,2.85655 1.242645,-0.13449 -1.38276,-3.11428 c 0.393548,-0.23217 0.787369,-0.74315 0.663764,-1.88851 -0.110425,-1.02325 -0.499008,-2.07134 -2.297611,-1.8773 z m 2.79109,1.82461 c 0.09145,0.84944 -0.128567,1.12175 -0.789566,1.19355 l -0.433133,0.047 -0.236768,-2.19023 0.435181,-0.047 c 0.735277,-0.0801 0.943849,0.24954 1.024286,0.99668 z"
         sodipodi:nodetypes="ccccccccccccccccccccccccccccccccccccccccccccccccccccccccccccccccccccccccccccccccccccccccccccccccccccccccccccccccccccccccccccccccccccccccccccc" />
      <path
         id="path22245-9"
         style="color:#000000;display:inline;fill:#ffffff;stroke:none;stroke-width:1;-inkscape-stroke:none;paint-order:markers stroke fill"
         d="m 79.395132,77.839039 v 0.150379 0.321427 l 0.131775,0.01602 c 0.111069,0.01316 0.160711,0.02724 0.160711,0.13436 v 11.299563 c 0,0.10394 -0.05142,0.1206 -0.162778,0.1343 l -0.129708,0.016 v 0.47181 h 4.20026 c 1.590883,0 2.270663,-2.44354 2.270663,-3.79977 0,-0.91639 -0.340971,-2.24019 -1.135332,-2.69234 0.559343,-0.37668 0.926042,-2.16507 0.926042,-3.053044 0,-1.666785 -0.908651,-2.998784 -2.112533,-2.998784 z m -4.42402,1.25257 c 0.0097,0.01441 0.03256,0.08116 0.03256,0.205156 v 5.401733 c -0.306593,-0.65618 -2.24999,-4.823832 -2.24999,-5.033276 0,-0.09752 0.04792,-0.168685 0.196368,-0.222209 l 0.09767,-0.03462 v -0.568958 c 0,0 -1.853664,0.406992 -2.8298,0.753955 v 0.547254 l 0.162264,-0.01447 c 0.101771,-0.0093 0.130224,0.02612 0.130224,0.189136 v 10.720278 c 0,0.21207 -0.03797,0.28481 -0.203093,0.3576 l -0.0894,0.0408 v 0.57361 l 2.29495,-0.61237 v -0.55914 l -0.164331,0.0165 c -0.10176,0.009 -0.130226,-0.0489 -0.130226,-0.1891 v -6.46317 c 1.954981,4.0941 2.499109,5.37725 2.614311,5.65805 0.103567,0.25227 0.142172,0.35034 0.09563,0.43103 -0.01256,0.0182 -0.03379,0.038 -0.105937,0.0568 l -0.111621,0.0305 v 0.56534 l 2.295467,-0.30489 v -0.57309 l -0.164848,0.0139 c -0.1015,0.009 -0.128159,-0.0333 -0.128159,-0.18909 V 79.101495 c 0,-0.210217 0.03732,-0.285458 0.203609,-0.359668 l 0.0894,-0.03876 v -0.536916 c -0.695766,0.07805 -1.456956,0.170373 -2.222086,0.382406 v 0.557072 z m 17.364345,0.912357 c -0.01518,-0.0861 -0.03196,-0.195767 -0.0083,-0.249597 l 0.176736,0.0098 v -0.56534 l -3.039142,-0.77843 v 0.575159 l 0.08113,0.04289 c 0.126229,0.06402 0.12816,0.117539 0.12816,0.16071 0,0.04251 -0.04815,0.291755 -0.07541,0.447 l -1.836063,10.081 c -0.05699,0.33539 -0.102319,0.35281 -0.16072,0.36689 l -0.115755,0.0264 v 0.53692 l 2.149223,0.35605 0.0708,-0.54312 -0.127641,-0.0326 c -0.04367,-0.0112 -0.07751,-0.0448 -0.07751,-0.14626 0,-0.0894 0.03215,-0.24857 0.05064,-0.3576 l 0.256315,-1.51102 2.236556,0.49196 0.284737,1.67949 c 0.02035,0.11407 0.05221,0.27442 0.05221,0.34371 0.001,0.0645 -0.01549,0.0998 -0.01549,0.0998 l -0.182938,-0.0166 v 0.57361 l 2.368331,0.60565 v -0.59996 l -0.121989,-0.0359 c -0.06299,-0.0897 -0.1135,-0.31907 -0.174665,-0.67549 z M 81.561925,79.806879 h 1.276924 c 0.84083,0 0.983919,0.735443 0.983919,1.2361 0,0.50855 -0.186239,1.894979 -0.983919,1.894979 h -1.276924 z m 9.319844,2.238623 0.829407,4.537706 -1.588017,-0.40876 z m -9.319844,2.797246 h 1.635042 c 0.682795,0 0.88005,0.95178 0.88005,1.45572 0,0.6992 -0.306354,2.11667 -0.88005,2.11667 h -1.635042 z"
         sodipodi:nodetypes="ccccccccccccccccccccccccccccccccccccccccccccccccccccccccccccccccccccccccccccccccccccccccccccccccc" />
    </g>
  </g>
</svg>
